<svg xmlns="http://www.w3.org/2000/svg" viewBox="0 0 1200 256" width="100%" role="img" aria-label="Sinus tachycardia"><rect width="1200" height="256" fill="#0E1216"/><line x1="0" y1="0" x2="0" y2="256" stroke="rgba(224,82,76,0.34)" stroke-width="1.4"/><line x1="8" y1="0" x2="8" y2="256" stroke="rgba(224,82,76,0.16)" stroke-width="0.8"/><line x1="16" y1="0" x2="16" y2="256" stroke="rgba(224,82,76,0.16)" stroke-width="0.8"/><line x1="24" y1="0" x2="24" y2="256" stroke="rgba(224,82,76,0.16)" stroke-width="0.8"/><line x1="32" y1="0" x2="32" y2="256" stroke="rgba(224,82,76,0.16)" stroke-width="0.8"/><line x1="40" y1="0" x2="40" y2="256" stroke="rgba(224,82,76,0.34)" stroke-width="1.4"/><line x1="48" y1="0" x2="48" y2="256" stroke="rgba(224,82,76,0.16)" stroke-width="0.8"/><line x1="56" y1="0" x2="56" y2="256" stroke="rgba(224,82,76,0.16)" stroke-width="0.8"/><line x1="64" y1="0" x2="64" y2="256" stroke="rgba(224,82,76,0.16)" stroke-width="0.8"/><line x1="72" y1="0" x2="72" y2="256" stroke="rgba(224,82,76,0.16)" stroke-width="0.8"/><line x1="80" y1="0" x2="80" y2="256" stroke="rgba(224,82,76,0.34)" stroke-width="1.4"/><line x1="88" y1="0" x2="88" y2="256" stroke="rgba(224,82,76,0.16)" stroke-width="0.8"/><line x1="96" y1="0" x2="96" y2="256" stroke="rgba(224,82,76,0.16)" stroke-width="0.8"/><line x1="104" y1="0" x2="104" y2="256" stroke="rgba(224,82,76,0.16)" stroke-width="0.8"/><line x1="112" y1="0" x2="112" y2="256" stroke="rgba(224,82,76,0.16)" stroke-width="0.8"/><line x1="120" y1="0" x2="120" y2="256" stroke="rgba(224,82,76,0.34)" stroke-width="1.4"/><line x1="128" y1="0" x2="128" y2="256" stroke="rgba(224,82,76,0.16)" stroke-width="0.8"/><line x1="136" y1="0" x2="136" y2="256" stroke="rgba(224,82,76,0.16)" stroke-width="0.8"/><line x1="144" y1="0" x2="144" y2="256" stroke="rgba(224,82,76,0.16)" stroke-width="0.8"/><line x1="152" y1="0" x2="152" y2="256" stroke="rgba(224,82,76,0.16)" stroke-width="0.8"/><line x1="160" y1="0" x2="160" y2="256" stroke="rgba(224,82,76,0.34)" stroke-width="1.4"/><line x1="168" y1="0" x2="168" y2="256" stroke="rgba(224,82,76,0.16)" stroke-width="0.8"/><line x1="176" y1="0" x2="176" y2="256" stroke="rgba(224,82,76,0.16)" stroke-width="0.8"/><line x1="184" y1="0" x2="184" y2="256" stroke="rgba(224,82,76,0.16)" stroke-width="0.8"/><line x1="192" y1="0" x2="192" y2="256" stroke="rgba(224,82,76,0.16)" stroke-width="0.8"/><line x1="200" y1="0" x2="200" y2="256" stroke="rgba(224,82,76,0.34)" stroke-width="1.4"/><line x1="208" y1="0" x2="208" y2="256" stroke="rgba(224,82,76,0.16)" stroke-width="0.8"/><line x1="216" y1="0" x2="216" y2="256" stroke="rgba(224,82,76,0.16)" stroke-width="0.8"/><line x1="224" y1="0" x2="224" y2="256" stroke="rgba(224,82,76,0.16)" stroke-width="0.8"/><line x1="232" y1="0" x2="232" y2="256" stroke="rgba(224,82,76,0.16)" stroke-width="0.8"/><line x1="240" y1="0" x2="240" y2="256" stroke="rgba(224,82,76,0.34)" stroke-width="1.4"/><line x1="248" y1="0" x2="248" y2="256" stroke="rgba(224,82,76,0.16)" stroke-width="0.8"/><line x1="256" y1="0" x2="256" y2="256" stroke="rgba(224,82,76,0.16)" stroke-width="0.8"/><line x1="264" y1="0" x2="264" y2="256" stroke="rgba(224,82,76,0.16)" stroke-width="0.8"/><line x1="272" y1="0" x2="272" y2="256" stroke="rgba(224,82,76,0.16)" stroke-width="0.8"/><line x1="280" y1="0" x2="280" y2="256" stroke="rgba(224,82,76,0.34)" stroke-width="1.4"/><line x1="288" y1="0" x2="288" y2="256" stroke="rgba(224,82,76,0.16)" stroke-width="0.8"/><line x1="296" y1="0" x2="296" y2="256" stroke="rgba(224,82,76,0.16)" stroke-width="0.8"/><line x1="304" y1="0" x2="304" y2="256" stroke="rgba(224,82,76,0.16)" stroke-width="0.8"/><line x1="312" y1="0" x2="312" y2="256" stroke="rgba(224,82,76,0.16)" stroke-width="0.8"/><line x1="320" y1="0" x2="320" y2="256" stroke="rgba(224,82,76,0.34)" stroke-width="1.4"/><line x1="328" y1="0" x2="328" y2="256" stroke="rgba(224,82,76,0.16)" stroke-width="0.8"/><line x1="336" y1="0" x2="336" y2="256" stroke="rgba(224,82,76,0.16)" stroke-width="0.8"/><line x1="344" y1="0" x2="344" y2="256" stroke="rgba(224,82,76,0.16)" stroke-width="0.8"/><line x1="352" y1="0" x2="352" y2="256" stroke="rgba(224,82,76,0.16)" stroke-width="0.8"/><line x1="360" y1="0" x2="360" y2="256" stroke="rgba(224,82,76,0.34)" stroke-width="1.4"/><line x1="368" y1="0" x2="368" y2="256" stroke="rgba(224,82,76,0.16)" stroke-width="0.8"/><line x1="376" y1="0" x2="376" y2="256" stroke="rgba(224,82,76,0.16)" stroke-width="0.8"/><line x1="384" y1="0" x2="384" y2="256" stroke="rgba(224,82,76,0.16)" stroke-width="0.8"/><line x1="392" y1="0" x2="392" y2="256" stroke="rgba(224,82,76,0.16)" stroke-width="0.8"/><line x1="400" y1="0" x2="400" y2="256" stroke="rgba(224,82,76,0.34)" stroke-width="1.4"/><line x1="408" y1="0" x2="408" y2="256" stroke="rgba(224,82,76,0.16)" stroke-width="0.8"/><line x1="416" y1="0" x2="416" y2="256" stroke="rgba(224,82,76,0.16)" stroke-width="0.8"/><line x1="424" y1="0" x2="424" y2="256" stroke="rgba(224,82,76,0.16)" stroke-width="0.8"/><line x1="432" y1="0" x2="432" y2="256" stroke="rgba(224,82,76,0.16)" stroke-width="0.8"/><line x1="440" y1="0" x2="440" y2="256" stroke="rgba(224,82,76,0.34)" stroke-width="1.4"/><line x1="448" y1="0" x2="448" y2="256" stroke="rgba(224,82,76,0.16)" stroke-width="0.8"/><line x1="456" y1="0" x2="456" y2="256" stroke="rgba(224,82,76,0.16)" stroke-width="0.8"/><line x1="464" y1="0" x2="464" y2="256" stroke="rgba(224,82,76,0.16)" stroke-width="0.8"/><line x1="472" y1="0" x2="472" y2="256" stroke="rgba(224,82,76,0.16)" stroke-width="0.8"/><line x1="480" y1="0" x2="480" y2="256" stroke="rgba(224,82,76,0.34)" stroke-width="1.4"/><line x1="488" y1="0" x2="488" y2="256" stroke="rgba(224,82,76,0.16)" stroke-width="0.8"/><line x1="496" y1="0" x2="496" y2="256" stroke="rgba(224,82,76,0.16)" stroke-width="0.8"/><line x1="504" y1="0" x2="504" y2="256" stroke="rgba(224,82,76,0.16)" stroke-width="0.8"/><line x1="512" y1="0" x2="512" y2="256" stroke="rgba(224,82,76,0.16)" stroke-width="0.8"/><line x1="520" y1="0" x2="520" y2="256" stroke="rgba(224,82,76,0.34)" stroke-width="1.4"/><line x1="528" y1="0" x2="528" y2="256" stroke="rgba(224,82,76,0.16)" stroke-width="0.8"/><line x1="536" y1="0" x2="536" y2="256" stroke="rgba(224,82,76,0.16)" stroke-width="0.8"/><line x1="544" y1="0" x2="544" y2="256" stroke="rgba(224,82,76,0.16)" stroke-width="0.8"/><line x1="552" y1="0" x2="552" y2="256" stroke="rgba(224,82,76,0.16)" stroke-width="0.8"/><line x1="560" y1="0" x2="560" y2="256" stroke="rgba(224,82,76,0.34)" stroke-width="1.4"/><line x1="568" y1="0" x2="568" y2="256" stroke="rgba(224,82,76,0.16)" stroke-width="0.8"/><line x1="576" y1="0" x2="576" y2="256" stroke="rgba(224,82,76,0.16)" stroke-width="0.8"/><line x1="584" y1="0" x2="584" y2="256" stroke="rgba(224,82,76,0.16)" stroke-width="0.8"/><line x1="592" y1="0" x2="592" y2="256" stroke="rgba(224,82,76,0.16)" stroke-width="0.8"/><line x1="600" y1="0" x2="600" y2="256" stroke="rgba(224,82,76,0.34)" stroke-width="1.4"/><line x1="608" y1="0" x2="608" y2="256" stroke="rgba(224,82,76,0.16)" stroke-width="0.8"/><line x1="616" y1="0" x2="616" y2="256" stroke="rgba(224,82,76,0.16)" stroke-width="0.8"/><line x1="624" y1="0" x2="624" y2="256" stroke="rgba(224,82,76,0.16)" stroke-width="0.8"/><line x1="632" y1="0" x2="632" y2="256" stroke="rgba(224,82,76,0.16)" stroke-width="0.8"/><line x1="640" y1="0" x2="640" y2="256" stroke="rgba(224,82,76,0.34)" stroke-width="1.4"/><line x1="648" y1="0" x2="648" y2="256" stroke="rgba(224,82,76,0.16)" stroke-width="0.8"/><line x1="656" y1="0" x2="656" y2="256" stroke="rgba(224,82,76,0.16)" stroke-width="0.8"/><line x1="664" y1="0" x2="664" y2="256" stroke="rgba(224,82,76,0.16)" stroke-width="0.8"/><line x1="672" y1="0" x2="672" y2="256" stroke="rgba(224,82,76,0.16)" stroke-width="0.8"/><line x1="680" y1="0" x2="680" y2="256" stroke="rgba(224,82,76,0.34)" stroke-width="1.4"/><line x1="688" y1="0" x2="688" y2="256" stroke="rgba(224,82,76,0.16)" stroke-width="0.8"/><line x1="696" y1="0" x2="696" y2="256" stroke="rgba(224,82,76,0.16)" stroke-width="0.8"/><line x1="704" y1="0" x2="704" y2="256" stroke="rgba(224,82,76,0.16)" stroke-width="0.8"/><line x1="712" y1="0" x2="712" y2="256" stroke="rgba(224,82,76,0.16)" stroke-width="0.8"/><line x1="720" y1="0" x2="720" y2="256" stroke="rgba(224,82,76,0.34)" stroke-width="1.4"/><line x1="728" y1="0" x2="728" y2="256" stroke="rgba(224,82,76,0.16)" stroke-width="0.8"/><line x1="736" y1="0" x2="736" y2="256" stroke="rgba(224,82,76,0.16)" stroke-width="0.8"/><line x1="744" y1="0" x2="744" y2="256" stroke="rgba(224,82,76,0.16)" stroke-width="0.8"/><line x1="752" y1="0" x2="752" y2="256" stroke="rgba(224,82,76,0.16)" stroke-width="0.8"/><line x1="760" y1="0" x2="760" y2="256" stroke="rgba(224,82,76,0.34)" stroke-width="1.4"/><line x1="768" y1="0" x2="768" y2="256" stroke="rgba(224,82,76,0.16)" stroke-width="0.8"/><line x1="776" y1="0" x2="776" y2="256" stroke="rgba(224,82,76,0.16)" stroke-width="0.8"/><line x1="784" y1="0" x2="784" y2="256" stroke="rgba(224,82,76,0.16)" stroke-width="0.8"/><line x1="792" y1="0" x2="792" y2="256" stroke="rgba(224,82,76,0.16)" stroke-width="0.8"/><line x1="800" y1="0" x2="800" y2="256" stroke="rgba(224,82,76,0.34)" stroke-width="1.4"/><line x1="808" y1="0" x2="808" y2="256" stroke="rgba(224,82,76,0.16)" stroke-width="0.8"/><line x1="816" y1="0" x2="816" y2="256" stroke="rgba(224,82,76,0.16)" stroke-width="0.8"/><line x1="824" y1="0" x2="824" y2="256" stroke="rgba(224,82,76,0.16)" stroke-width="0.8"/><line x1="832" y1="0" x2="832" y2="256" stroke="rgba(224,82,76,0.16)" stroke-width="0.8"/><line x1="840" y1="0" x2="840" y2="256" stroke="rgba(224,82,76,0.34)" stroke-width="1.4"/><line x1="848" y1="0" x2="848" y2="256" stroke="rgba(224,82,76,0.16)" stroke-width="0.8"/><line x1="856" y1="0" x2="856" y2="256" stroke="rgba(224,82,76,0.16)" stroke-width="0.8"/><line x1="864" y1="0" x2="864" y2="256" stroke="rgba(224,82,76,0.16)" stroke-width="0.8"/><line x1="872" y1="0" x2="872" y2="256" stroke="rgba(224,82,76,0.16)" stroke-width="0.8"/><line x1="880" y1="0" x2="880" y2="256" stroke="rgba(224,82,76,0.34)" stroke-width="1.4"/><line x1="888" y1="0" x2="888" y2="256" stroke="rgba(224,82,76,0.16)" stroke-width="0.8"/><line x1="896" y1="0" x2="896" y2="256" stroke="rgba(224,82,76,0.16)" stroke-width="0.8"/><line x1="904" y1="0" x2="904" y2="256" stroke="rgba(224,82,76,0.16)" stroke-width="0.8"/><line x1="912" y1="0" x2="912" y2="256" stroke="rgba(224,82,76,0.16)" stroke-width="0.8"/><line x1="920" y1="0" x2="920" y2="256" stroke="rgba(224,82,76,0.34)" stroke-width="1.4"/><line x1="928" y1="0" x2="928" y2="256" stroke="rgba(224,82,76,0.16)" stroke-width="0.8"/><line x1="936" y1="0" x2="936" y2="256" stroke="rgba(224,82,76,0.16)" stroke-width="0.8"/><line x1="944" y1="0" x2="944" y2="256" stroke="rgba(224,82,76,0.16)" stroke-width="0.8"/><line x1="952" y1="0" x2="952" y2="256" stroke="rgba(224,82,76,0.16)" stroke-width="0.8"/><line x1="960" y1="0" x2="960" y2="256" stroke="rgba(224,82,76,0.34)" stroke-width="1.4"/><line x1="968" y1="0" x2="968" y2="256" stroke="rgba(224,82,76,0.16)" stroke-width="0.8"/><line x1="976" y1="0" x2="976" y2="256" stroke="rgba(224,82,76,0.16)" stroke-width="0.8"/><line x1="984" y1="0" x2="984" y2="256" stroke="rgba(224,82,76,0.16)" stroke-width="0.8"/><line x1="992" y1="0" x2="992" y2="256" stroke="rgba(224,82,76,0.16)" stroke-width="0.8"/><line x1="1000" y1="0" x2="1000" y2="256" stroke="rgba(224,82,76,0.34)" stroke-width="1.4"/><line x1="1008" y1="0" x2="1008" y2="256" stroke="rgba(224,82,76,0.16)" stroke-width="0.8"/><line x1="1016" y1="0" x2="1016" y2="256" stroke="rgba(224,82,76,0.16)" stroke-width="0.8"/><line x1="1024" y1="0" x2="1024" y2="256" stroke="rgba(224,82,76,0.16)" stroke-width="0.8"/><line x1="1032" y1="0" x2="1032" y2="256" stroke="rgba(224,82,76,0.16)" stroke-width="0.8"/><line x1="1040" y1="0" x2="1040" y2="256" stroke="rgba(224,82,76,0.34)" stroke-width="1.4"/><line x1="1048" y1="0" x2="1048" y2="256" stroke="rgba(224,82,76,0.16)" stroke-width="0.8"/><line x1="1056" y1="0" x2="1056" y2="256" stroke="rgba(224,82,76,0.16)" stroke-width="0.8"/><line x1="1064" y1="0" x2="1064" y2="256" stroke="rgba(224,82,76,0.16)" stroke-width="0.8"/><line x1="1072" y1="0" x2="1072" y2="256" stroke="rgba(224,82,76,0.16)" stroke-width="0.8"/><line x1="1080" y1="0" x2="1080" y2="256" stroke="rgba(224,82,76,0.34)" stroke-width="1.4"/><line x1="1088" y1="0" x2="1088" y2="256" stroke="rgba(224,82,76,0.16)" stroke-width="0.8"/><line x1="1096" y1="0" x2="1096" y2="256" stroke="rgba(224,82,76,0.16)" stroke-width="0.8"/><line x1="1104" y1="0" x2="1104" y2="256" stroke="rgba(224,82,76,0.16)" stroke-width="0.8"/><line x1="1112" y1="0" x2="1112" y2="256" stroke="rgba(224,82,76,0.16)" stroke-width="0.8"/><line x1="1120" y1="0" x2="1120" y2="256" stroke="rgba(224,82,76,0.34)" stroke-width="1.4"/><line x1="1128" y1="0" x2="1128" y2="256" stroke="rgba(224,82,76,0.16)" stroke-width="0.8"/><line x1="1136" y1="0" x2="1136" y2="256" stroke="rgba(224,82,76,0.16)" stroke-width="0.8"/><line x1="1144" y1="0" x2="1144" y2="256" stroke="rgba(224,82,76,0.16)" stroke-width="0.8"/><line x1="1152" y1="0" x2="1152" y2="256" stroke="rgba(224,82,76,0.16)" stroke-width="0.8"/><line x1="1160" y1="0" x2="1160" y2="256" stroke="rgba(224,82,76,0.34)" stroke-width="1.4"/><line x1="1168" y1="0" x2="1168" y2="256" stroke="rgba(224,82,76,0.16)" stroke-width="0.8"/><line x1="1176" y1="0" x2="1176" y2="256" stroke="rgba(224,82,76,0.16)" stroke-width="0.8"/><line x1="1184" y1="0" x2="1184" y2="256" stroke="rgba(224,82,76,0.16)" stroke-width="0.8"/><line x1="1192" y1="0" x2="1192" y2="256" stroke="rgba(224,82,76,0.16)" stroke-width="0.8"/><line x1="1200" y1="0" x2="1200" y2="256" stroke="rgba(224,82,76,0.34)" stroke-width="1.4"/><line x1="0" y1="0" x2="1200" y2="0" stroke="rgba(224,82,76,0.34)" stroke-width="1.4"/><line x1="0" y1="8" x2="1200" y2="8" stroke="rgba(224,82,76,0.16)" stroke-width="0.8"/><line x1="0" y1="16" x2="1200" y2="16" stroke="rgba(224,82,76,0.16)" stroke-width="0.8"/><line x1="0" y1="24" x2="1200" y2="24" stroke="rgba(224,82,76,0.16)" stroke-width="0.8"/><line x1="0" y1="32" x2="1200" y2="32" stroke="rgba(224,82,76,0.16)" stroke-width="0.8"/><line x1="0" y1="40" x2="1200" y2="40" stroke="rgba(224,82,76,0.34)" stroke-width="1.4"/><line x1="0" y1="48" x2="1200" y2="48" stroke="rgba(224,82,76,0.16)" stroke-width="0.8"/><line x1="0" y1="56" x2="1200" y2="56" stroke="rgba(224,82,76,0.16)" stroke-width="0.8"/><line x1="0" y1="64" x2="1200" y2="64" stroke="rgba(224,82,76,0.16)" stroke-width="0.8"/><line x1="0" y1="72" x2="1200" y2="72" stroke="rgba(224,82,76,0.16)" stroke-width="0.8"/><line x1="0" y1="80" x2="1200" y2="80" stroke="rgba(224,82,76,0.34)" stroke-width="1.4"/><line x1="0" y1="88" x2="1200" y2="88" stroke="rgba(224,82,76,0.16)" stroke-width="0.8"/><line x1="0" y1="96" x2="1200" y2="96" stroke="rgba(224,82,76,0.16)" stroke-width="0.8"/><line x1="0" y1="104" x2="1200" y2="104" stroke="rgba(224,82,76,0.16)" stroke-width="0.8"/><line x1="0" y1="112" x2="1200" y2="112" stroke="rgba(224,82,76,0.16)" stroke-width="0.8"/><line x1="0" y1="120" x2="1200" y2="120" stroke="rgba(224,82,76,0.34)" stroke-width="1.4"/><line x1="0" y1="128" x2="1200" y2="128" stroke="rgba(224,82,76,0.16)" stroke-width="0.8"/><line x1="0" y1="136" x2="1200" y2="136" stroke="rgba(224,82,76,0.16)" stroke-width="0.8"/><line x1="0" y1="144" x2="1200" y2="144" stroke="rgba(224,82,76,0.16)" stroke-width="0.8"/><line x1="0" y1="152" x2="1200" y2="152" stroke="rgba(224,82,76,0.16)" stroke-width="0.8"/><line x1="0" y1="160" x2="1200" y2="160" stroke="rgba(224,82,76,0.34)" stroke-width="1.4"/><line x1="0" y1="168" x2="1200" y2="168" stroke="rgba(224,82,76,0.16)" stroke-width="0.8"/><line x1="0" y1="176" x2="1200" y2="176" stroke="rgba(224,82,76,0.16)" stroke-width="0.8"/><line x1="0" y1="184" x2="1200" y2="184" stroke="rgba(224,82,76,0.16)" stroke-width="0.8"/><line x1="0" y1="192" x2="1200" y2="192" stroke="rgba(224,82,76,0.16)" stroke-width="0.8"/><line x1="0" y1="200" x2="1200" y2="200" stroke="rgba(224,82,76,0.34)" stroke-width="1.4"/><line x1="0" y1="208" x2="1200" y2="208" stroke="rgba(224,82,76,0.16)" stroke-width="0.8"/><line x1="0" y1="216" x2="1200" y2="216" stroke="rgba(224,82,76,0.16)" stroke-width="0.8"/><line x1="0" y1="224" x2="1200" y2="224" stroke="rgba(224,82,76,0.16)" stroke-width="0.8"/><line x1="0" y1="232" x2="1200" y2="232" stroke="rgba(224,82,76,0.16)" stroke-width="0.8"/><line x1="0" y1="240" x2="1200" y2="240" stroke="rgba(224,82,76,0.34)" stroke-width="1.4"/><line x1="0" y1="248" x2="1200" y2="248" stroke="rgba(224,82,76,0.16)" stroke-width="0.8"/><line x1="0" y1="256" x2="1200" y2="256" stroke="rgba(224,82,76,0.16)" stroke-width="0.8"/><path d="M 6 160 L 14 160 L 14 80 L 54 80 L 54 160" fill="none" stroke="#EEF1EE" stroke-width="2.6" stroke-linejoin="round"/><polyline points="0.0,160.0 0.8,160.0 1.6,160.0 2.4,160.0 3.2,160.0 4.0,160.0 4.8,160.0 5.6,160.0 6.4,160.0 7.2,160.0 8.0,160.0 8.8,160.0 9.6,160.0 10.4,160.0 11.2,160.0 12.0,160.0 12.8,160.0 13.6,160.0 14.4,160.0 15.2,160.0 16.0,160.0 16.8,160.0 17.6,160.0 18.4,160.0 19.2,160.0 20.0,160.0 20.8,160.0 21.6,160.0 22.4,160.0 23.2,160.0 24.0,160.0 24.8,160.0 25.6,160.0 26.4,160.0 27.2,160.0 28.0,159.9 28.8,159.9 29.6,159.9 30.4,159.8 31.2,159.8 32.0,159.7 32.8,159.6 33.6,159.5 34.4,159.4 35.2,159.2 36.0,159.0 36.8,158.7 37.6,158.4 38.4,158.1 39.2,157.6 40.0,157.2 40.8,156.6 41.6,156.1 42.4,155.4 43.2,154.7 44.0,154.0 44.8,153.3 45.6,152.5 46.4,151.7 47.2,151.0 48.0,150.3 48.8,149.7 49.6,149.1 50.4,148.7 51.2,148.3 52.0,148.1 52.8,148.0 53.6,148.0 54.4,148.2 55.2,148.5 56.0,148.9 56.8,149.4 57.6,150.0 58.4,150.7 59.2,151.4 60.0,152.1 60.8,152.9 61.6,153.6 62.4,154.4 63.2,155.1 64.0,155.7 64.8,156.4 65.6,156.9 66.4,157.4 67.2,157.9 68.0,158.3 68.8,158.6 69.6,158.9 70.4,159.1 71.2,159.3 72.0,159.5 72.8,159.6 73.6,159.8 74.4,160.0 75.2,160.5 76.0,161.2 76.8,161.8 77.6,161.5 78.4,158.9 79.2,152.0 80.0,139.5 80.8,121.6 81.6,100.6 82.4,81.7 83.2,70.6 84.0,71.2 84.8,83.5 85.6,103.7 86.4,125.8 87.2,145.0 88.0,158.8 88.8,166.8 89.6,170.3 90.4,170.6 91.2,169.1 92.0,166.8 92.8,164.6 93.6,162.7 94.4,161.4 95.2,160.6 96.0,160.1 96.8,159.8 97.6,159.6 98.4,159.5 99.2,159.4 100.0,159.3 100.8,159.2 101.6,159.1 102.4,158.9 103.2,158.8 104.0,158.6 104.8,158.4 105.6,158.2 106.4,157.9 107.2,157.6 108.0,157.3 108.8,157.0 109.6,156.6 110.4,156.2 111.2,155.8 112.0,155.3 112.8,154.8 113.6,154.2 114.4,153.7 115.2,153.1 116.0,152.4 116.8,151.7 117.6,151.0 118.4,150.3 119.2,149.6 120.0,148.8 120.8,148.0 121.6,147.2 122.4,146.4 123.2,145.6 124.0,144.8 124.8,144.0 125.6,143.2 126.4,142.4 127.2,141.6 128.0,140.9 128.8,140.2 129.6,139.5 130.4,138.8 131.2,138.2 132.0,137.5 132.8,136.9 133.6,136.4 134.4,135.8 135.2,135.3 136.0,134.8 136.8,134.3 137.6,133.8 138.4,133.4 139.2,132.9 140.0,132.6 140.8,132.2 141.6,131.9 142.4,131.7 143.2,131.5 144.0,131.5 144.8,131.5 145.6,131.7 146.4,132.0 147.2,132.4 148.0,132.9 148.8,133.6 149.6,134.5 150.4,135.4 151.2,136.5 152.0,137.7 152.8,139.0 153.6,140.3 154.4,141.7 155.2,143.1 156.0,144.5 156.8,145.9 157.6,147.3 158.4,148.6 159.2,149.9 160.0,151.0 160.8,152.1 161.6,153.1 162.4,154.0 163.2,154.8 164.0,155.6 164.8,156.2 165.6,156.8 166.4,157.3 167.2,157.7 168.0,158.1 168.8,158.4 169.6,158.7 170.4,159.1 171.2,159.7 172.0,160.5 172.8,161.2 173.6,161.1 174.4,158.5 175.2,151.7 176.0,139.2 176.8,121.3 177.6,100.4 178.4,81.6 179.2,70.4 180.0,71.1 180.8,83.4 181.6,103.6 182.4,125.7 183.2,145.0 184.0,158.7 184.8,166.8 185.6,170.3 186.4,170.6 187.2,169.1 188.0,166.8 188.8,164.6 189.6,162.7 190.4,161.4 191.2,160.6 192.0,160.1 192.8,159.8 193.6,159.6 194.4,159.5 195.2,159.4 196.0,159.3 196.8,159.2 197.6,159.1 198.4,158.9 199.2,158.8 200.0,158.6 200.8,158.4 201.6,158.2 202.4,157.9 203.2,157.6 204.0,157.3 204.8,157.0 205.6,156.6 206.4,156.2 207.2,155.8 208.0,155.3 208.8,154.8 209.6,154.2 210.4,153.7 211.2,153.1 212.0,152.4 212.8,151.7 213.6,151.0 214.4,150.3 215.2,149.6 216.0,148.8 216.8,148.0 217.6,147.2 218.4,146.4 219.2,145.6 220.0,144.8 220.8,144.0 221.6,143.2 222.4,142.4 223.2,141.6 224.0,140.9 224.8,140.2 225.6,139.5 226.4,138.8 227.2,138.2 228.0,137.5 228.8,136.9 229.6,136.4 230.4,135.8 231.2,135.3 232.0,134.8 232.8,134.3 233.6,133.8 234.4,133.4 235.2,132.9 236.0,132.6 236.8,132.2 237.6,131.9 238.4,131.7 239.2,131.5 240.0,131.5 240.8,131.5 241.6,131.7 242.4,132.0 243.2,132.4 244.0,132.9 244.8,133.6 245.6,134.5 246.4,135.4 247.2,136.5 248.0,137.7 248.8,139.0 249.6,140.3 250.4,141.7 251.2,143.1 252.0,144.5 252.8,145.9 253.6,147.3 254.4,148.6 255.2,149.9 256.0,151.0 256.8,152.1 257.6,153.1 258.4,154.0 259.2,154.8 260.0,155.6 260.8,156.2 261.6,156.8 262.4,157.3 263.2,157.7 264.0,158.1 264.8,158.4 265.6,158.7 266.4,159.1 267.2,159.7 268.0,160.5 268.8,161.2 269.6,161.1 270.4,158.5 271.2,151.7 272.0,139.2 272.8,121.3 273.6,100.4 274.4,81.6 275.2,70.4 276.0,71.1 276.8,83.4 277.6,103.6 278.4,125.7 279.2,145.0 280.0,158.7 280.8,166.8 281.6,170.3 282.4,170.6 283.2,169.1 284.0,166.8 284.8,164.6 285.6,162.7 286.4,161.4 287.2,160.6 288.0,160.1 288.8,159.8 289.6,159.6 290.4,159.5 291.2,159.4 292.0,159.3 292.8,159.2 293.6,159.1 294.4,158.9 295.2,158.8 296.0,158.6 296.8,158.4 297.6,158.2 298.4,157.9 299.2,157.6 300.0,157.3 300.8,157.0 301.6,156.6 302.4,156.2 303.2,155.8 304.0,155.3 304.8,154.8 305.6,154.2 306.4,153.7 307.2,153.1 308.0,152.4 308.8,151.7 309.6,151.0 310.4,150.3 311.2,149.6 312.0,148.8 312.8,148.0 313.6,147.2 314.4,146.4 315.2,145.6 316.0,144.8 316.8,144.0 317.6,143.2 318.4,142.4 319.2,141.6 320.0,140.9 320.8,140.2 321.6,139.5 322.4,138.8 323.2,138.2 324.0,137.5 324.8,136.9 325.6,136.4 326.4,135.8 327.2,135.3 328.0,134.8 328.8,134.3 329.6,133.8 330.4,133.4 331.2,132.9 332.0,132.6 332.8,132.2 333.6,131.9 334.4,131.7 335.2,131.5 336.0,131.5 336.8,131.5 337.6,131.7 338.4,132.0 339.2,132.4 340.0,132.9 340.8,133.6 341.6,134.5 342.4,135.4 343.2,136.5 344.0,137.7 344.8,139.0 345.6,140.3 346.4,141.7 347.2,143.1 348.0,144.5 348.8,145.9 349.6,147.3 350.4,148.6 351.2,149.9 352.0,151.0 352.8,152.1 353.6,153.1 354.4,154.0 355.2,154.8 356.0,155.6 356.8,156.2 357.6,156.8 358.4,157.3 359.2,157.7 360.0,158.1 360.8,158.4 361.6,158.7 362.4,159.1 363.2,159.7 364.0,160.5 364.8,161.2 365.6,161.1 366.4,158.5 367.2,151.7 368.0,139.2 368.8,121.3 369.6,100.4 370.4,81.6 371.2,70.4 372.0,71.1 372.8,83.4 373.6,103.6 374.4,125.7 375.2,145.0 376.0,158.7 376.8,166.8 377.6,170.3 378.4,170.6 379.2,169.1 380.0,166.8 380.8,164.6 381.6,162.7 382.4,161.4 383.2,160.6 384.0,160.1 384.8,159.8 385.6,159.6 386.4,159.5 387.2,159.4 388.0,159.3 388.8,159.2 389.6,159.1 390.4,158.9 391.2,158.8 392.0,158.6 392.8,158.4 393.6,158.2 394.4,157.9 395.2,157.6 396.0,157.3 396.8,157.0 397.6,156.6 398.4,156.2 399.2,155.8 400.0,155.3 400.8,154.8 401.6,154.2 402.4,153.7 403.2,153.1 404.0,152.4 404.8,151.7 405.6,151.0 406.4,150.3 407.2,149.6 408.0,148.8 408.8,148.0 409.6,147.2 410.4,146.4 411.2,145.6 412.0,144.8 412.8,144.0 413.6,143.2 414.4,142.4 415.2,141.6 416.0,140.9 416.8,140.2 417.6,139.5 418.4,138.8 419.2,138.2 420.0,137.5 420.8,136.9 421.6,136.4 422.4,135.8 423.2,135.3 424.0,134.8 424.8,134.3 425.6,133.8 426.4,133.4 427.2,132.9 428.0,132.6 428.8,132.2 429.6,131.9 430.4,131.7 431.2,131.5 432.0,131.5 432.8,131.5 433.6,131.7 434.4,132.0 435.2,132.4 436.0,132.9 436.8,133.6 437.6,134.5 438.4,135.4 439.2,136.5 440.0,137.7 440.8,139.0 441.6,140.3 442.4,141.7 443.2,143.1 444.0,144.5 444.8,145.9 445.6,147.3 446.4,148.6 447.2,149.9 448.0,151.0 448.8,152.1 449.6,153.1 450.4,154.0 451.2,154.8 452.0,155.6 452.8,156.2 453.6,156.8 454.4,157.3 455.2,157.7 456.0,158.1 456.8,158.4 457.6,158.7 458.4,159.1 459.2,159.7 460.0,160.5 460.8,161.2 461.6,161.1 462.4,158.5 463.2,151.7 464.0,139.2 464.8,121.3 465.6,100.4 466.4,81.6 467.2,70.4 468.0,71.1 468.8,83.4 469.6,103.6 470.4,125.7 471.2,145.0 472.0,158.7 472.8,166.8 473.6,170.3 474.4,170.6 475.2,169.1 476.0,166.8 476.8,164.6 477.6,162.7 478.4,161.4 479.2,160.6 480.0,160.1 480.8,159.8 481.6,159.6 482.4,159.5 483.2,159.4 484.0,159.3 484.8,159.2 485.6,159.1 486.4,158.9 487.2,158.8 488.0,158.6 488.8,158.4 489.6,158.2 490.4,157.9 491.2,157.6 492.0,157.3 492.8,157.0 493.6,156.6 494.4,156.2 495.2,155.8 496.0,155.3 496.8,154.8 497.6,154.2 498.4,153.7 499.2,153.1 500.0,152.4 500.8,151.7 501.6,151.0 502.4,150.3 503.2,149.6 504.0,148.8 504.8,148.0 505.6,147.2 506.4,146.4 507.2,145.6 508.0,144.8 508.8,144.0 509.6,143.2 510.4,142.4 511.2,141.6 512.0,140.9 512.8,140.2 513.6,139.5 514.4,138.8 515.2,138.2 516.0,137.5 516.8,136.9 517.6,136.4 518.4,135.8 519.2,135.3 520.0,134.8 520.8,134.3 521.6,133.8 522.4,133.4 523.2,132.9 524.0,132.6 524.8,132.2 525.6,131.9 526.4,131.7 527.2,131.5 528.0,131.5 528.8,131.5 529.6,131.7 530.4,132.0 531.2,132.4 532.0,132.9 532.8,133.6 533.6,134.5 534.4,135.4 535.2,136.5 536.0,137.7 536.8,139.0 537.6,140.3 538.4,141.7 539.2,143.1 540.0,144.5 540.8,145.9 541.6,147.3 542.4,148.6 543.2,149.9 544.0,151.0 544.8,152.1 545.6,153.1 546.4,154.0 547.2,154.8 548.0,155.6 548.8,156.2 549.6,156.8 550.4,157.3 551.2,157.7 552.0,158.1 552.8,158.4 553.6,158.7 554.4,159.1 555.2,159.7 556.0,160.5 556.8,161.2 557.6,161.1 558.4,158.5 559.2,151.7 560.0,139.2 560.8,121.3 561.6,100.4 562.4,81.6 563.2,70.4 564.0,71.1 564.8,83.4 565.6,103.6 566.4,125.7 567.2,145.0 568.0,158.7 568.8,166.8 569.6,170.3 570.4,170.6 571.2,169.1 572.0,166.8 572.8,164.6 573.6,162.7 574.4,161.4 575.2,160.6 576.0,160.1 576.8,159.8 577.6,159.6 578.4,159.5 579.2,159.4 580.0,159.3 580.8,159.2 581.6,159.1 582.4,158.9 583.2,158.8 584.0,158.6 584.8,158.4 585.6,158.2 586.4,157.9 587.2,157.6 588.0,157.3 588.8,157.0 589.6,156.6 590.4,156.2 591.2,155.8 592.0,155.3 592.8,154.8 593.6,154.2 594.4,153.7 595.2,153.1 596.0,152.4 596.8,151.7 597.6,151.0 598.4,150.3 599.2,149.6 600.0,148.8 600.8,148.0 601.6,147.2 602.4,146.4 603.2,145.6 604.0,144.8 604.8,144.0 605.6,143.2 606.4,142.4 607.2,141.6 608.0,140.9 608.8,140.2 609.6,139.5 610.4,138.8 611.2,138.2 612.0,137.5 612.8,136.9 613.6,136.4 614.4,135.8 615.2,135.3 616.0,134.8 616.8,134.3 617.6,133.8 618.4,133.4 619.2,132.9 620.0,132.6 620.8,132.2 621.6,131.9 622.4,131.7 623.2,131.5 624.0,131.5 624.8,131.5 625.6,131.7 626.4,132.0 627.2,132.4 628.0,132.9 628.8,133.6 629.6,134.5 630.4,135.4 631.2,136.5 632.0,137.7 632.8,139.0 633.6,140.3 634.4,141.7 635.2,143.1 636.0,144.5 636.8,145.9 637.6,147.3 638.4,148.6 639.2,149.9 640.0,151.0 640.8,152.1 641.6,153.1 642.4,154.0 643.2,154.8 644.0,155.6 644.8,156.2 645.6,156.8 646.4,157.3 647.2,157.7 648.0,158.1 648.8,158.4 649.6,158.7 650.4,159.1 651.2,159.7 652.0,160.5 652.8,161.2 653.6,161.1 654.4,158.5 655.2,151.7 656.0,139.2 656.8,121.3 657.6,100.4 658.4,81.6 659.2,70.4 660.0,71.1 660.8,83.4 661.6,103.6 662.4,125.7 663.2,145.0 664.0,158.7 664.8,166.8 665.6,170.3 666.4,170.6 667.2,169.1 668.0,166.8 668.8,164.6 669.6,162.7 670.4,161.4 671.2,160.6 672.0,160.1 672.8,159.8 673.6,159.6 674.4,159.5 675.2,159.4 676.0,159.3 676.8,159.2 677.6,159.1 678.4,158.9 679.2,158.8 680.0,158.6 680.8,158.4 681.6,158.2 682.4,157.9 683.2,157.6 684.0,157.3 684.8,157.0 685.6,156.6 686.4,156.2 687.2,155.8 688.0,155.3 688.8,154.8 689.6,154.2 690.4,153.7 691.2,153.1 692.0,152.4 692.8,151.7 693.6,151.0 694.4,150.3 695.2,149.6 696.0,148.8 696.8,148.0 697.6,147.2 698.4,146.4 699.2,145.6 700.0,144.8 700.8,144.0 701.6,143.2 702.4,142.4 703.2,141.6 704.0,140.9 704.8,140.2 705.6,139.5 706.4,138.8 707.2,138.2 708.0,137.5 708.8,136.9 709.6,136.4 710.4,135.8 711.2,135.3 712.0,134.8 712.8,134.3 713.6,133.8 714.4,133.4 715.2,132.9 716.0,132.6 716.8,132.2 717.6,131.9 718.4,131.7 719.2,131.5 720.0,131.5 720.8,131.5 721.6,131.7 722.4,132.0 723.2,132.4 724.0,132.9 724.8,133.6 725.6,134.5 726.4,135.4 727.2,136.5 728.0,137.7 728.8,139.0 729.6,140.3 730.4,141.7 731.2,143.1 732.0,144.5 732.8,145.9 733.6,147.3 734.4,148.6 735.2,149.9 736.0,151.0 736.8,152.1 737.6,153.1 738.4,154.0 739.2,154.8 740.0,155.6 740.8,156.2 741.6,156.8 742.4,157.3 743.2,157.7 744.0,158.1 744.8,158.4 745.6,158.7 746.4,159.1 747.2,159.7 748.0,160.5 748.8,161.2 749.6,161.1 750.4,158.5 751.2,151.7 752.0,139.2 752.8,121.3 753.6,100.4 754.4,81.6 755.2,70.4 756.0,71.1 756.8,83.4 757.6,103.6 758.4,125.7 759.2,145.0 760.0,158.7 760.8,166.8 761.6,170.3 762.4,170.6 763.2,169.1 764.0,166.8 764.8,164.6 765.6,162.7 766.4,161.4 767.2,160.6 768.0,160.1 768.8,159.8 769.6,159.6 770.4,159.5 771.2,159.4 772.0,159.3 772.8,159.2 773.6,159.1 774.4,158.9 775.2,158.8 776.0,158.6 776.8,158.4 777.6,158.2 778.4,157.9 779.2,157.6 780.0,157.3 780.8,157.0 781.6,156.6 782.4,156.2 783.2,155.8 784.0,155.3 784.8,154.8 785.6,154.2 786.4,153.7 787.2,153.1 788.0,152.4 788.8,151.7 789.6,151.0 790.4,150.3 791.2,149.6 792.0,148.8 792.8,148.0 793.6,147.2 794.4,146.4 795.2,145.6 796.0,144.8 796.8,144.0 797.6,143.2 798.4,142.4 799.2,141.6 800.0,140.9 800.8,140.2 801.6,139.5 802.4,138.8 803.2,138.2 804.0,137.5 804.8,136.9 805.6,136.4 806.4,135.8 807.2,135.3 808.0,134.8 808.8,134.3 809.6,133.8 810.4,133.4 811.2,132.9 812.0,132.6 812.8,132.2 813.6,131.9 814.4,131.7 815.2,131.5 816.0,131.5 816.8,131.5 817.6,131.7 818.4,132.0 819.2,132.4 820.0,132.9 820.8,133.6 821.6,134.5 822.4,135.4 823.2,136.5 824.0,137.7 824.8,139.0 825.6,140.3 826.4,141.7 827.2,143.1 828.0,144.5 828.8,145.9 829.6,147.3 830.4,148.6 831.2,149.9 832.0,151.0 832.8,152.1 833.6,153.1 834.4,154.0 835.2,154.8 836.0,155.6 836.8,156.2 837.6,156.8 838.4,157.3 839.2,157.7 840.0,158.1 840.8,158.4 841.6,158.7 842.4,159.1 843.2,159.7 844.0,160.5 844.8,161.2 845.6,161.1 846.4,158.5 847.2,151.7 848.0,139.2 848.8,121.3 849.6,100.4 850.4,81.6 851.2,70.4 852.0,71.1 852.8,83.4 853.6,103.6 854.4,125.7 855.2,145.0 856.0,158.7 856.8,166.8 857.6,170.3 858.4,170.6 859.2,169.1 860.0,166.8 860.8,164.6 861.6,162.7 862.4,161.4 863.2,160.6 864.0,160.1 864.8,159.8 865.6,159.6 866.4,159.5 867.2,159.4 868.0,159.3 868.8,159.2 869.6,159.1 870.4,158.9 871.2,158.8 872.0,158.6 872.8,158.4 873.6,158.2 874.4,157.9 875.2,157.6 876.0,157.3 876.8,157.0 877.6,156.6 878.4,156.2 879.2,155.8 880.0,155.3 880.8,154.8 881.6,154.2 882.4,153.7 883.2,153.1 884.0,152.4 884.8,151.7 885.6,151.0 886.4,150.3 887.2,149.6 888.0,148.8 888.8,148.0 889.6,147.2 890.4,146.4 891.2,145.6 892.0,144.8 892.8,144.0 893.6,143.2 894.4,142.4 895.2,141.6 896.0,140.9 896.8,140.2 897.6,139.5 898.4,138.8 899.2,138.2 900.0,137.5 900.8,136.9 901.6,136.4 902.4,135.8 903.2,135.3 904.0,134.8 904.8,134.3 905.6,133.8 906.4,133.4 907.2,132.9 908.0,132.6 908.8,132.2 909.6,131.9 910.4,131.7 911.2,131.5 912.0,131.5 912.8,131.5 913.6,131.7 914.4,132.0 915.2,132.4 916.0,132.9 916.8,133.6 917.6,134.5 918.4,135.4 919.2,136.5 920.0,137.7 920.8,139.0 921.6,140.3 922.4,141.7 923.2,143.1 924.0,144.5 924.8,145.9 925.6,147.3 926.4,148.6 927.2,149.9 928.0,151.0 928.8,152.1 929.6,153.1 930.4,154.0 931.2,154.8 932.0,155.6 932.8,156.2 933.6,156.8 934.4,157.3 935.2,157.7 936.0,158.1 936.8,158.4 937.6,158.7 938.4,159.1 939.2,159.7 940.0,160.5 940.8,161.2 941.6,161.1 942.4,158.5 943.2,151.7 944.0,139.2 944.8,121.3 945.6,100.4 946.4,81.6 947.2,70.4 948.0,71.1 948.8,83.4 949.6,103.6 950.4,125.7 951.2,145.0 952.0,158.7 952.8,166.8 953.6,170.3 954.4,170.6 955.2,169.1 956.0,166.8 956.8,164.6 957.6,162.7 958.4,161.4 959.2,160.6 960.0,160.1 960.8,159.8 961.6,159.6 962.4,159.5 963.2,159.4 964.0,159.3 964.8,159.2 965.6,159.1 966.4,158.9 967.2,158.8 968.0,158.6 968.8,158.4 969.6,158.2 970.4,157.9 971.2,157.6 972.0,157.3 972.8,157.0 973.6,156.6 974.4,156.2 975.2,155.8 976.0,155.3 976.8,154.8 977.6,154.2 978.4,153.7 979.2,153.1 980.0,152.4 980.8,151.7 981.6,151.0 982.4,150.3 983.2,149.6 984.0,148.8 984.8,148.0 985.6,147.2 986.4,146.4 987.2,145.6 988.0,144.8 988.8,144.0 989.6,143.2 990.4,142.4 991.2,141.6 992.0,140.9 992.8,140.2 993.6,139.5 994.4,138.8 995.2,138.2 996.0,137.5 996.8,136.9 997.6,136.4 998.4,135.8 999.2,135.3 1000.0,134.8 1000.8,134.3 1001.6,133.8 1002.4,133.4 1003.2,132.9 1004.0,132.6 1004.8,132.2 1005.6,131.9 1006.4,131.7 1007.2,131.5 1008.0,131.5 1008.8,131.5 1009.6,131.7 1010.4,132.0 1011.2,132.4 1012.0,132.9 1012.8,133.6 1013.6,134.5 1014.4,135.4 1015.2,136.5 1016.0,137.7 1016.8,139.0 1017.6,140.3 1018.4,141.7 1019.2,143.1 1020.0,144.5 1020.8,145.9 1021.6,147.3 1022.4,148.6 1023.2,149.9 1024.0,151.0 1024.8,152.1 1025.6,153.1 1026.4,154.0 1027.2,154.8 1028.0,155.6 1028.8,156.2 1029.6,156.8 1030.4,157.3 1031.2,157.7 1032.0,158.1 1032.8,158.4 1033.6,158.7 1034.4,159.1 1035.2,159.7 1036.0,160.5 1036.8,161.2 1037.6,161.1 1038.4,158.5 1039.2,151.7 1040.0,139.2 1040.8,121.3 1041.6,100.4 1042.4,81.6 1043.2,70.4 1044.0,71.1 1044.8,83.4 1045.6,103.6 1046.4,125.7 1047.2,145.0 1048.0,158.7 1048.8,166.8 1049.6,170.3 1050.4,170.6 1051.2,169.1 1052.0,166.8 1052.8,164.6 1053.6,162.7 1054.4,161.4 1055.2,160.6 1056.0,160.1 1056.8,159.8 1057.6,159.6 1058.4,159.5 1059.2,159.4 1060.0,159.3 1060.8,159.2 1061.6,159.1 1062.4,158.9 1063.2,158.8 1064.0,158.6 1064.8,158.4 1065.6,158.2 1066.4,157.9 1067.2,157.6 1068.0,157.3 1068.8,157.0 1069.6,156.6 1070.4,156.2 1071.2,155.8 1072.0,155.3 1072.8,154.8 1073.6,154.2 1074.4,153.7 1075.2,153.1 1076.0,152.4 1076.8,151.7 1077.6,151.0 1078.4,150.3 1079.2,149.6 1080.0,148.8 1080.8,148.0 1081.6,147.2 1082.4,146.4 1083.2,145.6 1084.0,144.8 1084.8,144.0 1085.6,143.2 1086.4,142.4 1087.2,141.6 1088.0,140.9 1088.8,140.2 1089.6,139.5 1090.4,138.8 1091.2,138.2 1092.0,137.5 1092.8,136.9 1093.6,136.4 1094.4,135.8 1095.2,135.3 1096.0,134.8 1096.8,134.3 1097.6,133.8 1098.4,133.4 1099.2,132.9 1100.0,132.6 1100.8,132.2 1101.6,131.9 1102.4,131.7 1103.2,131.5 1104.0,131.5 1104.8,131.5 1105.6,131.7 1106.4,132.0 1107.2,132.4 1108.0,132.9 1108.8,133.6 1109.6,134.5 1110.4,135.4 1111.2,136.5 1112.0,137.7 1112.8,139.0 1113.6,140.3 1114.4,141.7 1115.2,143.1 1116.0,144.5 1116.8,145.9 1117.6,147.3 1118.4,148.6 1119.2,149.9 1120.0,151.0 1120.8,152.1 1121.6,153.1 1122.4,154.0 1123.2,154.8 1124.0,155.6 1124.8,156.2 1125.6,156.8 1126.4,157.3 1127.2,157.7 1128.0,158.1 1128.8,158.4 1129.6,158.7 1130.4,159.1 1131.2,159.7 1132.0,160.5 1132.8,161.2 1133.6,161.1 1134.4,158.5 1135.2,151.7 1136.0,139.2 1136.8,121.3 1137.6,100.4 1138.4,81.6 1139.2,70.4 1140.0,71.1 1140.8,83.4 1141.6,103.6 1142.4,125.7 1143.2,145.0 1144.0,158.7 1144.8,166.8 1145.6,170.3 1146.4,170.6 1147.2,169.1 1148.0,166.8 1148.8,164.6 1149.6,162.7 1150.4,161.4 1151.2,160.6 1152.0,160.1 1152.8,159.8 1153.6,159.6 1154.4,159.5 1155.2,159.4 1156.0,159.3 1156.8,159.2 1157.6,159.1 1158.4,158.9 1159.2,158.8 1160.0,158.6 1160.8,158.4 1161.6,158.2 1162.4,157.9 1163.2,157.6 1164.0,157.3 1164.8,157.0 1165.6,156.6 1166.4,156.2 1167.2,155.8 1168.0,155.3 1168.8,154.8 1169.6,154.2 1170.4,153.7 1171.2,153.1 1172.0,152.4 1172.8,151.7 1173.6,151.0 1174.4,150.3 1175.2,149.6 1176.0,148.8 1176.8,148.0 1177.6,147.2 1178.4,146.4 1179.2,145.6 1180.0,144.8 1180.8,144.0 1181.6,143.2 1182.4,142.4 1183.2,141.6 1184.0,140.9 1184.8,140.2 1185.6,139.5 1186.4,138.8 1187.2,138.2 1188.0,137.5 1188.8,136.9 1189.6,136.4 1190.4,135.8 1191.2,135.3 1192.0,134.8 1192.8,134.3 1193.6,133.8 1194.4,133.4 1195.2,132.9 1196.0,132.6 1196.8,132.2 1197.6,131.9 1198.4,131.7 1199.2,131.5 1200.0,131.5" fill="none" stroke="#EEF1EE" stroke-width="2.6" stroke-linejoin="round" stroke-linecap="round"/><text x="10" y="246" fill="rgba(169,180,188,0.55)" font-family="IBM Plex Mono, ui-monospace, monospace" font-size="15">25 mm/s &#183; 10 mm/mV &#183; 6 sec</text></svg>