<svg xmlns="http://www.w3.org/2000/svg" viewBox="0 0 1200 256" width="100%" role="img" aria-label="Ventricular paced rhythm"><rect width="1200" height="256" fill="#0E1216"/><line x1="0" y1="0" x2="0" y2="256" stroke="rgba(224,82,76,0.34)" stroke-width="1.4"/><line x1="8" y1="0" x2="8" y2="256" stroke="rgba(224,82,76,0.16)" stroke-width="0.8"/><line x1="16" y1="0" x2="16" y2="256" stroke="rgba(224,82,76,0.16)" stroke-width="0.8"/><line x1="24" y1="0" x2="24" y2="256" stroke="rgba(224,82,76,0.16)" stroke-width="0.8"/><line x1="32" y1="0" x2="32" y2="256" stroke="rgba(224,82,76,0.16)" stroke-width="0.8"/><line x1="40" y1="0" x2="40" y2="256" stroke="rgba(224,82,76,0.34)" stroke-width="1.4"/><line x1="48" y1="0" x2="48" y2="256" stroke="rgba(224,82,76,0.16)" stroke-width="0.8"/><line x1="56" y1="0" x2="56" y2="256" stroke="rgba(224,82,76,0.16)" stroke-width="0.8"/><line x1="64" y1="0" x2="64" y2="256" stroke="rgba(224,82,76,0.16)" stroke-width="0.8"/><line x1="72" y1="0" x2="72" y2="256" stroke="rgba(224,82,76,0.16)" stroke-width="0.8"/><line x1="80" y1="0" x2="80" y2="256" stroke="rgba(224,82,76,0.34)" stroke-width="1.4"/><line x1="88" y1="0" x2="88" y2="256" stroke="rgba(224,82,76,0.16)" stroke-width="0.8"/><line x1="96" y1="0" x2="96" y2="256" stroke="rgba(224,82,76,0.16)" stroke-width="0.8"/><line x1="104" y1="0" x2="104" y2="256" stroke="rgba(224,82,76,0.16)" stroke-width="0.8"/><line x1="112" y1="0" x2="112" y2="256" stroke="rgba(224,82,76,0.16)" stroke-width="0.8"/><line x1="120" y1="0" x2="120" y2="256" stroke="rgba(224,82,76,0.34)" stroke-width="1.4"/><line x1="128" y1="0" x2="128" y2="256" stroke="rgba(224,82,76,0.16)" stroke-width="0.8"/><line x1="136" y1="0" x2="136" y2="256" stroke="rgba(224,82,76,0.16)" stroke-width="0.8"/><line x1="144" y1="0" x2="144" y2="256" stroke="rgba(224,82,76,0.16)" stroke-width="0.8"/><line x1="152" y1="0" x2="152" y2="256" stroke="rgba(224,82,76,0.16)" stroke-width="0.8"/><line x1="160" y1="0" x2="160" y2="256" stroke="rgba(224,82,76,0.34)" stroke-width="1.4"/><line x1="168" y1="0" x2="168" y2="256" stroke="rgba(224,82,76,0.16)" stroke-width="0.8"/><line x1="176" y1="0" x2="176" y2="256" stroke="rgba(224,82,76,0.16)" stroke-width="0.8"/><line x1="184" y1="0" x2="184" y2="256" stroke="rgba(224,82,76,0.16)" stroke-width="0.8"/><line x1="192" y1="0" x2="192" y2="256" stroke="rgba(224,82,76,0.16)" stroke-width="0.8"/><line x1="200" y1="0" x2="200" y2="256" stroke="rgba(224,82,76,0.34)" stroke-width="1.4"/><line x1="208" y1="0" x2="208" y2="256" stroke="rgba(224,82,76,0.16)" stroke-width="0.8"/><line x1="216" y1="0" x2="216" y2="256" stroke="rgba(224,82,76,0.16)" stroke-width="0.8"/><line x1="224" y1="0" x2="224" y2="256" stroke="rgba(224,82,76,0.16)" stroke-width="0.8"/><line x1="232" y1="0" x2="232" y2="256" stroke="rgba(224,82,76,0.16)" stroke-width="0.8"/><line x1="240" y1="0" x2="240" y2="256" stroke="rgba(224,82,76,0.34)" stroke-width="1.4"/><line x1="248" y1="0" x2="248" y2="256" stroke="rgba(224,82,76,0.16)" stroke-width="0.8"/><line x1="256" y1="0" x2="256" y2="256" stroke="rgba(224,82,76,0.16)" stroke-width="0.8"/><line x1="264" y1="0" x2="264" y2="256" stroke="rgba(224,82,76,0.16)" stroke-width="0.8"/><line x1="272" y1="0" x2="272" y2="256" stroke="rgba(224,82,76,0.16)" stroke-width="0.8"/><line x1="280" y1="0" x2="280" y2="256" stroke="rgba(224,82,76,0.34)" stroke-width="1.4"/><line x1="288" y1="0" x2="288" y2="256" stroke="rgba(224,82,76,0.16)" stroke-width="0.8"/><line x1="296" y1="0" x2="296" y2="256" stroke="rgba(224,82,76,0.16)" stroke-width="0.8"/><line x1="304" y1="0" x2="304" y2="256" stroke="rgba(224,82,76,0.16)" stroke-width="0.8"/><line x1="312" y1="0" x2="312" y2="256" stroke="rgba(224,82,76,0.16)" stroke-width="0.8"/><line x1="320" y1="0" x2="320" y2="256" stroke="rgba(224,82,76,0.34)" stroke-width="1.4"/><line x1="328" y1="0" x2="328" y2="256" stroke="rgba(224,82,76,0.16)" stroke-width="0.8"/><line x1="336" y1="0" x2="336" y2="256" stroke="rgba(224,82,76,0.16)" stroke-width="0.8"/><line x1="344" y1="0" x2="344" y2="256" stroke="rgba(224,82,76,0.16)" stroke-width="0.8"/><line x1="352" y1="0" x2="352" y2="256" stroke="rgba(224,82,76,0.16)" stroke-width="0.8"/><line x1="360" y1="0" x2="360" y2="256" stroke="rgba(224,82,76,0.34)" stroke-width="1.4"/><line x1="368" y1="0" x2="368" y2="256" stroke="rgba(224,82,76,0.16)" stroke-width="0.8"/><line x1="376" y1="0" x2="376" y2="256" stroke="rgba(224,82,76,0.16)" stroke-width="0.8"/><line x1="384" y1="0" x2="384" y2="256" stroke="rgba(224,82,76,0.16)" stroke-width="0.8"/><line x1="392" y1="0" x2="392" y2="256" stroke="rgba(224,82,76,0.16)" stroke-width="0.8"/><line x1="400" y1="0" x2="400" y2="256" stroke="rgba(224,82,76,0.34)" stroke-width="1.4"/><line x1="408" y1="0" x2="408" y2="256" stroke="rgba(224,82,76,0.16)" stroke-width="0.8"/><line x1="416" y1="0" x2="416" y2="256" stroke="rgba(224,82,76,0.16)" stroke-width="0.8"/><line x1="424" y1="0" x2="424" y2="256" stroke="rgba(224,82,76,0.16)" stroke-width="0.8"/><line x1="432" y1="0" x2="432" y2="256" stroke="rgba(224,82,76,0.16)" stroke-width="0.8"/><line x1="440" y1="0" x2="440" y2="256" stroke="rgba(224,82,76,0.34)" stroke-width="1.4"/><line x1="448" y1="0" x2="448" y2="256" stroke="rgba(224,82,76,0.16)" stroke-width="0.8"/><line x1="456" y1="0" x2="456" y2="256" stroke="rgba(224,82,76,0.16)" stroke-width="0.8"/><line x1="464" y1="0" x2="464" y2="256" stroke="rgba(224,82,76,0.16)" stroke-width="0.8"/><line x1="472" y1="0" x2="472" y2="256" stroke="rgba(224,82,76,0.16)" stroke-width="0.8"/><line x1="480" y1="0" x2="480" y2="256" stroke="rgba(224,82,76,0.34)" stroke-width="1.4"/><line x1="488" y1="0" x2="488" y2="256" stroke="rgba(224,82,76,0.16)" stroke-width="0.8"/><line x1="496" y1="0" x2="496" y2="256" stroke="rgba(224,82,76,0.16)" stroke-width="0.8"/><line x1="504" y1="0" x2="504" y2="256" stroke="rgba(224,82,76,0.16)" stroke-width="0.8"/><line x1="512" y1="0" x2="512" y2="256" stroke="rgba(224,82,76,0.16)" stroke-width="0.8"/><line x1="520" y1="0" x2="520" y2="256" stroke="rgba(224,82,76,0.34)" stroke-width="1.4"/><line x1="528" y1="0" x2="528" y2="256" stroke="rgba(224,82,76,0.16)" stroke-width="0.8"/><line x1="536" y1="0" x2="536" y2="256" stroke="rgba(224,82,76,0.16)" stroke-width="0.8"/><line x1="544" y1="0" x2="544" y2="256" stroke="rgba(224,82,76,0.16)" stroke-width="0.8"/><line x1="552" y1="0" x2="552" y2="256" stroke="rgba(224,82,76,0.16)" stroke-width="0.8"/><line x1="560" y1="0" x2="560" y2="256" stroke="rgba(224,82,76,0.34)" stroke-width="1.4"/><line x1="568" y1="0" x2="568" y2="256" stroke="rgba(224,82,76,0.16)" stroke-width="0.8"/><line x1="576" y1="0" x2="576" y2="256" stroke="rgba(224,82,76,0.16)" stroke-width="0.8"/><line x1="584" y1="0" x2="584" y2="256" stroke="rgba(224,82,76,0.16)" stroke-width="0.8"/><line x1="592" y1="0" x2="592" y2="256" stroke="rgba(224,82,76,0.16)" stroke-width="0.8"/><line x1="600" y1="0" x2="600" y2="256" stroke="rgba(224,82,76,0.34)" stroke-width="1.4"/><line x1="608" y1="0" x2="608" y2="256" stroke="rgba(224,82,76,0.16)" stroke-width="0.8"/><line x1="616" y1="0" x2="616" y2="256" stroke="rgba(224,82,76,0.16)" stroke-width="0.8"/><line x1="624" y1="0" x2="624" y2="256" stroke="rgba(224,82,76,0.16)" stroke-width="0.8"/><line x1="632" y1="0" x2="632" y2="256" stroke="rgba(224,82,76,0.16)" stroke-width="0.8"/><line x1="640" y1="0" x2="640" y2="256" stroke="rgba(224,82,76,0.34)" stroke-width="1.4"/><line x1="648" y1="0" x2="648" y2="256" stroke="rgba(224,82,76,0.16)" stroke-width="0.8"/><line x1="656" y1="0" x2="656" y2="256" stroke="rgba(224,82,76,0.16)" stroke-width="0.8"/><line x1="664" y1="0" x2="664" y2="256" stroke="rgba(224,82,76,0.16)" stroke-width="0.8"/><line x1="672" y1="0" x2="672" y2="256" stroke="rgba(224,82,76,0.16)" stroke-width="0.8"/><line x1="680" y1="0" x2="680" y2="256" stroke="rgba(224,82,76,0.34)" stroke-width="1.4"/><line x1="688" y1="0" x2="688" y2="256" stroke="rgba(224,82,76,0.16)" stroke-width="0.8"/><line x1="696" y1="0" x2="696" y2="256" stroke="rgba(224,82,76,0.16)" stroke-width="0.8"/><line x1="704" y1="0" x2="704" y2="256" stroke="rgba(224,82,76,0.16)" stroke-width="0.8"/><line x1="712" y1="0" x2="712" y2="256" stroke="rgba(224,82,76,0.16)" stroke-width="0.8"/><line x1="720" y1="0" x2="720" y2="256" stroke="rgba(224,82,76,0.34)" stroke-width="1.4"/><line x1="728" y1="0" x2="728" y2="256" stroke="rgba(224,82,76,0.16)" stroke-width="0.8"/><line x1="736" y1="0" x2="736" y2="256" stroke="rgba(224,82,76,0.16)" stroke-width="0.8"/><line x1="744" y1="0" x2="744" y2="256" stroke="rgba(224,82,76,0.16)" stroke-width="0.8"/><line x1="752" y1="0" x2="752" y2="256" stroke="rgba(224,82,76,0.16)" stroke-width="0.8"/><line x1="760" y1="0" x2="760" y2="256" stroke="rgba(224,82,76,0.34)" stroke-width="1.4"/><line x1="768" y1="0" x2="768" y2="256" stroke="rgba(224,82,76,0.16)" stroke-width="0.8"/><line x1="776" y1="0" x2="776" y2="256" stroke="rgba(224,82,76,0.16)" stroke-width="0.8"/><line x1="784" y1="0" x2="784" y2="256" stroke="rgba(224,82,76,0.16)" stroke-width="0.8"/><line x1="792" y1="0" x2="792" y2="256" stroke="rgba(224,82,76,0.16)" stroke-width="0.8"/><line x1="800" y1="0" x2="800" y2="256" stroke="rgba(224,82,76,0.34)" stroke-width="1.4"/><line x1="808" y1="0" x2="808" y2="256" stroke="rgba(224,82,76,0.16)" stroke-width="0.8"/><line x1="816" y1="0" x2="816" y2="256" stroke="rgba(224,82,76,0.16)" stroke-width="0.8"/><line x1="824" y1="0" x2="824" y2="256" stroke="rgba(224,82,76,0.16)" stroke-width="0.8"/><line x1="832" y1="0" x2="832" y2="256" stroke="rgba(224,82,76,0.16)" stroke-width="0.8"/><line x1="840" y1="0" x2="840" y2="256" stroke="rgba(224,82,76,0.34)" stroke-width="1.4"/><line x1="848" y1="0" x2="848" y2="256" stroke="rgba(224,82,76,0.16)" stroke-width="0.8"/><line x1="856" y1="0" x2="856" y2="256" stroke="rgba(224,82,76,0.16)" stroke-width="0.8"/><line x1="864" y1="0" x2="864" y2="256" stroke="rgba(224,82,76,0.16)" stroke-width="0.8"/><line x1="872" y1="0" x2="872" y2="256" stroke="rgba(224,82,76,0.16)" stroke-width="0.8"/><line x1="880" y1="0" x2="880" y2="256" stroke="rgba(224,82,76,0.34)" stroke-width="1.4"/><line x1="888" y1="0" x2="888" y2="256" stroke="rgba(224,82,76,0.16)" stroke-width="0.8"/><line x1="896" y1="0" x2="896" y2="256" stroke="rgba(224,82,76,0.16)" stroke-width="0.8"/><line x1="904" y1="0" x2="904" y2="256" stroke="rgba(224,82,76,0.16)" stroke-width="0.8"/><line x1="912" y1="0" x2="912" y2="256" stroke="rgba(224,82,76,0.16)" stroke-width="0.8"/><line x1="920" y1="0" x2="920" y2="256" stroke="rgba(224,82,76,0.34)" stroke-width="1.4"/><line x1="928" y1="0" x2="928" y2="256" stroke="rgba(224,82,76,0.16)" stroke-width="0.8"/><line x1="936" y1="0" x2="936" y2="256" stroke="rgba(224,82,76,0.16)" stroke-width="0.8"/><line x1="944" y1="0" x2="944" y2="256" stroke="rgba(224,82,76,0.16)" stroke-width="0.8"/><line x1="952" y1="0" x2="952" y2="256" stroke="rgba(224,82,76,0.16)" stroke-width="0.8"/><line x1="960" y1="0" x2="960" y2="256" stroke="rgba(224,82,76,0.34)" stroke-width="1.4"/><line x1="968" y1="0" x2="968" y2="256" stroke="rgba(224,82,76,0.16)" stroke-width="0.8"/><line x1="976" y1="0" x2="976" y2="256" stroke="rgba(224,82,76,0.16)" stroke-width="0.8"/><line x1="984" y1="0" x2="984" y2="256" stroke="rgba(224,82,76,0.16)" stroke-width="0.8"/><line x1="992" y1="0" x2="992" y2="256" stroke="rgba(224,82,76,0.16)" stroke-width="0.8"/><line x1="1000" y1="0" x2="1000" y2="256" stroke="rgba(224,82,76,0.34)" stroke-width="1.4"/><line x1="1008" y1="0" x2="1008" y2="256" stroke="rgba(224,82,76,0.16)" stroke-width="0.8"/><line x1="1016" y1="0" x2="1016" y2="256" stroke="rgba(224,82,76,0.16)" stroke-width="0.8"/><line x1="1024" y1="0" x2="1024" y2="256" stroke="rgba(224,82,76,0.16)" stroke-width="0.8"/><line x1="1032" y1="0" x2="1032" y2="256" stroke="rgba(224,82,76,0.16)" stroke-width="0.8"/><line x1="1040" y1="0" x2="1040" y2="256" stroke="rgba(224,82,76,0.34)" stroke-width="1.4"/><line x1="1048" y1="0" x2="1048" y2="256" stroke="rgba(224,82,76,0.16)" stroke-width="0.8"/><line x1="1056" y1="0" x2="1056" y2="256" stroke="rgba(224,82,76,0.16)" stroke-width="0.8"/><line x1="1064" y1="0" x2="1064" y2="256" stroke="rgba(224,82,76,0.16)" stroke-width="0.8"/><line x1="1072" y1="0" x2="1072" y2="256" stroke="rgba(224,82,76,0.16)" stroke-width="0.8"/><line x1="1080" y1="0" x2="1080" y2="256" stroke="rgba(224,82,76,0.34)" stroke-width="1.4"/><line x1="1088" y1="0" x2="1088" y2="256" stroke="rgba(224,82,76,0.16)" stroke-width="0.8"/><line x1="1096" y1="0" x2="1096" y2="256" stroke="rgba(224,82,76,0.16)" stroke-width="0.8"/><line x1="1104" y1="0" x2="1104" y2="256" stroke="rgba(224,82,76,0.16)" stroke-width="0.8"/><line x1="1112" y1="0" x2="1112" y2="256" stroke="rgba(224,82,76,0.16)" stroke-width="0.8"/><line x1="1120" y1="0" x2="1120" y2="256" stroke="rgba(224,82,76,0.34)" stroke-width="1.4"/><line x1="1128" y1="0" x2="1128" y2="256" stroke="rgba(224,82,76,0.16)" stroke-width="0.8"/><line x1="1136" y1="0" x2="1136" y2="256" stroke="rgba(224,82,76,0.16)" stroke-width="0.8"/><line x1="1144" y1="0" x2="1144" y2="256" stroke="rgba(224,82,76,0.16)" stroke-width="0.8"/><line x1="1152" y1="0" x2="1152" y2="256" stroke="rgba(224,82,76,0.16)" stroke-width="0.8"/><line x1="1160" y1="0" x2="1160" y2="256" stroke="rgba(224,82,76,0.34)" stroke-width="1.4"/><line x1="1168" y1="0" x2="1168" y2="256" stroke="rgba(224,82,76,0.16)" stroke-width="0.8"/><line x1="1176" y1="0" x2="1176" y2="256" stroke="rgba(224,82,76,0.16)" stroke-width="0.8"/><line x1="1184" y1="0" x2="1184" y2="256" stroke="rgba(224,82,76,0.16)" stroke-width="0.8"/><line x1="1192" y1="0" x2="1192" y2="256" stroke="rgba(224,82,76,0.16)" stroke-width="0.8"/><line x1="1200" y1="0" x2="1200" y2="256" stroke="rgba(224,82,76,0.34)" stroke-width="1.4"/><line x1="0" y1="0" x2="1200" y2="0" stroke="rgba(224,82,76,0.34)" stroke-width="1.4"/><line x1="0" y1="8" x2="1200" y2="8" stroke="rgba(224,82,76,0.16)" stroke-width="0.8"/><line x1="0" y1="16" x2="1200" y2="16" stroke="rgba(224,82,76,0.16)" stroke-width="0.8"/><line x1="0" y1="24" x2="1200" y2="24" stroke="rgba(224,82,76,0.16)" stroke-width="0.8"/><line x1="0" y1="32" x2="1200" y2="32" stroke="rgba(224,82,76,0.16)" stroke-width="0.8"/><line x1="0" y1="40" x2="1200" y2="40" stroke="rgba(224,82,76,0.34)" stroke-width="1.4"/><line x1="0" y1="48" x2="1200" y2="48" stroke="rgba(224,82,76,0.16)" stroke-width="0.8"/><line x1="0" y1="56" x2="1200" y2="56" stroke="rgba(224,82,76,0.16)" stroke-width="0.8"/><line x1="0" y1="64" x2="1200" y2="64" stroke="rgba(224,82,76,0.16)" stroke-width="0.8"/><line x1="0" y1="72" x2="1200" y2="72" stroke="rgba(224,82,76,0.16)" stroke-width="0.8"/><line x1="0" y1="80" x2="1200" y2="80" stroke="rgba(224,82,76,0.34)" stroke-width="1.4"/><line x1="0" y1="88" x2="1200" y2="88" stroke="rgba(224,82,76,0.16)" stroke-width="0.8"/><line x1="0" y1="96" x2="1200" y2="96" stroke="rgba(224,82,76,0.16)" stroke-width="0.8"/><line x1="0" y1="104" x2="1200" y2="104" stroke="rgba(224,82,76,0.16)" stroke-width="0.8"/><line x1="0" y1="112" x2="1200" y2="112" stroke="rgba(224,82,76,0.16)" stroke-width="0.8"/><line x1="0" y1="120" x2="1200" y2="120" stroke="rgba(224,82,76,0.34)" stroke-width="1.4"/><line x1="0" y1="128" x2="1200" y2="128" stroke="rgba(224,82,76,0.16)" stroke-width="0.8"/><line x1="0" y1="136" x2="1200" y2="136" stroke="rgba(224,82,76,0.16)" stroke-width="0.8"/><line x1="0" y1="144" x2="1200" y2="144" stroke="rgba(224,82,76,0.16)" stroke-width="0.8"/><line x1="0" y1="152" x2="1200" y2="152" stroke="rgba(224,82,76,0.16)" stroke-width="0.8"/><line x1="0" y1="160" x2="1200" y2="160" stroke="rgba(224,82,76,0.34)" stroke-width="1.4"/><line x1="0" y1="168" x2="1200" y2="168" stroke="rgba(224,82,76,0.16)" stroke-width="0.8"/><line x1="0" y1="176" x2="1200" y2="176" stroke="rgba(224,82,76,0.16)" stroke-width="0.8"/><line x1="0" y1="184" x2="1200" y2="184" stroke="rgba(224,82,76,0.16)" stroke-width="0.8"/><line x1="0" y1="192" x2="1200" y2="192" stroke="rgba(224,82,76,0.16)" stroke-width="0.8"/><line x1="0" y1="200" x2="1200" y2="200" stroke="rgba(224,82,76,0.34)" stroke-width="1.4"/><line x1="0" y1="208" x2="1200" y2="208" stroke="rgba(224,82,76,0.16)" stroke-width="0.8"/><line x1="0" y1="216" x2="1200" y2="216" stroke="rgba(224,82,76,0.16)" stroke-width="0.8"/><line x1="0" y1="224" x2="1200" y2="224" stroke="rgba(224,82,76,0.16)" stroke-width="0.8"/><line x1="0" y1="232" x2="1200" y2="232" stroke="rgba(224,82,76,0.16)" stroke-width="0.8"/><line x1="0" y1="240" x2="1200" y2="240" stroke="rgba(224,82,76,0.34)" stroke-width="1.4"/><line x1="0" y1="248" x2="1200" y2="248" stroke="rgba(224,82,76,0.16)" stroke-width="0.8"/><line x1="0" y1="256" x2="1200" y2="256" stroke="rgba(224,82,76,0.16)" stroke-width="0.8"/><path d="M 6 160 L 14 160 L 14 80 L 54 80 L 54 160" fill="none" stroke="#EEF1EE" stroke-width="2.6" stroke-linejoin="round"/><polyline points="0.0,160.0 0.8,160.0 1.6,160.0 2.4,160.0 3.2,160.0 4.0,160.0 4.8,160.0 5.6,160.0 6.4,160.0 7.2,160.0 8.0,160.0 8.8,160.0 9.6,160.0 10.4,160.0 11.2,160.0 12.0,160.0 12.8,160.0 13.6,160.0 14.4,160.0 15.2,160.0 16.0,160.0 16.8,160.0 17.6,160.0 18.4,160.0 19.2,160.0 20.0,160.0 20.8,160.0 21.6,160.0 22.4,160.0 23.2,160.0 24.0,160.0 24.8,160.0 25.6,160.0 26.4,160.0 27.2,160.0 28.0,160.1 28.8,160.1 29.6,160.1 30.4,160.2 31.2,160.3 32.0,160.4 32.8,160.6 33.6,160.9 34.4,161.3 35.2,161.8 36.0,162.4 36.8,163.3 37.6,164.4 38.4,165.8 39.2,167.6 40.0,61.7 40.8,64.2 41.6,175.2 42.4,178.7 43.2,182.6 44.0,187.0 44.8,191.7 45.6,196.8 46.4,202.1 47.2,207.6 48.0,213.2 48.8,218.6 49.6,223.8 50.4,228.7 51.2,233.1 52.0,237.0 52.8,240.1 53.6,242.5 54.4,244.1 55.2,244.7 56.0,244.5 56.8,243.2 57.6,241.0 58.4,237.9 59.2,233.9 60.0,229.0 60.8,223.4 61.6,217.1 62.4,210.3 63.2,203.0 64.0,195.6 64.8,188.0 65.6,180.6 66.4,173.4 67.2,166.6 68.0,160.4 68.8,154.9 69.6,150.2 70.4,146.2 71.2,143.2 72.0,140.9 72.8,139.5 73.6,138.8 74.4,138.8 75.2,139.3 76.0,140.3 76.8,141.7 77.6,143.2 78.4,144.9 79.2,146.7 80.0,148.4 80.8,150.0 81.6,151.6 82.4,152.9 83.2,154.1 84.0,155.1 84.8,156.0 85.6,156.6 86.4,157.2 87.2,157.5 88.0,157.8 88.8,157.9 89.6,158.0 90.4,158.0 91.2,157.9 92.0,157.7 92.8,157.5 93.6,157.2 94.4,156.9 95.2,156.5 96.0,156.1 96.8,155.7 97.6,155.2 98.4,154.7 99.2,154.1 100.0,153.5 100.8,152.9 101.6,152.2 102.4,151.5 103.2,150.8 104.0,150.0 104.8,149.2 105.6,148.4 106.4,147.6 107.2,146.7 108.0,145.9 108.8,145.0 109.6,144.2 110.4,143.3 111.2,142.5 112.0,141.7 112.8,140.9 113.6,140.2 114.4,139.5 115.2,138.8 116.0,138.2 116.8,137.7 117.6,137.2 118.4,136.8 119.2,136.5 120.0,136.3 120.8,136.1 121.6,136.0 122.4,136.0 123.2,136.1 124.0,136.3 124.8,136.5 125.6,136.8 126.4,137.2 127.2,137.7 128.0,138.2 128.8,138.8 129.6,139.5 130.4,140.2 131.2,140.9 132.0,141.7 132.8,142.5 133.6,143.3 134.4,144.2 135.2,145.0 136.0,145.9 136.8,146.7 137.6,147.6 138.4,148.4 139.2,149.2 140.0,150.0 140.8,150.8 141.6,151.5 142.4,152.2 143.2,152.9 144.0,153.5 144.8,154.1 145.6,154.7 146.4,155.2 147.2,155.7 148.0,156.2 148.8,156.6 149.6,156.9 150.4,157.3 151.2,157.6 152.0,157.9 152.8,158.2 153.6,158.4 154.4,158.6 155.2,158.8 156.0,159.0 156.8,159.1 157.6,159.2 158.4,159.3 159.2,159.4 160.0,159.5 160.8,159.6 161.6,159.7 162.4,159.7 163.2,159.8 164.0,159.8 164.8,159.8 165.6,159.9 166.4,159.9 167.2,159.9 168.0,159.9 168.8,159.9 169.6,159.9 170.4,160.0 171.2,160.0 172.0,160.0 172.8,160.0 173.6,160.0 174.4,160.0 175.2,160.0 176.0,160.0 176.8,160.0 177.6,160.0 178.4,160.0 179.2,160.0 180.0,160.0 180.8,160.0 181.6,160.0 182.4,160.0 183.2,160.0 184.0,160.0 184.8,160.0 185.6,160.0 186.4,160.0 187.2,160.0 188.0,160.0 188.8,160.0 189.6,160.0 190.4,160.0 191.2,160.0 192.0,160.0 192.8,160.0 193.6,160.0 194.4,160.0 195.2,160.0 196.0,160.0 196.8,160.0 197.6,160.0 198.4,160.0 199.2,160.0 200.0,160.1 200.8,160.1 201.6,160.2 202.4,160.3 203.2,160.4 204.0,160.6 204.8,160.8 205.6,161.1 206.4,161.6 207.2,162.2 208.0,163.0 208.8,164.1 209.6,165.4 210.4,167.0 211.2,169.0 212.0,63.5 212.8,174.3 213.6,177.6 214.4,181.4 215.2,185.7 216.0,190.3 216.8,195.3 217.6,200.6 218.4,206.1 219.2,211.6 220.0,217.1 220.8,222.4 221.6,227.4 222.4,231.9 223.2,235.9 224.0,239.3 224.8,241.9 225.6,243.7 226.4,244.6 227.2,244.6 228.0,243.7 228.8,241.8 229.6,238.9 230.4,235.1 231.2,230.5 232.0,225.1 232.8,219.0 233.6,212.3 234.4,205.1 235.2,197.7 236.0,190.2 236.8,182.7 237.6,175.4 238.4,168.5 239.2,162.1 240.0,156.4 240.8,151.4 241.6,147.3 242.4,144.0 243.2,141.5 244.0,139.8 244.8,139.0 245.6,138.7 246.4,139.1 247.2,140.0 248.0,141.2 248.8,142.8 249.6,144.4 250.4,146.2 251.2,147.9 252.0,149.6 252.8,151.1 253.6,152.6 254.4,153.8 255.2,154.9 256.0,155.8 256.8,156.5 257.6,157.0 258.4,157.4 259.2,157.7 260.0,157.9 260.8,158.0 261.6,158.0 262.4,157.9 263.2,157.7 264.0,157.5 264.8,157.3 265.6,157.0 266.4,156.6 267.2,156.2 268.0,155.8 268.8,155.3 269.6,154.8 270.4,154.3 271.2,153.7 272.0,153.1 272.8,152.4 273.6,151.7 274.4,151.0 275.2,150.2 276.0,149.5 276.8,148.6 277.6,147.8 278.4,147.0 279.2,146.1 280.0,145.3 280.8,144.4 281.6,143.6 282.4,142.7 283.2,141.9 284.0,141.1 284.8,140.4 285.6,139.7 286.4,139.0 287.2,138.4 288.0,137.8 288.8,137.4 289.6,136.9 290.4,136.6 291.2,136.3 292.0,136.1 292.8,136.0 293.6,136.0 294.4,136.1 295.2,136.2 296.0,136.4 296.8,136.7 297.6,137.1 298.4,137.6 299.2,138.1 300.0,138.6 300.8,139.3 301.6,140.0 302.4,140.7 303.2,141.5 304.0,142.3 304.8,143.1 305.6,143.9 306.4,144.8 307.2,145.6 308.0,146.5 308.8,147.3 309.6,148.2 310.4,149.0 311.2,149.8 312.0,150.6 312.8,151.3 313.6,152.0 314.4,152.7 315.2,153.4 316.0,154.0 316.8,154.5 317.6,155.1 318.4,155.6 319.2,156.0 320.0,156.5 320.8,156.8 321.6,157.2 322.4,157.5 323.2,157.8 324.0,158.1 324.8,158.3 325.6,158.5 326.4,158.7 327.2,158.9 328.0,159.1 328.8,159.2 329.6,159.3 330.4,159.4 331.2,159.5 332.0,159.6 332.8,159.6 333.6,159.7 334.4,159.7 335.2,159.8 336.0,159.8 336.8,159.9 337.6,159.9 338.4,159.9 339.2,159.9 340.0,159.9 340.8,159.9 341.6,160.0 342.4,160.0 343.2,160.0 344.0,160.0 344.8,160.0 345.6,160.0 346.4,160.0 347.2,160.0 348.0,160.0 348.8,160.0 349.6,160.0 350.4,160.0 351.2,160.0 352.0,160.0 352.8,160.0 353.6,160.0 354.4,160.0 355.2,160.0 356.0,160.0 356.8,160.0 357.6,160.0 358.4,160.0 359.2,160.0 360.0,160.0 360.8,160.0 361.6,160.0 362.4,160.0 363.2,160.0 364.0,160.0 364.8,160.0 365.6,160.0 366.4,160.0 367.2,160.0 368.0,160.0 368.8,160.0 369.6,160.0 370.4,160.0 371.2,160.1 372.0,160.1 372.8,160.2 373.6,160.2 374.4,160.3 375.2,160.5 376.0,160.7 376.8,161.0 377.6,161.5 378.4,162.0 379.2,162.8 380.0,163.7 380.8,165.0 381.6,166.5 382.4,168.4 383.2,62.7 384.0,65.5 384.8,176.6 385.6,180.3 386.4,184.4 387.2,188.9 388.0,193.9 388.8,199.1 389.6,204.5 390.4,210.0 391.2,215.5 392.0,220.9 392.8,226.0 393.6,230.7 394.4,234.8 395.2,238.4 396.0,241.2 396.8,243.3 397.6,244.5 398.4,244.7 399.2,244.0 400.0,242.4 400.8,239.8 401.6,236.3 402.4,231.9 403.2,226.7 404.0,220.8 404.8,214.2 405.6,207.2 406.4,199.9 407.2,192.3 408.0,184.8 408.8,177.5 409.6,170.4 410.4,163.9 411.2,158.0 412.0,152.8 412.8,148.4 413.6,144.8 414.4,142.1 415.2,140.2 416.0,139.1 416.8,138.7 417.6,139.0 418.4,139.7 419.2,140.9 420.0,142.3 420.8,143.9 421.6,145.7 422.4,147.4 423.2,149.1 424.0,150.7 424.8,152.2 425.6,153.5 426.4,154.6 427.2,155.5 428.0,156.3 428.8,156.9 429.6,157.3 430.4,157.7 431.2,157.9 432.0,158.0 432.8,158.0 433.6,157.9 434.4,157.8 435.2,157.6 436.0,157.4 436.8,157.1 437.6,156.7 438.4,156.4 439.2,155.9 440.0,155.5 440.8,155.0 441.6,154.4 442.4,153.9 443.2,153.3 444.0,152.6 444.8,151.9 445.6,151.2 446.4,150.5 447.2,149.7 448.0,148.9 448.8,148.1 449.6,147.2 450.4,146.4 451.2,145.5 452.0,144.7 452.8,143.8 453.6,143.0 454.4,142.2 455.2,141.4 456.0,140.6 456.8,139.9 457.6,139.2 458.4,138.6 459.2,138.0 460.0,137.5 460.8,137.0 461.6,136.7 462.4,136.4 463.2,136.2 464.0,136.0 464.8,136.0 465.6,136.0 466.4,136.2 467.2,136.4 468.0,136.6 468.8,137.0 469.6,137.4 470.4,137.9 471.2,138.5 472.0,139.1 472.8,139.8 473.6,140.5 474.4,141.2 475.2,142.0 476.0,142.9 476.8,143.7 477.6,144.5 478.4,145.4 479.2,146.3 480.0,147.1 480.8,147.9 481.6,148.8 482.4,149.6 483.2,150.4 484.0,151.1 484.8,151.8 485.6,152.5 486.4,153.2 487.2,153.8 488.0,154.4 488.8,154.9 489.6,155.4 490.4,155.9 491.2,156.3 492.0,156.7 492.8,157.1 493.6,157.4 494.4,157.7 495.2,158.0 496.0,158.3 496.8,158.5 497.6,158.7 498.4,158.9 499.2,159.0 500.0,159.2 500.8,159.3 501.6,159.4 502.4,159.5 503.2,159.6 504.0,159.6 504.8,159.7 505.6,159.7 506.4,159.8 507.2,159.8 508.0,159.8 508.8,159.9 509.6,159.9 510.4,159.9 511.2,159.9 512.0,159.9 512.8,160.0 513.6,160.0 514.4,160.0 515.2,160.0 516.0,160.0 516.8,160.0 517.6,160.0 518.4,160.0 519.2,160.0 520.0,160.0 520.8,160.0 521.6,160.0 522.4,160.0 523.2,160.0 524.0,160.0 524.8,160.0 525.6,160.0 526.4,160.0 527.2,160.0 528.0,160.0 528.8,160.0 529.6,160.0 530.4,160.0 531.2,160.0 532.0,160.0 532.8,160.0 533.6,160.0 534.4,160.0 535.2,160.0 536.0,160.0 536.8,160.0 537.6,160.0 538.4,160.0 539.2,160.0 540.0,160.0 540.8,160.0 541.6,160.0 542.4,160.1 543.2,160.1 544.0,160.1 544.8,160.2 545.6,160.3 546.4,160.4 547.2,160.6 548.0,160.9 548.8,161.3 549.6,161.8 550.4,162.5 551.2,163.4 552.0,164.6 552.8,166.0 553.6,167.8 554.4,62.0 555.2,64.6 556.0,175.7 556.8,179.2 557.6,183.2 558.4,187.6 559.2,192.4 560.0,197.5 560.8,202.9 561.6,208.4 562.4,213.9 563.2,219.4 564.0,224.5 564.8,229.4 565.6,233.7 566.4,237.5 567.2,240.5 568.0,242.8 568.8,244.2 569.6,244.7 570.4,244.3 571.2,243.0 572.0,240.7 572.8,237.4 573.6,233.3 574.4,228.3 575.2,222.5 576.0,216.2 576.8,209.3 577.6,202.0 578.4,194.5 579.2,186.9 580.0,179.5 580.8,172.4 581.6,165.7 582.4,159.6 583.2,154.2 584.0,149.6 584.8,145.8 585.6,142.8 586.4,140.7 587.2,139.4 588.0,138.8 588.8,138.8 589.6,139.5 590.4,140.5 591.2,141.9 592.0,143.5 592.8,145.2 593.6,146.9 594.4,148.6 595.2,150.3 596.0,151.8 596.8,153.1 597.6,154.3 598.4,155.3 599.2,156.1 600.0,156.7 600.8,157.2 601.6,157.6 602.4,157.8 603.2,157.9 604.0,158.0 604.8,157.9 605.6,157.8 606.4,157.7 607.2,157.4 608.0,157.2 608.8,156.8 609.6,156.5 610.4,156.1 611.2,155.6 612.0,155.1 612.8,154.6 613.6,154.0 614.4,153.4 615.2,152.8 616.0,152.1 616.8,151.4 617.6,150.7 618.4,149.9 619.2,149.1 620.0,148.3 620.8,147.5 621.6,146.6 622.4,145.8 623.2,144.9 624.0,144.1 624.8,143.2 625.6,142.4 626.4,141.6 627.2,140.8 628.0,140.1 628.8,139.4 629.6,138.7 630.4,138.1 631.2,137.6 632.0,137.2 632.8,136.8 633.6,136.5 634.4,136.2 635.2,136.1 636.0,136.0 636.8,136.0 637.6,136.1 638.4,136.3 639.2,136.5 640.0,136.9 640.8,137.3 641.6,137.8 642.4,138.3 643.2,138.9 644.0,139.6 644.8,140.3 645.6,141.0 646.4,141.8 647.2,142.6 648.0,143.4 648.8,144.3 649.6,145.1 650.4,146.0 651.2,146.9 652.0,147.7 652.8,148.5 653.6,149.3 654.4,150.1 655.2,150.9 656.0,151.6 656.8,152.3 657.6,153.0 658.4,153.6 659.2,154.2 660.0,154.8 660.8,155.3 661.6,155.8 662.4,156.2 663.2,156.6 664.0,157.0 664.8,157.3 665.6,157.7 666.4,157.9 667.2,158.2 668.0,158.4 668.8,158.6 669.6,158.8 670.4,159.0 671.2,159.1 672.0,159.2 672.8,159.4 673.6,159.4 674.4,159.5 675.2,159.6 676.0,159.7 676.8,159.7 677.6,159.8 678.4,159.8 679.2,159.8 680.0,159.9 680.8,159.9 681.6,159.9 682.4,159.9 683.2,159.9 684.0,159.9 684.8,160.0 685.6,160.0 686.4,160.0 687.2,160.0 688.0,160.0 688.8,160.0 689.6,160.0 690.4,160.0 691.2,160.0 692.0,160.0 692.8,160.0 693.6,160.0 694.4,160.0 695.2,160.0 696.0,160.0 696.8,160.0 697.6,160.0 698.4,160.0 699.2,160.0 700.0,160.0 700.8,160.0 701.6,160.0 702.4,160.0 703.2,160.0 704.0,160.0 704.8,160.0 705.6,160.0 706.4,160.0 707.2,160.0 708.0,160.0 708.8,160.0 709.6,160.0 710.4,160.0 711.2,160.0 712.0,160.0 712.8,160.0 713.6,160.0 714.4,160.1 715.2,160.1 716.0,160.2 716.8,160.3 717.6,160.4 718.4,160.6 719.2,160.8 720.0,161.2 720.8,161.7 721.6,162.3 722.4,163.1 723.2,164.2 724.0,165.6 724.8,167.3 725.6,169.4 726.4,63.8 727.2,174.8 728.0,178.2 728.8,182.0 729.6,186.3 730.4,191.0 731.2,196.1 732.0,201.4 732.8,206.8 733.6,212.4 734.4,217.8 735.2,223.1 736.0,228.0 736.8,232.5 737.6,236.5 738.4,239.7 739.2,242.2 740.0,243.9 740.8,244.7 741.6,244.6 742.4,243.5 743.2,241.4 744.0,238.4 744.8,234.5 745.6,229.8 746.4,224.2 747.2,218.0 748.0,211.3 748.8,204.1 749.6,196.6 750.4,189.1 751.2,181.6 752.0,174.4 752.8,167.6 753.6,161.3 754.4,155.7 755.2,150.8 756.0,146.8 756.8,143.6 757.6,141.2 758.4,139.7 759.2,138.9 760.0,138.8 760.8,139.2 761.6,140.2 762.4,141.4 763.2,143.0 764.0,144.7 764.8,146.4 765.6,148.2 766.4,149.8 767.2,151.4 768.0,152.7 768.8,154.0 769.6,155.0 770.4,155.9 771.2,156.6 772.0,157.1 772.8,157.5 773.6,157.8 774.4,157.9 775.2,158.0 776.0,158.0 776.8,157.9 777.6,157.7 778.4,157.5 779.2,157.2 780.0,156.9 780.8,156.6 781.6,156.2 782.4,155.7 783.2,155.3 784.0,154.8 784.8,154.2 785.6,153.6 786.4,153.0 787.2,152.3 788.0,151.6 788.8,150.9 789.6,150.1 790.4,149.3 791.2,148.5 792.0,147.7 792.8,146.9 793.6,146.0 794.4,145.1 795.2,144.3 796.0,143.4 796.8,142.6 797.6,141.8 798.4,141.0 799.2,140.3 800.0,139.6 800.8,138.9 801.6,138.3 802.4,137.8 803.2,137.3 804.0,136.9 804.8,136.5 805.6,136.3 806.4,136.1 807.2,136.0 808.0,136.0 808.8,136.1 809.6,136.2 810.4,136.5 811.2,136.8 812.0,137.2 812.8,137.6 813.6,138.1 814.4,138.7 815.2,139.4 816.0,140.1 816.8,140.8 817.6,141.6 818.4,142.4 819.2,143.2 820.0,144.1 820.8,144.9 821.6,145.8 822.4,146.6 823.2,147.5 824.0,148.3 824.8,149.1 825.6,149.9 826.4,150.7 827.2,151.4 828.0,152.1 828.8,152.8 829.6,153.4 830.4,154.0 831.2,154.6 832.0,155.1 832.8,155.6 833.6,156.1 834.4,156.5 835.2,156.9 836.0,157.3 836.8,157.6 837.6,157.9 838.4,158.1 839.2,158.4 840.0,158.6 840.8,158.8 841.6,158.9 842.4,159.1 843.2,159.2 844.0,159.3 844.8,159.4 845.6,159.5 846.4,159.6 847.2,159.6 848.0,159.7 848.8,159.8 849.6,159.8 850.4,159.8 851.2,159.9 852.0,159.9 852.8,159.9 853.6,159.9 854.4,159.9 855.2,159.9 856.0,160.0 856.8,160.0 857.6,160.0 858.4,160.0 859.2,160.0 860.0,160.0 860.8,160.0 861.6,160.0 862.4,160.0 863.2,160.0 864.0,160.0 864.8,160.0 865.6,160.0 866.4,160.0 867.2,160.0 868.0,160.0 868.8,160.0 869.6,160.0 870.4,160.0 871.2,160.0 872.0,160.0 872.8,160.0 873.6,160.0 874.4,160.0 875.2,160.0 876.0,160.0 876.8,160.0 877.6,160.0 878.4,160.0 879.2,160.0 880.0,160.0 880.8,160.0 881.6,160.0 882.4,160.0 883.2,160.0 884.0,160.0 884.8,160.0 885.6,160.1 886.4,160.1 887.2,160.2 888.0,160.2 888.8,160.4 889.6,160.5 890.4,160.8 891.2,161.1 892.0,161.5 892.8,162.1 893.6,162.9 894.4,163.9 895.2,165.2 896.0,166.8 896.8,168.7 897.6,63.1 898.4,173.9 899.2,177.1 900.0,180.9 900.8,185.0 901.6,189.6 902.4,194.6 903.2,199.8 904.0,205.3 904.8,210.8 905.6,216.3 906.4,221.6 907.2,226.7 908.0,231.3 908.8,235.4 909.6,238.9 910.4,241.6 911.2,243.5 912.0,244.6 912.8,244.7 913.6,243.9 914.4,242.1 915.2,239.4 916.0,235.7 916.8,231.2 917.6,225.9 918.4,219.9 919.2,213.3 920.0,206.2 920.8,198.8 921.6,191.3 922.4,183.7 923.2,176.4 924.0,169.5 924.8,163.0 925.6,157.2 926.4,152.1 927.2,147.8 928.0,144.4 928.8,141.8 929.6,140.0 930.4,139.0 931.2,138.7 932.0,139.0 932.8,139.9 933.6,141.0 934.4,142.5 935.2,144.2 936.0,145.9 936.8,147.7 937.6,149.4 938.4,150.9 939.2,152.4 940.0,153.6 940.8,154.7 941.6,155.6 942.4,156.4 943.2,157.0 944.0,157.4 944.8,157.7 945.6,157.9 946.4,158.0 947.2,158.0 948.0,157.9 948.8,157.8 949.6,157.6 950.4,157.3 951.2,157.0 952.0,156.7 952.8,156.3 953.6,155.9 954.4,155.4 955.2,154.9 956.0,154.4 956.8,153.8 957.6,153.2 958.4,152.5 959.2,151.8 960.0,151.1 960.8,150.4 961.6,149.6 962.4,148.8 963.2,147.9 964.0,147.1 964.8,146.3 965.6,145.4 966.4,144.5 967.2,143.7 968.0,142.9 968.8,142.0 969.6,141.2 970.4,140.5 971.2,139.8 972.0,139.1 972.8,138.5 973.6,137.9 974.4,137.4 975.2,137.0 976.0,136.6 976.8,136.4 977.6,136.2 978.4,136.0 979.2,136.0 980.0,136.0 980.8,136.2 981.6,136.4 982.4,136.7 983.2,137.0 984.0,137.5 984.8,138.0 985.6,138.6 986.4,139.2 987.2,139.9 988.0,140.6 988.8,141.4 989.6,142.2 990.4,143.0 991.2,143.8 992.0,144.7 992.8,145.5 993.6,146.4 994.4,147.2 995.2,148.1 996.0,148.9 996.8,149.7 997.6,150.5 998.4,151.2 999.2,151.9 1000.0,152.6 1000.8,153.3 1001.6,153.9 1002.4,154.5 1003.2,155.0 1004.0,155.5 1004.8,156.0 1005.6,156.4 1006.4,156.8 1007.2,157.2 1008.0,157.5 1008.8,157.8 1009.6,158.1 1010.4,158.3 1011.2,158.5 1012.0,158.7 1012.8,158.9 1013.6,159.0 1014.4,159.2 1015.2,159.3 1016.0,159.4 1016.8,159.5 1017.6,159.6 1018.4,159.6 1019.2,159.7 1020.0,159.7 1020.8,159.8 1021.6,159.8 1022.4,159.8 1023.2,159.9 1024.0,159.9 1024.8,159.9 1025.6,159.9 1026.4,159.9 1027.2,160.0 1028.0,160.0 1028.8,160.0 1029.6,160.0 1030.4,160.0 1031.2,160.0 1032.0,160.0 1032.8,160.0 1033.6,160.0 1034.4,160.0 1035.2,160.0 1036.0,160.0 1036.8,160.0 1037.6,160.0 1038.4,160.0 1039.2,160.0 1040.0,160.0 1040.8,160.0 1041.6,160.0 1042.4,160.0 1043.2,160.0 1044.0,160.0 1044.8,160.0 1045.6,160.0 1046.4,160.0 1047.2,160.0 1048.0,160.0 1048.8,160.0 1049.6,160.0 1050.4,160.0 1051.2,160.0 1052.0,160.0 1052.8,160.0 1053.6,160.0 1054.4,160.0 1055.2,160.0 1056.0,160.0 1056.8,160.1 1057.6,160.1 1058.4,160.1 1059.2,160.2 1060.0,160.3 1060.8,160.5 1061.6,160.7 1062.4,161.0 1063.2,161.4 1064.0,161.9 1064.8,162.6 1065.6,163.6 1066.4,164.8 1067.2,166.3 1068.0,168.1 1068.8,62.4 1069.6,65.0 1070.4,176.2 1071.2,179.8 1072.0,183.8 1072.8,188.3 1073.6,193.1 1074.4,198.3 1075.2,203.7 1076.0,209.2 1076.8,214.7 1077.6,220.1 1078.4,225.3 1079.2,230.0 1080.0,234.3 1080.8,237.9 1081.6,240.9 1082.4,243.0 1083.2,244.3 1084.0,244.7 1084.8,244.2 1085.6,242.7 1086.4,240.3 1087.2,236.9 1088.0,232.6 1088.8,227.5 1089.6,221.7 1090.4,215.2 1091.2,208.2 1092.0,200.9 1092.8,193.4 1093.6,185.9 1094.4,178.5 1095.2,171.4 1096.0,164.8 1096.8,158.8 1097.6,153.5 1098.4,149.0 1099.2,145.3 1100.0,142.4 1100.8,140.5 1101.6,139.2 1102.4,138.8 1103.2,138.9 1104.0,139.6 1104.8,140.7 1105.6,142.1 1106.4,143.7 1107.2,145.4 1108.0,147.2 1108.8,148.9 1109.6,150.5 1110.4,152.0 1111.2,153.3 1112.0,154.4 1112.8,155.4 1113.6,156.2 1114.4,156.8 1115.2,157.3 1116.0,157.6 1116.8,157.8 1117.6,158.0 1118.4,158.0 1119.2,157.9 1120.0,157.8 1120.8,157.6 1121.6,157.4 1122.4,157.1 1123.2,156.8 1124.0,156.4 1124.8,156.0 1125.6,155.5 1126.4,155.1 1127.2,154.5 1128.0,154.0 1128.8,153.3 1129.6,152.7 1130.4,152.0 1131.2,151.3 1132.0,150.6 1132.8,149.8 1133.6,149.0 1134.4,148.2 1135.2,147.3 1136.0,146.5 1136.8,145.6 1137.6,144.8 1138.4,143.9 1139.2,143.1 1140.0,142.3 1140.8,141.5 1141.6,140.7 1142.4,140.0 1143.2,139.3 1144.0,138.6 1144.8,138.1 1145.6,137.6 1146.4,137.1 1147.2,136.7 1148.0,136.4 1148.8,136.2 1149.6,136.1 1150.4,136.0 1151.2,136.0 1152.0,136.1 1152.8,136.3 1153.6,136.6 1154.4,136.9 1155.2,137.4 1156.0,137.8 1156.8,138.4 1157.6,139.0 1158.4,139.7 1159.2,140.4 1160.0,141.1 1160.8,141.9 1161.6,142.7 1162.4,143.6 1163.2,144.4 1164.0,145.3 1164.8,146.1 1165.6,147.0 1166.4,147.8 1167.2,148.6 1168.0,149.5 1168.8,150.2 1169.6,151.0 1170.4,151.7 1171.2,152.4 1172.0,153.1 1172.8,153.7 1173.6,154.3 1174.4,154.8 1175.2,155.4 1176.0,155.8 1176.8,156.3 1177.6,156.7 1178.4,157.1 1179.2,157.4 1180.0,157.7 1180.8,158.0 1181.6,158.2 1182.4,158.5 1183.2,158.7 1184.0,158.8 1184.8,159.0 1185.6,159.1 1186.4,159.3 1187.2,159.4 1188.0,159.5 1188.8,159.5 1189.6,159.6 1190.4,159.7 1191.2,159.7 1192.0,159.8 1192.8,159.8 1193.6,159.8 1194.4,159.9 1195.2,159.9 1196.0,159.9 1196.8,159.9 1197.6,159.9 1198.4,160.0 1199.2,160.0 1200.0,160.0" fill="none" stroke="#EEF1EE" stroke-width="2.6" stroke-linejoin="round" stroke-linecap="round"/><text x="10" y="246" fill="rgba(169,180,188,0.55)" font-family="IBM Plex Mono, ui-monospace, monospace" font-size="15">25 mm/s &#183; 10 mm/mV &#183; 6 sec</text></svg>