<svg xmlns="http://www.w3.org/2000/svg" viewBox="0 0 1200 256" width="100%" role="img" aria-label="Atrial fibrillation"><rect width="1200" height="256" fill="#0E1216"/><line x1="0" y1="0" x2="0" y2="256" stroke="rgba(224,82,76,0.34)" stroke-width="1.4"/><line x1="8" y1="0" x2="8" y2="256" stroke="rgba(224,82,76,0.16)" stroke-width="0.8"/><line x1="16" y1="0" x2="16" y2="256" stroke="rgba(224,82,76,0.16)" stroke-width="0.8"/><line x1="24" y1="0" x2="24" y2="256" stroke="rgba(224,82,76,0.16)" stroke-width="0.8"/><line x1="32" y1="0" x2="32" y2="256" stroke="rgba(224,82,76,0.16)" stroke-width="0.8"/><line x1="40" y1="0" x2="40" y2="256" stroke="rgba(224,82,76,0.34)" stroke-width="1.4"/><line x1="48" y1="0" x2="48" y2="256" stroke="rgba(224,82,76,0.16)" stroke-width="0.8"/><line x1="56" y1="0" x2="56" y2="256" stroke="rgba(224,82,76,0.16)" stroke-width="0.8"/><line x1="64" y1="0" x2="64" y2="256" stroke="rgba(224,82,76,0.16)" stroke-width="0.8"/><line x1="72" y1="0" x2="72" y2="256" stroke="rgba(224,82,76,0.16)" stroke-width="0.8"/><line x1="80" y1="0" x2="80" y2="256" stroke="rgba(224,82,76,0.34)" stroke-width="1.4"/><line x1="88" y1="0" x2="88" y2="256" stroke="rgba(224,82,76,0.16)" stroke-width="0.8"/><line x1="96" y1="0" x2="96" y2="256" stroke="rgba(224,82,76,0.16)" stroke-width="0.8"/><line x1="104" y1="0" x2="104" y2="256" stroke="rgba(224,82,76,0.16)" stroke-width="0.8"/><line x1="112" y1="0" x2="112" y2="256" stroke="rgba(224,82,76,0.16)" stroke-width="0.8"/><line x1="120" y1="0" x2="120" y2="256" stroke="rgba(224,82,76,0.34)" stroke-width="1.4"/><line x1="128" y1="0" x2="128" y2="256" stroke="rgba(224,82,76,0.16)" stroke-width="0.8"/><line x1="136" y1="0" x2="136" y2="256" stroke="rgba(224,82,76,0.16)" stroke-width="0.8"/><line x1="144" y1="0" x2="144" y2="256" stroke="rgba(224,82,76,0.16)" stroke-width="0.8"/><line x1="152" y1="0" x2="152" y2="256" stroke="rgba(224,82,76,0.16)" stroke-width="0.8"/><line x1="160" y1="0" x2="160" y2="256" stroke="rgba(224,82,76,0.34)" stroke-width="1.4"/><line x1="168" y1="0" x2="168" y2="256" stroke="rgba(224,82,76,0.16)" stroke-width="0.8"/><line x1="176" y1="0" x2="176" y2="256" stroke="rgba(224,82,76,0.16)" stroke-width="0.8"/><line x1="184" y1="0" x2="184" y2="256" stroke="rgba(224,82,76,0.16)" stroke-width="0.8"/><line x1="192" y1="0" x2="192" y2="256" stroke="rgba(224,82,76,0.16)" stroke-width="0.8"/><line x1="200" y1="0" x2="200" y2="256" stroke="rgba(224,82,76,0.34)" stroke-width="1.4"/><line x1="208" y1="0" x2="208" y2="256" stroke="rgba(224,82,76,0.16)" stroke-width="0.8"/><line x1="216" y1="0" x2="216" y2="256" stroke="rgba(224,82,76,0.16)" stroke-width="0.8"/><line x1="224" y1="0" x2="224" y2="256" stroke="rgba(224,82,76,0.16)" stroke-width="0.8"/><line x1="232" y1="0" x2="232" y2="256" stroke="rgba(224,82,76,0.16)" stroke-width="0.8"/><line x1="240" y1="0" x2="240" y2="256" stroke="rgba(224,82,76,0.34)" stroke-width="1.4"/><line x1="248" y1="0" x2="248" y2="256" stroke="rgba(224,82,76,0.16)" stroke-width="0.8"/><line x1="256" y1="0" x2="256" y2="256" stroke="rgba(224,82,76,0.16)" stroke-width="0.8"/><line x1="264" y1="0" x2="264" y2="256" stroke="rgba(224,82,76,0.16)" stroke-width="0.8"/><line x1="272" y1="0" x2="272" y2="256" stroke="rgba(224,82,76,0.16)" stroke-width="0.8"/><line x1="280" y1="0" x2="280" y2="256" stroke="rgba(224,82,76,0.34)" stroke-width="1.4"/><line x1="288" y1="0" x2="288" y2="256" stroke="rgba(224,82,76,0.16)" stroke-width="0.8"/><line x1="296" y1="0" x2="296" y2="256" stroke="rgba(224,82,76,0.16)" stroke-width="0.8"/><line x1="304" y1="0" x2="304" y2="256" stroke="rgba(224,82,76,0.16)" stroke-width="0.8"/><line x1="312" y1="0" x2="312" y2="256" stroke="rgba(224,82,76,0.16)" stroke-width="0.8"/><line x1="320" y1="0" x2="320" y2="256" stroke="rgba(224,82,76,0.34)" stroke-width="1.4"/><line x1="328" y1="0" x2="328" y2="256" stroke="rgba(224,82,76,0.16)" stroke-width="0.8"/><line x1="336" y1="0" x2="336" y2="256" stroke="rgba(224,82,76,0.16)" stroke-width="0.8"/><line x1="344" y1="0" x2="344" y2="256" stroke="rgba(224,82,76,0.16)" stroke-width="0.8"/><line x1="352" y1="0" x2="352" y2="256" stroke="rgba(224,82,76,0.16)" stroke-width="0.8"/><line x1="360" y1="0" x2="360" y2="256" stroke="rgba(224,82,76,0.34)" stroke-width="1.4"/><line x1="368" y1="0" x2="368" y2="256" stroke="rgba(224,82,76,0.16)" stroke-width="0.8"/><line x1="376" y1="0" x2="376" y2="256" stroke="rgba(224,82,76,0.16)" stroke-width="0.8"/><line x1="384" y1="0" x2="384" y2="256" stroke="rgba(224,82,76,0.16)" stroke-width="0.8"/><line x1="392" y1="0" x2="392" y2="256" stroke="rgba(224,82,76,0.16)" stroke-width="0.8"/><line x1="400" y1="0" x2="400" y2="256" stroke="rgba(224,82,76,0.34)" stroke-width="1.4"/><line x1="408" y1="0" x2="408" y2="256" stroke="rgba(224,82,76,0.16)" stroke-width="0.8"/><line x1="416" y1="0" x2="416" y2="256" stroke="rgba(224,82,76,0.16)" stroke-width="0.8"/><line x1="424" y1="0" x2="424" y2="256" stroke="rgba(224,82,76,0.16)" stroke-width="0.8"/><line x1="432" y1="0" x2="432" y2="256" stroke="rgba(224,82,76,0.16)" stroke-width="0.8"/><line x1="440" y1="0" x2="440" y2="256" stroke="rgba(224,82,76,0.34)" stroke-width="1.4"/><line x1="448" y1="0" x2="448" y2="256" stroke="rgba(224,82,76,0.16)" stroke-width="0.8"/><line x1="456" y1="0" x2="456" y2="256" stroke="rgba(224,82,76,0.16)" stroke-width="0.8"/><line x1="464" y1="0" x2="464" y2="256" stroke="rgba(224,82,76,0.16)" stroke-width="0.8"/><line x1="472" y1="0" x2="472" y2="256" stroke="rgba(224,82,76,0.16)" stroke-width="0.8"/><line x1="480" y1="0" x2="480" y2="256" stroke="rgba(224,82,76,0.34)" stroke-width="1.4"/><line x1="488" y1="0" x2="488" y2="256" stroke="rgba(224,82,76,0.16)" stroke-width="0.8"/><line x1="496" y1="0" x2="496" y2="256" stroke="rgba(224,82,76,0.16)" stroke-width="0.8"/><line x1="504" y1="0" x2="504" y2="256" stroke="rgba(224,82,76,0.16)" stroke-width="0.8"/><line x1="512" y1="0" x2="512" y2="256" stroke="rgba(224,82,76,0.16)" stroke-width="0.8"/><line x1="520" y1="0" x2="520" y2="256" stroke="rgba(224,82,76,0.34)" stroke-width="1.4"/><line x1="528" y1="0" x2="528" y2="256" stroke="rgba(224,82,76,0.16)" stroke-width="0.8"/><line x1="536" y1="0" x2="536" y2="256" stroke="rgba(224,82,76,0.16)" stroke-width="0.8"/><line x1="544" y1="0" x2="544" y2="256" stroke="rgba(224,82,76,0.16)" stroke-width="0.8"/><line x1="552" y1="0" x2="552" y2="256" stroke="rgba(224,82,76,0.16)" stroke-width="0.8"/><line x1="560" y1="0" x2="560" y2="256" stroke="rgba(224,82,76,0.34)" stroke-width="1.4"/><line x1="568" y1="0" x2="568" y2="256" stroke="rgba(224,82,76,0.16)" stroke-width="0.8"/><line x1="576" y1="0" x2="576" y2="256" stroke="rgba(224,82,76,0.16)" stroke-width="0.8"/><line x1="584" y1="0" x2="584" y2="256" stroke="rgba(224,82,76,0.16)" stroke-width="0.8"/><line x1="592" y1="0" x2="592" y2="256" stroke="rgba(224,82,76,0.16)" stroke-width="0.8"/><line x1="600" y1="0" x2="600" y2="256" stroke="rgba(224,82,76,0.34)" stroke-width="1.4"/><line x1="608" y1="0" x2="608" y2="256" stroke="rgba(224,82,76,0.16)" stroke-width="0.8"/><line x1="616" y1="0" x2="616" y2="256" stroke="rgba(224,82,76,0.16)" stroke-width="0.8"/><line x1="624" y1="0" x2="624" y2="256" stroke="rgba(224,82,76,0.16)" stroke-width="0.8"/><line x1="632" y1="0" x2="632" y2="256" stroke="rgba(224,82,76,0.16)" stroke-width="0.8"/><line x1="640" y1="0" x2="640" y2="256" stroke="rgba(224,82,76,0.34)" stroke-width="1.4"/><line x1="648" y1="0" x2="648" y2="256" stroke="rgba(224,82,76,0.16)" stroke-width="0.8"/><line x1="656" y1="0" x2="656" y2="256" stroke="rgba(224,82,76,0.16)" stroke-width="0.8"/><line x1="664" y1="0" x2="664" y2="256" stroke="rgba(224,82,76,0.16)" stroke-width="0.8"/><line x1="672" y1="0" x2="672" y2="256" stroke="rgba(224,82,76,0.16)" stroke-width="0.8"/><line x1="680" y1="0" x2="680" y2="256" stroke="rgba(224,82,76,0.34)" stroke-width="1.4"/><line x1="688" y1="0" x2="688" y2="256" stroke="rgba(224,82,76,0.16)" stroke-width="0.8"/><line x1="696" y1="0" x2="696" y2="256" stroke="rgba(224,82,76,0.16)" stroke-width="0.8"/><line x1="704" y1="0" x2="704" y2="256" stroke="rgba(224,82,76,0.16)" stroke-width="0.8"/><line x1="712" y1="0" x2="712" y2="256" stroke="rgba(224,82,76,0.16)" stroke-width="0.8"/><line x1="720" y1="0" x2="720" y2="256" stroke="rgba(224,82,76,0.34)" stroke-width="1.4"/><line x1="728" y1="0" x2="728" y2="256" stroke="rgba(224,82,76,0.16)" stroke-width="0.8"/><line x1="736" y1="0" x2="736" y2="256" stroke="rgba(224,82,76,0.16)" stroke-width="0.8"/><line x1="744" y1="0" x2="744" y2="256" stroke="rgba(224,82,76,0.16)" stroke-width="0.8"/><line x1="752" y1="0" x2="752" y2="256" stroke="rgba(224,82,76,0.16)" stroke-width="0.8"/><line x1="760" y1="0" x2="760" y2="256" stroke="rgba(224,82,76,0.34)" stroke-width="1.4"/><line x1="768" y1="0" x2="768" y2="256" stroke="rgba(224,82,76,0.16)" stroke-width="0.8"/><line x1="776" y1="0" x2="776" y2="256" stroke="rgba(224,82,76,0.16)" stroke-width="0.8"/><line x1="784" y1="0" x2="784" y2="256" stroke="rgba(224,82,76,0.16)" stroke-width="0.8"/><line x1="792" y1="0" x2="792" y2="256" stroke="rgba(224,82,76,0.16)" stroke-width="0.8"/><line x1="800" y1="0" x2="800" y2="256" stroke="rgba(224,82,76,0.34)" stroke-width="1.4"/><line x1="808" y1="0" x2="808" y2="256" stroke="rgba(224,82,76,0.16)" stroke-width="0.8"/><line x1="816" y1="0" x2="816" y2="256" stroke="rgba(224,82,76,0.16)" stroke-width="0.8"/><line x1="824" y1="0" x2="824" y2="256" stroke="rgba(224,82,76,0.16)" stroke-width="0.8"/><line x1="832" y1="0" x2="832" y2="256" stroke="rgba(224,82,76,0.16)" stroke-width="0.8"/><line x1="840" y1="0" x2="840" y2="256" stroke="rgba(224,82,76,0.34)" stroke-width="1.4"/><line x1="848" y1="0" x2="848" y2="256" stroke="rgba(224,82,76,0.16)" stroke-width="0.8"/><line x1="856" y1="0" x2="856" y2="256" stroke="rgba(224,82,76,0.16)" stroke-width="0.8"/><line x1="864" y1="0" x2="864" y2="256" stroke="rgba(224,82,76,0.16)" stroke-width="0.8"/><line x1="872" y1="0" x2="872" y2="256" stroke="rgba(224,82,76,0.16)" stroke-width="0.8"/><line x1="880" y1="0" x2="880" y2="256" stroke="rgba(224,82,76,0.34)" stroke-width="1.4"/><line x1="888" y1="0" x2="888" y2="256" stroke="rgba(224,82,76,0.16)" stroke-width="0.8"/><line x1="896" y1="0" x2="896" y2="256" stroke="rgba(224,82,76,0.16)" stroke-width="0.8"/><line x1="904" y1="0" x2="904" y2="256" stroke="rgba(224,82,76,0.16)" stroke-width="0.8"/><line x1="912" y1="0" x2="912" y2="256" stroke="rgba(224,82,76,0.16)" stroke-width="0.8"/><line x1="920" y1="0" x2="920" y2="256" stroke="rgba(224,82,76,0.34)" stroke-width="1.4"/><line x1="928" y1="0" x2="928" y2="256" stroke="rgba(224,82,76,0.16)" stroke-width="0.8"/><line x1="936" y1="0" x2="936" y2="256" stroke="rgba(224,82,76,0.16)" stroke-width="0.8"/><line x1="944" y1="0" x2="944" y2="256" stroke="rgba(224,82,76,0.16)" stroke-width="0.8"/><line x1="952" y1="0" x2="952" y2="256" stroke="rgba(224,82,76,0.16)" stroke-width="0.8"/><line x1="960" y1="0" x2="960" y2="256" stroke="rgba(224,82,76,0.34)" stroke-width="1.4"/><line x1="968" y1="0" x2="968" y2="256" stroke="rgba(224,82,76,0.16)" stroke-width="0.8"/><line x1="976" y1="0" x2="976" y2="256" stroke="rgba(224,82,76,0.16)" stroke-width="0.8"/><line x1="984" y1="0" x2="984" y2="256" stroke="rgba(224,82,76,0.16)" stroke-width="0.8"/><line x1="992" y1="0" x2="992" y2="256" stroke="rgba(224,82,76,0.16)" stroke-width="0.8"/><line x1="1000" y1="0" x2="1000" y2="256" stroke="rgba(224,82,76,0.34)" stroke-width="1.4"/><line x1="1008" y1="0" x2="1008" y2="256" stroke="rgba(224,82,76,0.16)" stroke-width="0.8"/><line x1="1016" y1="0" x2="1016" y2="256" stroke="rgba(224,82,76,0.16)" stroke-width="0.8"/><line x1="1024" y1="0" x2="1024" y2="256" stroke="rgba(224,82,76,0.16)" stroke-width="0.8"/><line x1="1032" y1="0" x2="1032" y2="256" stroke="rgba(224,82,76,0.16)" stroke-width="0.8"/><line x1="1040" y1="0" x2="1040" y2="256" stroke="rgba(224,82,76,0.34)" stroke-width="1.4"/><line x1="1048" y1="0" x2="1048" y2="256" stroke="rgba(224,82,76,0.16)" stroke-width="0.8"/><line x1="1056" y1="0" x2="1056" y2="256" stroke="rgba(224,82,76,0.16)" stroke-width="0.8"/><line x1="1064" y1="0" x2="1064" y2="256" stroke="rgba(224,82,76,0.16)" stroke-width="0.8"/><line x1="1072" y1="0" x2="1072" y2="256" stroke="rgba(224,82,76,0.16)" stroke-width="0.8"/><line x1="1080" y1="0" x2="1080" y2="256" stroke="rgba(224,82,76,0.34)" stroke-width="1.4"/><line x1="1088" y1="0" x2="1088" y2="256" stroke="rgba(224,82,76,0.16)" stroke-width="0.8"/><line x1="1096" y1="0" x2="1096" y2="256" stroke="rgba(224,82,76,0.16)" stroke-width="0.8"/><line x1="1104" y1="0" x2="1104" y2="256" stroke="rgba(224,82,76,0.16)" stroke-width="0.8"/><line x1="1112" y1="0" x2="1112" y2="256" stroke="rgba(224,82,76,0.16)" stroke-width="0.8"/><line x1="1120" y1="0" x2="1120" y2="256" stroke="rgba(224,82,76,0.34)" stroke-width="1.4"/><line x1="1128" y1="0" x2="1128" y2="256" stroke="rgba(224,82,76,0.16)" stroke-width="0.8"/><line x1="1136" y1="0" x2="1136" y2="256" stroke="rgba(224,82,76,0.16)" stroke-width="0.8"/><line x1="1144" y1="0" x2="1144" y2="256" stroke="rgba(224,82,76,0.16)" stroke-width="0.8"/><line x1="1152" y1="0" x2="1152" y2="256" stroke="rgba(224,82,76,0.16)" stroke-width="0.8"/><line x1="1160" y1="0" x2="1160" y2="256" stroke="rgba(224,82,76,0.34)" stroke-width="1.4"/><line x1="1168" y1="0" x2="1168" y2="256" stroke="rgba(224,82,76,0.16)" stroke-width="0.8"/><line x1="1176" y1="0" x2="1176" y2="256" stroke="rgba(224,82,76,0.16)" stroke-width="0.8"/><line x1="1184" y1="0" x2="1184" y2="256" stroke="rgba(224,82,76,0.16)" stroke-width="0.8"/><line x1="1192" y1="0" x2="1192" y2="256" stroke="rgba(224,82,76,0.16)" stroke-width="0.8"/><line x1="1200" y1="0" x2="1200" y2="256" stroke="rgba(224,82,76,0.34)" stroke-width="1.4"/><line x1="0" y1="0" x2="1200" y2="0" stroke="rgba(224,82,76,0.34)" stroke-width="1.4"/><line x1="0" y1="8" x2="1200" y2="8" stroke="rgba(224,82,76,0.16)" stroke-width="0.8"/><line x1="0" y1="16" x2="1200" y2="16" stroke="rgba(224,82,76,0.16)" stroke-width="0.8"/><line x1="0" y1="24" x2="1200" y2="24" stroke="rgba(224,82,76,0.16)" stroke-width="0.8"/><line x1="0" y1="32" x2="1200" y2="32" stroke="rgba(224,82,76,0.16)" stroke-width="0.8"/><line x1="0" y1="40" x2="1200" y2="40" stroke="rgba(224,82,76,0.34)" stroke-width="1.4"/><line x1="0" y1="48" x2="1200" y2="48" stroke="rgba(224,82,76,0.16)" stroke-width="0.8"/><line x1="0" y1="56" x2="1200" y2="56" stroke="rgba(224,82,76,0.16)" stroke-width="0.8"/><line x1="0" y1="64" x2="1200" y2="64" stroke="rgba(224,82,76,0.16)" stroke-width="0.8"/><line x1="0" y1="72" x2="1200" y2="72" stroke="rgba(224,82,76,0.16)" stroke-width="0.8"/><line x1="0" y1="80" x2="1200" y2="80" stroke="rgba(224,82,76,0.34)" stroke-width="1.4"/><line x1="0" y1="88" x2="1200" y2="88" stroke="rgba(224,82,76,0.16)" stroke-width="0.8"/><line x1="0" y1="96" x2="1200" y2="96" stroke="rgba(224,82,76,0.16)" stroke-width="0.8"/><line x1="0" y1="104" x2="1200" y2="104" stroke="rgba(224,82,76,0.16)" stroke-width="0.8"/><line x1="0" y1="112" x2="1200" y2="112" stroke="rgba(224,82,76,0.16)" stroke-width="0.8"/><line x1="0" y1="120" x2="1200" y2="120" stroke="rgba(224,82,76,0.34)" stroke-width="1.4"/><line x1="0" y1="128" x2="1200" y2="128" stroke="rgba(224,82,76,0.16)" stroke-width="0.8"/><line x1="0" y1="136" x2="1200" y2="136" stroke="rgba(224,82,76,0.16)" stroke-width="0.8"/><line x1="0" y1="144" x2="1200" y2="144" stroke="rgba(224,82,76,0.16)" stroke-width="0.8"/><line x1="0" y1="152" x2="1200" y2="152" stroke="rgba(224,82,76,0.16)" stroke-width="0.8"/><line x1="0" y1="160" x2="1200" y2="160" stroke="rgba(224,82,76,0.34)" stroke-width="1.4"/><line x1="0" y1="168" x2="1200" y2="168" stroke="rgba(224,82,76,0.16)" stroke-width="0.8"/><line x1="0" y1="176" x2="1200" y2="176" stroke="rgba(224,82,76,0.16)" stroke-width="0.8"/><line x1="0" y1="184" x2="1200" y2="184" stroke="rgba(224,82,76,0.16)" stroke-width="0.8"/><line x1="0" y1="192" x2="1200" y2="192" stroke="rgba(224,82,76,0.16)" stroke-width="0.8"/><line x1="0" y1="200" x2="1200" y2="200" stroke="rgba(224,82,76,0.34)" stroke-width="1.4"/><line x1="0" y1="208" x2="1200" y2="208" stroke="rgba(224,82,76,0.16)" stroke-width="0.8"/><line x1="0" y1="216" x2="1200" y2="216" stroke="rgba(224,82,76,0.16)" stroke-width="0.8"/><line x1="0" y1="224" x2="1200" y2="224" stroke="rgba(224,82,76,0.16)" stroke-width="0.8"/><line x1="0" y1="232" x2="1200" y2="232" stroke="rgba(224,82,76,0.16)" stroke-width="0.8"/><line x1="0" y1="240" x2="1200" y2="240" stroke="rgba(224,82,76,0.34)" stroke-width="1.4"/><line x1="0" y1="248" x2="1200" y2="248" stroke="rgba(224,82,76,0.16)" stroke-width="0.8"/><line x1="0" y1="256" x2="1200" y2="256" stroke="rgba(224,82,76,0.16)" stroke-width="0.8"/><path d="M 6 160 L 14 160 L 14 80 L 54 80 L 54 160" fill="none" stroke="#EEF1EE" stroke-width="2.6" stroke-linejoin="round"/><polyline points="0.0,156.7 0.8,156.5 1.6,156.4 2.4,156.4 3.2,156.4 4.0,156.4 4.8,156.6 5.6,156.7 6.4,156.8 7.2,156.9 8.0,157.0 8.8,157.1 9.6,157.2 10.4,157.2 11.2,157.3 12.0,157.3 12.8,157.4 13.6,157.5 14.4,157.6 15.2,157.9 16.0,158.1 16.8,158.5 17.6,158.9 18.4,159.4 19.2,160.0 20.0,160.7 20.8,161.4 21.6,162.1 22.4,162.9 23.2,163.6 24.0,164.3 24.8,164.9 25.6,165.5 26.4,165.9 27.2,166.1 28.0,166.3 28.8,166.2 29.6,166.0 30.4,165.6 31.2,165.1 32.0,164.5 32.8,163.7 33.6,162.8 34.4,161.9 35.2,160.9 36.0,160.0 36.8,159.1 37.6,158.3 38.4,157.8 39.2,157.6 40.0,157.7 40.8,158.0 41.6,157.5 42.4,154.8 43.2,148.0 44.0,135.7 44.8,118.0 45.6,97.5 46.4,79.1 47.2,68.4 48.0,69.5 48.8,82.3 49.6,102.9 50.4,125.5 51.2,145.0 52.0,159.0 52.8,167.2 53.6,170.7 54.4,171.0 55.2,169.4 56.0,167.1 56.8,164.7 57.6,162.6 58.4,161.2 59.2,160.2 60.0,159.6 60.8,159.3 61.6,159.1 62.4,159.0 63.2,159.1 64.0,159.1 64.8,159.3 65.6,159.4 66.4,159.6 67.2,159.7 68.0,159.9 68.8,160.0 69.6,160.0 70.4,160.0 71.2,159.9 72.0,159.7 72.8,159.4 73.6,159.1 74.4,158.7 75.2,158.2 76.0,157.7 76.8,157.2 77.6,156.7 78.4,156.1 79.2,155.6 80.0,155.2 80.8,154.8 81.6,154.5 82.4,154.3 83.2,154.1 84.0,154.0 84.8,154.0 85.6,154.0 86.4,154.1 87.2,154.1 88.0,154.1 88.8,154.1 89.6,153.9 90.4,153.7 91.2,153.4 92.0,152.9 92.8,152.3 93.6,151.5 94.4,150.6 95.2,149.6 96.0,148.5 96.8,147.3 97.6,146.0 98.4,144.6 99.2,143.3 100.0,142.1 100.8,140.9 101.6,139.8 102.4,138.8 103.2,138.0 104.0,137.4 104.8,137.0 105.6,136.9 106.4,136.9 107.2,137.1 108.0,137.5 108.8,138.1 109.6,138.9 110.4,139.8 111.2,140.8 112.0,141.8 112.8,142.9 113.6,144.1 114.4,145.2 115.2,146.3 116.0,147.4 116.8,148.4 117.6,149.4 118.4,150.4 119.2,151.2 120.0,152.1 120.8,152.9 121.6,153.7 122.4,154.4 123.2,155.2 124.0,155.9 124.8,156.7 125.6,157.4 126.4,158.1 127.2,158.9 128.0,159.6 128.8,160.3 129.6,160.9 130.4,161.5 131.2,162.0 132.0,162.4 132.8,162.8 133.6,163.1 134.4,163.5 135.2,164.0 136.0,164.4 136.8,164.0 137.6,161.3 138.4,154.6 139.2,142.4 140.0,124.5 140.8,103.0 141.6,82.6 142.4,69.2 143.2,67.1 144.0,77.2 144.8,96.0 145.6,117.9 146.4,137.7 147.2,152.3 148.0,161.4 148.8,165.7 149.6,166.8 150.4,166.0 151.2,164.4 152.0,162.8 152.8,161.6 153.6,160.9 154.4,160.7 155.2,160.8 156.0,161.1 156.8,161.4 157.6,161.6 158.4,161.7 159.2,161.8 160.0,161.7 160.8,161.4 161.6,161.1 162.4,160.7 163.2,160.2 164.0,159.6 164.8,159.0 165.6,158.5 166.4,157.9 167.2,157.4 168.0,157.0 168.8,156.6 169.6,156.3 170.4,156.1 171.2,155.9 172.0,155.8 172.8,155.8 173.6,155.7 174.4,155.7 175.2,155.7 176.0,155.7 176.8,155.6 177.6,155.5 178.4,155.3 179.2,155.0 180.0,154.6 180.8,154.2 181.6,153.7 182.4,153.1 183.2,152.5 184.0,151.9 184.8,151.2 185.6,150.5 186.4,149.9 187.2,149.3 188.0,148.8 188.8,148.3 189.6,147.9 190.4,147.5 191.2,147.2 192.0,147.0 192.8,146.9 193.6,146.7 194.4,146.6 195.2,146.5 196.0,146.4 196.8,146.3 197.6,146.1 198.4,145.8 199.2,145.5 200.0,145.1 200.8,144.6 201.6,144.1 202.4,143.6 203.2,143.0 204.0,142.4 204.8,141.8 205.6,141.3 206.4,140.9 207.2,140.6 208.0,140.4 208.8,140.4 209.6,140.6 210.4,141.1 211.2,142.1 212.0,143.4 212.8,144.8 213.6,145.0 214.4,142.6 215.2,135.6 216.0,122.9 216.8,105.2 217.6,85.8 218.4,69.9 219.2,63.1 220.0,68.4 220.8,84.7 221.6,107.1 222.4,129.9 223.2,148.6 224.0,161.5 224.8,168.8 225.6,171.7 226.4,171.8 227.2,170.2 228.0,168.0 228.8,165.9 229.6,164.2 230.4,163.0 231.2,162.3 232.0,161.9 232.8,161.6 233.6,161.5 234.4,161.5 235.2,161.4 236.0,161.4 236.8,161.4 237.6,161.3 238.4,161.3 239.2,161.1 240.0,161.0 240.8,160.8 241.6,160.4 242.4,160.1 243.2,159.6 244.0,159.1 244.8,158.5 245.6,157.8 246.4,157.1 247.2,156.4 248.0,155.6 248.8,154.9 249.6,154.2 250.4,153.6 251.2,153.0 252.0,152.5 252.8,152.2 253.6,151.9 254.4,151.7 255.2,151.5 256.0,151.5 256.8,151.5 257.6,151.5 258.4,151.6 259.2,151.6 260.0,151.6 260.8,151.6 261.6,151.4 262.4,151.1 263.2,150.8 264.0,150.3 264.8,149.6 265.6,148.9 266.4,148.0 267.2,147.1 268.0,146.1 268.8,145.0 269.6,144.0 270.4,143.0 271.2,142.0 272.0,141.1 272.8,140.4 273.6,139.8 274.4,139.3 275.2,139.1 276.0,139.0 276.8,139.2 277.6,139.5 278.4,140.0 279.2,140.7 280.0,141.6 280.8,142.5 281.6,143.5 282.4,144.6 283.2,145.7 284.0,146.9 284.8,148.0 285.6,149.0 286.4,150.0 287.2,150.9 288.0,151.7 288.8,152.4 289.6,153.1 290.4,153.7 291.2,154.2 292.0,154.6 292.8,155.0 293.6,155.3 294.4,155.7 295.2,156.0 296.0,156.3 296.8,156.6 297.6,156.9 298.4,157.2 299.2,157.5 300.0,157.8 300.8,158.1 301.6,158.3 302.4,158.5 303.2,158.6 304.0,158.6 304.8,158.6 305.6,158.5 306.4,158.2 307.2,157.9 308.0,157.5 308.8,157.1 309.6,156.5 310.4,156.0 311.2,155.5 312.0,155.0 312.8,154.5 313.6,154.1 314.4,153.8 315.2,153.7 316.0,153.6 316.8,153.8 317.6,154.0 318.4,154.5 319.2,155.1 320.0,155.8 320.8,156.7 321.6,157.6 322.4,158.6 323.2,159.6 324.0,160.7 324.8,161.7 325.6,162.6 326.4,163.4 327.2,164.1 328.0,164.7 328.8,165.1 329.6,165.4 330.4,165.5 331.2,165.4 332.0,165.2 332.8,164.9 333.6,164.4 334.4,163.9 335.2,163.3 336.0,162.7 336.8,162.1 337.6,161.5 338.4,161.0 339.2,160.5 340.0,160.2 340.8,160.0 341.6,160.0 342.4,160.4 343.2,161.0 344.0,161.3 344.8,160.0 345.6,155.5 346.4,146.0 347.2,130.6 348.0,110.7 348.8,90.1 349.6,74.5 350.4,68.9 351.2,75.7 352.0,92.5 352.8,114.2 353.6,135.2 354.4,151.6 355.2,162.2 356.0,167.5 356.8,169.0 357.6,168.1 358.4,166.1 359.2,163.8 360.0,161.8 360.8,160.4 361.6,159.6 362.4,159.3 363.2,159.3 364.0,159.5 364.8,159.8 365.6,160.2 366.4,160.5 367.2,160.7 368.0,160.9 368.8,161.0 369.6,161.0 370.4,160.9 371.2,160.7 372.0,160.3 372.8,159.9 373.6,159.3 374.4,158.7 375.2,158.0 376.0,157.3 376.8,156.5 377.6,155.8 378.4,155.2 379.2,154.6 380.0,154.1 380.8,153.7 381.6,153.4 382.4,153.2 383.2,153.2 384.0,153.3 384.8,153.4 385.6,153.7 386.4,154.0 387.2,154.3 388.0,154.6 388.8,154.9 389.6,155.1 390.4,155.2 391.2,155.2 392.0,155.1 392.8,154.8 393.6,154.4 394.4,153.9 395.2,153.2 396.0,152.4 396.8,151.4 397.6,150.4 398.4,149.3 399.2,148.2 400.0,147.1 400.8,146.0 401.6,144.9 402.4,144.0 403.2,143.1 404.0,142.3 404.8,141.7 405.6,141.2 406.4,140.8 407.2,140.6 408.0,140.5 408.8,140.5 409.6,140.9 410.4,141.6 411.2,142.4 412.0,142.8 412.8,141.5 413.6,136.7 414.4,126.7 415.2,110.9 416.0,91.0 416.8,71.0 417.6,56.8 418.4,53.2 419.2,62.0 420.0,80.5 420.8,103.2 421.6,124.7 422.4,141.5 423.2,152.5 424.0,158.6 424.8,161.0 425.6,161.2 426.4,160.5 427.2,159.5 428.0,158.8 428.8,158.6 429.6,159.0 430.4,159.6 431.2,160.5 432.0,161.3 432.8,162.1 433.6,162.8 434.4,163.3 435.2,163.6 436.0,163.7 436.8,163.6 437.6,163.3 438.4,162.9 439.2,162.3 440.0,161.6 440.8,160.8 441.6,160.0 442.4,159.1 443.2,158.3 444.0,157.5 444.8,156.8 445.6,156.1 446.4,155.5 447.2,155.1 448.0,154.7 448.8,154.4 449.6,154.3 450.4,154.1 451.2,154.1 452.0,154.0 452.8,154.0 453.6,153.9 454.4,153.9 455.2,153.7 456.0,153.5 456.8,153.1 457.6,152.7 458.4,152.2 459.2,151.6 460.0,150.9 460.8,150.1 461.6,149.3 462.4,148.4 463.2,147.5 464.0,146.7 464.8,145.8 465.6,145.0 466.4,144.3 467.2,143.7 468.0,143.1 468.8,142.7 469.6,142.3 470.4,142.1 471.2,141.9 472.0,141.9 472.8,141.9 473.6,141.9 474.4,142.0 475.2,142.1 476.0,142.2 476.8,142.4 477.6,142.5 478.4,142.6 479.2,142.7 480.0,142.9 480.8,143.0 481.6,143.2 482.4,143.4 483.2,143.6 484.0,144.0 484.8,144.4 485.6,145.0 486.4,145.6 487.2,146.4 488.0,147.3 488.8,148.3 489.6,149.5 490.4,150.7 491.2,152.0 492.0,153.3 492.8,154.7 493.6,156.1 494.4,157.4 495.2,158.6 496.0,159.8 496.8,160.8 497.6,161.6 498.4,162.2 499.2,162.7 500.0,163.0 500.8,163.0 501.6,162.9 502.4,162.6 503.2,162.1 504.0,161.5 504.8,160.9 505.6,160.1 506.4,159.3 507.2,158.5 508.0,157.7 508.8,157.0 509.6,156.4 510.4,155.8 511.2,155.4 512.0,155.1 512.8,154.9 513.6,154.9 514.4,154.9 515.2,155.0 516.0,155.3 516.8,155.5 517.6,155.9 518.4,156.2 519.2,156.6 520.0,156.9 520.8,157.2 521.6,157.5 522.4,157.8 523.2,158.0 524.0,158.2 524.8,158.4 525.6,158.6 526.4,158.8 527.2,159.1 528.0,159.6 528.8,160.4 529.6,161.3 530.4,161.9 531.2,160.9 532.0,156.6 532.8,147.1 533.6,131.9 534.4,112.3 535.2,92.3 536.0,77.5 536.8,73.1 537.6,80.8 538.4,98.5 539.2,120.6 540.0,141.7 540.8,158.0 541.6,168.4 542.4,173.4 543.2,174.5 544.0,173.1 544.8,170.5 545.6,167.5 546.4,164.7 547.2,162.4 548.0,160.6 548.8,159.3 549.6,158.4 550.4,157.7 551.2,157.2 552.0,156.8 552.8,156.6 553.6,156.5 554.4,156.6 555.2,156.8 556.0,157.1 556.8,157.5 557.6,158.0 558.4,158.5 559.2,159.0 560.0,159.4 560.8,159.8 561.6,160.1 562.4,160.4 563.2,160.4 564.0,160.4 564.8,160.2 565.6,159.8 566.4,159.4 567.2,158.7 568.0,158.0 568.8,157.2 569.6,156.3 570.4,155.3 571.2,154.3 572.0,153.4 572.8,152.4 573.6,151.5 574.4,150.7 575.2,149.9 576.0,149.2 576.8,148.5 577.6,148.0 578.4,147.5 579.2,147.1 580.0,146.7 580.8,146.3 581.6,146.0 582.4,145.7 583.2,145.4 584.0,145.1 584.8,144.8 585.6,144.4 586.4,144.1 587.2,143.8 588.0,143.5 588.8,143.2 589.6,142.9 590.4,142.8 591.2,142.7 592.0,142.7 592.8,142.8 593.6,143.0 594.4,143.3 595.2,143.8 596.0,144.4 596.8,145.1 597.6,145.9 598.4,146.7 599.2,147.6 600.0,148.6 600.8,149.5 601.6,150.4 602.4,151.2 603.2,151.9 604.0,152.5 604.8,153.0 605.6,153.4 606.4,153.6 607.2,153.6 608.0,153.6 608.8,153.4 609.6,153.0 610.4,152.6 611.2,152.2 612.0,151.7 612.8,151.3 613.6,150.8 614.4,150.5 615.2,150.2 616.0,150.1 616.8,150.1 617.6,150.2 618.4,150.5 619.2,150.9 620.0,151.4 620.8,152.1 621.6,152.9 622.4,153.7 623.2,154.6 624.0,155.5 624.8,156.4 625.6,157.3 626.4,158.2 627.2,159.1 628.0,160.1 628.8,161.2 629.6,162.4 630.4,162.9 631.2,161.4 632.0,156.2 632.8,145.7 633.6,129.3 634.4,108.9 635.2,88.7 636.0,74.5 636.8,71.3 637.6,80.2 638.4,98.5 639.2,120.7 640.0,141.3 640.8,157.1 641.6,167.0 642.4,171.9 643.2,173.1 644.0,172.2 644.8,170.2 645.6,167.9 646.4,165.9 647.2,164.3 648.0,163.2 648.8,162.4 649.6,161.8 650.4,161.3 651.2,160.7 652.0,160.2 652.8,159.6 653.6,159.1 654.4,158.6 655.2,158.0 656.0,157.6 656.8,157.2 657.6,156.9 658.4,156.8 659.2,156.7 660.0,156.7 660.8,156.8 661.6,157.0 662.4,157.3 663.2,157.6 664.0,158.0 664.8,158.3 665.6,158.6 666.4,158.8 667.2,159.0 668.0,159.0 668.8,158.8 669.6,158.6 670.4,158.1 671.2,157.5 672.0,156.7 672.8,155.8 673.6,154.7 674.4,153.6 675.2,152.3 676.0,151.0 676.8,149.7 677.6,148.4 678.4,147.2 679.2,146.0 680.0,144.9 680.8,144.0 681.6,143.2 682.4,142.5 683.2,142.0 684.0,141.7 684.8,141.5 685.6,141.5 686.4,141.5 687.2,141.7 688.0,142.0 688.8,142.3 689.6,142.7 690.4,143.1 691.2,143.5 692.0,143.9 692.8,144.3 693.6,144.9 694.4,145.6 695.2,146.5 696.0,147.5 696.8,147.8 697.6,146.2 698.4,140.8 699.2,130.0 700.0,113.5 700.8,93.3 701.6,74.0 702.4,61.3 703.2,59.7 704.0,70.3 704.8,89.9 705.6,112.8 706.4,133.6 707.2,149.3 708.0,159.2 708.8,164.1 709.6,165.4 710.4,164.6 711.2,162.6 712.0,160.5 712.8,158.5 713.6,157.0 714.4,155.9 715.2,155.0 716.0,154.4 716.8,153.8 717.6,153.3 718.4,152.8 719.2,152.3 720.0,152.0 720.8,151.7 721.6,151.5 722.4,151.4 723.2,151.5 724.0,151.7 724.8,152.1 725.6,152.6 726.4,153.2 727.2,153.9 728.0,154.7 728.8,155.5 729.6,156.3 730.4,157.1 731.2,157.8 732.0,158.4 732.8,159.0 733.6,159.4 734.4,159.6 735.2,159.6 736.0,159.5 736.8,159.3 737.6,158.8 738.4,158.2 739.2,157.5 740.0,156.7 740.8,155.7 741.6,154.8 742.4,153.8 743.2,152.8 744.0,151.8 744.8,150.8 745.6,149.9 746.4,149.1 747.2,148.4 748.0,147.7 748.8,147.1 749.6,146.6 750.4,146.1 751.2,145.7 752.0,145.4 752.8,145.0 753.6,144.7 754.4,144.4 755.2,144.1 756.0,143.8 756.8,143.5 757.6,143.2 758.4,142.9 759.2,142.6 760.0,142.4 760.8,142.2 761.6,142.1 762.4,142.1 763.2,142.2 764.0,142.4 764.8,142.7 765.6,143.1 766.4,143.6 767.2,144.3 768.0,145.0 768.8,145.8 769.6,146.7 770.4,147.7 771.2,148.6 772.0,149.5 772.8,150.4 773.6,151.2 774.4,152.0 775.2,152.6 776.0,153.1 776.8,153.5 777.6,153.7 778.4,153.9 779.2,153.9 780.0,153.8 780.8,153.6 781.6,153.4 782.4,153.2 783.2,152.9 784.0,152.7 784.8,152.6 785.6,152.6 786.4,152.6 787.2,152.8 788.0,153.1 788.8,153.6 789.6,154.2 790.4,154.9 791.2,155.8 792.0,156.7 792.8,157.7 793.6,158.7 794.4,159.7 795.2,160.7 796.0,161.7 796.8,162.6 797.6,163.3 798.4,164.0 799.2,164.5 800.0,164.9 800.8,165.1 801.6,165.2 802.4,165.2 803.2,165.0 804.0,164.7 804.8,164.4 805.6,164.0 806.4,163.6 807.2,163.1 808.0,162.7 808.8,162.4 809.6,162.3 810.4,162.5 811.2,162.8 812.0,162.7 812.8,161.0 813.6,155.8 814.4,145.6 815.2,129.5 816.0,109.1 816.8,88.4 817.6,73.1 818.4,68.2 819.2,75.6 820.0,92.8 820.8,114.4 821.6,134.9 822.4,150.6 823.2,160.6 824.0,165.4 824.8,166.4 825.6,165.2 826.4,162.9 827.2,160.5 828.0,158.5 828.8,157.0 829.6,156.3 830.4,156.1 831.2,156.2 832.0,156.7 832.8,157.3 833.6,158.1 834.4,158.9 835.2,159.7 836.0,160.5 836.8,161.3 837.6,162.0 838.4,162.6 839.2,163.1 840.0,163.5 840.8,163.6 841.6,163.6 842.4,163.5 843.2,163.1 844.0,162.6 844.8,162.0 845.6,161.3 846.4,160.4 847.2,159.5 848.0,158.6 848.8,157.6 849.6,156.7 850.4,155.8 851.2,155.0 852.0,154.3 852.8,153.6 853.6,153.1 854.4,152.6 855.2,152.2 856.0,151.9 856.8,151.6 857.6,151.4 858.4,151.2 859.2,151.0 860.0,150.8 860.8,150.6 861.6,150.2 862.4,149.9 863.2,149.4 864.0,148.9 864.8,148.3 865.6,147.7 866.4,147.0 867.2,146.3 868.0,145.5 868.8,144.8 869.6,144.1 870.4,143.5 871.2,143.0 872.0,142.5 872.8,142.3 873.6,142.3 874.4,142.7 875.2,143.3 876.0,143.7 876.8,142.7 877.6,138.5 878.4,129.4 879.2,114.5 880.0,95.0 880.8,74.7 881.6,59.1 882.4,53.6 883.2,60.3 884.0,77.3 884.8,99.4 885.6,120.9 886.4,137.9 887.2,149.2 888.0,155.1 888.8,157.2 889.6,156.8 890.4,155.2 891.2,153.3 892.0,151.8 892.8,150.9 893.6,150.6 894.4,150.9 895.2,151.6 896.0,152.5 896.8,153.7 897.6,154.9 898.4,156.2 899.2,157.5 900.0,158.7 900.8,160.0 901.6,161.1 902.4,162.1 903.2,162.9 904.0,163.6 904.8,164.1 905.6,164.4 906.4,164.5 907.2,164.3 908.0,164.0 908.8,163.5 909.6,162.8 910.4,161.9 911.2,161.0 912.0,160.0 912.8,158.9 913.6,157.7 914.4,156.6 915.2,155.5 916.0,154.5 916.8,153.5 917.6,152.5 918.4,151.7 919.2,150.9 920.0,150.2 920.8,149.5 921.6,148.9 922.4,148.3 923.2,147.8 924.0,147.3 924.8,146.7 925.6,146.2 926.4,145.6 927.2,145.1 928.0,144.5 928.8,143.9 929.6,143.3 930.4,142.8 931.2,142.3 932.0,141.8 932.8,141.4 933.6,141.1 934.4,140.8 935.2,140.7 936.0,140.8 936.8,140.9 937.6,141.2 938.4,141.6 939.2,142.1 940.0,142.8 940.8,143.5 941.6,144.3 942.4,145.1 943.2,145.9 944.0,146.7 944.8,147.5 945.6,148.2 946.4,148.8 947.2,149.3 948.0,149.8 948.8,150.1 949.6,150.4 950.4,150.5 951.2,150.6 952.0,150.6 952.8,150.6 953.6,150.5 954.4,150.5 955.2,150.5 956.0,150.6 956.8,150.8 957.6,151.1 958.4,151.4 959.2,151.9 960.0,152.5 960.8,153.2 961.6,154.0 962.4,154.9 963.2,155.8 964.0,156.7 964.8,157.7 965.6,158.6 966.4,159.4 967.2,160.2 968.0,160.9 968.8,161.4 969.6,161.8 970.4,162.0 971.2,162.1 972.0,162.1 972.8,161.9 973.6,161.6 974.4,161.2 975.2,160.8 976.0,160.3 976.8,159.7 977.6,159.2 978.4,158.7 979.2,158.3 980.0,158.0 980.8,157.9 981.6,158.1 982.4,158.6 983.2,158.9 984.0,158.0 984.8,154.1 985.6,145.5 986.4,131.2 987.2,112.0 988.0,91.2 988.8,74.4 989.6,67.1 990.4,71.9 991.2,87.6 992.0,109.1 992.8,130.7 993.6,148.3 994.4,160.1 995.2,166.4 996.0,168.7 996.8,168.4 997.6,166.6 998.4,164.5 999.2,162.7 1000.0,161.4 1000.8,160.8 1001.6,160.6 1002.4,160.9 1003.2,161.4 1004.0,162.0 1004.8,162.7 1005.6,163.4 1006.4,164.0 1007.2,164.6 1008.0,165.2 1008.8,165.5 1009.6,165.8 1010.4,165.9 1011.2,165.8 1012.0,165.5 1012.8,165.1 1013.6,164.4 1014.4,163.6 1015.2,162.7 1016.0,161.6 1016.8,160.4 1017.6,159.2 1018.4,157.9 1019.2,156.7 1020.0,155.4 1020.8,154.2 1021.6,153.1 1022.4,152.1 1023.2,151.2 1024.0,150.4 1024.8,149.8 1025.6,149.3 1026.4,148.9 1027.2,148.6 1028.0,148.3 1028.8,148.2 1029.6,148.1 1030.4,148.0 1031.2,147.9 1032.0,147.8 1032.8,147.6 1033.6,147.4 1034.4,147.1 1035.2,146.8 1036.0,146.4 1036.8,146.0 1037.6,145.5 1038.4,145.1 1039.2,144.6 1040.0,144.1 1040.8,143.7 1041.6,143.4 1042.4,143.1 1043.2,142.9 1044.0,142.8 1044.8,142.8 1045.6,142.9 1046.4,143.1 1047.2,143.5 1048.0,144.0 1048.8,144.8 1049.6,145.9 1050.4,147.0 1051.2,147.5 1052.0,146.0 1052.8,140.5 1053.6,129.5 1054.4,112.9 1055.2,92.5 1056.0,73.1 1056.8,60.3 1057.6,58.7 1058.4,69.2 1059.2,88.5 1060.0,110.9 1060.8,131.1 1061.6,146.3 1062.4,155.7 1063.2,160.3 1064.0,161.6 1064.8,160.9 1065.6,159.5 1066.4,158.0 1067.2,156.9 1068.0,156.4 1068.8,156.5 1069.6,157.0 1070.4,157.7 1071.2,158.5 1072.0,159.3 1072.8,160.1 1073.6,160.7 1074.4,161.2 1075.2,161.6 1076.0,161.7 1076.8,161.7 1077.6,161.5 1078.4,161.2 1079.2,160.6 1080.0,160.0 1080.8,159.2 1081.6,158.4 1082.4,157.5 1083.2,156.6 1084.0,155.6 1084.8,154.7 1085.6,153.9 1086.4,153.2 1087.2,152.5 1088.0,151.9 1088.8,151.5 1089.6,151.1 1090.4,150.9 1091.2,150.7 1092.0,150.7 1092.8,150.6 1093.6,150.6 1094.4,150.7 1095.2,150.7 1096.0,150.7 1096.8,150.6 1097.6,150.5 1098.4,150.3 1099.2,150.1 1100.0,149.8 1100.8,149.5 1101.6,149.1 1102.4,148.7 1103.2,148.3 1104.0,147.9 1104.8,147.5 1105.6,147.2 1106.4,146.9 1107.2,146.7 1108.0,146.5 1108.8,146.4 1109.6,146.4 1110.4,146.5 1111.2,146.6 1112.0,146.7 1112.8,146.9 1113.6,147.0 1114.4,147.2 1115.2,147.3 1116.0,147.4 1116.8,147.5 1117.6,147.6 1118.4,147.7 1119.2,148.0 1120.0,148.5 1120.8,148.5 1121.6,147.0 1122.4,142.3 1123.2,132.7 1124.0,117.3 1124.8,97.3 1125.6,76.3 1126.4,60.0 1127.2,53.7 1128.0,59.9 1128.8,76.7 1129.6,98.8 1130.4,120.8 1131.2,138.5 1132.0,150.6 1132.8,157.5 1133.6,160.5 1134.4,161.0 1135.2,160.3 1136.0,159.2 1136.8,158.3 1137.6,157.9 1138.4,157.9 1139.2,158.2 1140.0,158.7 1140.8,159.2 1141.6,159.7 1142.4,160.0 1143.2,160.3 1144.0,160.3 1144.8,160.3 1145.6,160.2 1146.4,160.0 1147.2,159.7 1148.0,159.4 1148.8,159.1 1149.6,158.8 1150.4,158.5 1151.2,158.3 1152.0,158.1 1152.8,157.9 1153.6,157.8 1154.4,157.7 1155.2,157.7 1156.0,157.6 1156.8,157.6 1157.6,157.5 1158.4,157.4 1159.2,157.3 1160.0,157.1 1160.8,156.8 1161.6,156.4 1162.4,156.0 1163.2,155.4 1164.0,154.8 1164.8,154.1 1165.6,153.4 1166.4,152.6 1167.2,151.8 1168.0,151.1 1168.8,150.3 1169.6,149.6 1170.4,148.9 1171.2,148.4 1172.0,147.9 1172.8,147.4 1173.6,147.1 1174.4,146.8 1175.2,146.6 1176.0,146.4 1176.8,146.3 1177.6,146.2 1178.4,146.1 1179.2,146.0 1180.0,145.8 1180.8,145.5 1181.6,145.3 1182.4,144.9 1183.2,144.5 1184.0,144.0 1184.8,143.4 1185.6,142.8 1186.4,142.2 1187.2,141.6 1188.0,141.1 1188.8,140.6 1189.6,140.2 1190.4,139.9 1191.2,139.8 1192.0,139.8 1192.8,140.0 1193.6,140.4 1194.4,141.0 1195.2,141.7 1196.0,142.7 1196.8,143.8 1197.6,145.1 1198.4,146.4 1199.2,147.9 1200.0,149.3" fill="none" stroke="#EEF1EE" stroke-width="2.6" stroke-linejoin="round" stroke-linecap="round"/><text x="10" y="246" fill="rgba(169,180,188,0.55)" font-family="IBM Plex Mono, ui-monospace, monospace" font-size="15">25 mm/s &#183; 10 mm/mV &#183; 6 sec</text></svg>