<svg xmlns="http://www.w3.org/2000/svg" viewBox="0 0 1200 256" width="100%" role="img" aria-label="Third-degree AV block"><rect width="1200" height="256" fill="#0E1216"/><line x1="0" y1="0" x2="0" y2="256" stroke="rgba(224,82,76,0.34)" stroke-width="1.4"/><line x1="8" y1="0" x2="8" y2="256" stroke="rgba(224,82,76,0.16)" stroke-width="0.8"/><line x1="16" y1="0" x2="16" y2="256" stroke="rgba(224,82,76,0.16)" stroke-width="0.8"/><line x1="24" y1="0" x2="24" y2="256" stroke="rgba(224,82,76,0.16)" stroke-width="0.8"/><line x1="32" y1="0" x2="32" y2="256" stroke="rgba(224,82,76,0.16)" stroke-width="0.8"/><line x1="40" y1="0" x2="40" y2="256" stroke="rgba(224,82,76,0.34)" stroke-width="1.4"/><line x1="48" y1="0" x2="48" y2="256" stroke="rgba(224,82,76,0.16)" stroke-width="0.8"/><line x1="56" y1="0" x2="56" y2="256" stroke="rgba(224,82,76,0.16)" stroke-width="0.8"/><line x1="64" y1="0" x2="64" y2="256" stroke="rgba(224,82,76,0.16)" stroke-width="0.8"/><line x1="72" y1="0" x2="72" y2="256" stroke="rgba(224,82,76,0.16)" stroke-width="0.8"/><line x1="80" y1="0" x2="80" y2="256" stroke="rgba(224,82,76,0.34)" stroke-width="1.4"/><line x1="88" y1="0" x2="88" y2="256" stroke="rgba(224,82,76,0.16)" stroke-width="0.8"/><line x1="96" y1="0" x2="96" y2="256" stroke="rgba(224,82,76,0.16)" stroke-width="0.8"/><line x1="104" y1="0" x2="104" y2="256" stroke="rgba(224,82,76,0.16)" stroke-width="0.8"/><line x1="112" y1="0" x2="112" y2="256" stroke="rgba(224,82,76,0.16)" stroke-width="0.8"/><line x1="120" y1="0" x2="120" y2="256" stroke="rgba(224,82,76,0.34)" stroke-width="1.4"/><line x1="128" y1="0" x2="128" y2="256" stroke="rgba(224,82,76,0.16)" stroke-width="0.8"/><line x1="136" y1="0" x2="136" y2="256" stroke="rgba(224,82,76,0.16)" stroke-width="0.8"/><line x1="144" y1="0" x2="144" y2="256" stroke="rgba(224,82,76,0.16)" stroke-width="0.8"/><line x1="152" y1="0" x2="152" y2="256" stroke="rgba(224,82,76,0.16)" stroke-width="0.8"/><line x1="160" y1="0" x2="160" y2="256" stroke="rgba(224,82,76,0.34)" stroke-width="1.4"/><line x1="168" y1="0" x2="168" y2="256" stroke="rgba(224,82,76,0.16)" stroke-width="0.8"/><line x1="176" y1="0" x2="176" y2="256" stroke="rgba(224,82,76,0.16)" stroke-width="0.8"/><line x1="184" y1="0" x2="184" y2="256" stroke="rgba(224,82,76,0.16)" stroke-width="0.8"/><line x1="192" y1="0" x2="192" y2="256" stroke="rgba(224,82,76,0.16)" stroke-width="0.8"/><line x1="200" y1="0" x2="200" y2="256" stroke="rgba(224,82,76,0.34)" stroke-width="1.4"/><line x1="208" y1="0" x2="208" y2="256" stroke="rgba(224,82,76,0.16)" stroke-width="0.8"/><line x1="216" y1="0" x2="216" y2="256" stroke="rgba(224,82,76,0.16)" stroke-width="0.8"/><line x1="224" y1="0" x2="224" y2="256" stroke="rgba(224,82,76,0.16)" stroke-width="0.8"/><line x1="232" y1="0" x2="232" y2="256" stroke="rgba(224,82,76,0.16)" stroke-width="0.8"/><line x1="240" y1="0" x2="240" y2="256" stroke="rgba(224,82,76,0.34)" stroke-width="1.4"/><line x1="248" y1="0" x2="248" y2="256" stroke="rgba(224,82,76,0.16)" stroke-width="0.8"/><line x1="256" y1="0" x2="256" y2="256" stroke="rgba(224,82,76,0.16)" stroke-width="0.8"/><line x1="264" y1="0" x2="264" y2="256" stroke="rgba(224,82,76,0.16)" stroke-width="0.8"/><line x1="272" y1="0" x2="272" y2="256" stroke="rgba(224,82,76,0.16)" stroke-width="0.8"/><line x1="280" y1="0" x2="280" y2="256" stroke="rgba(224,82,76,0.34)" stroke-width="1.4"/><line x1="288" y1="0" x2="288" y2="256" stroke="rgba(224,82,76,0.16)" stroke-width="0.8"/><line x1="296" y1="0" x2="296" y2="256" stroke="rgba(224,82,76,0.16)" stroke-width="0.8"/><line x1="304" y1="0" x2="304" y2="256" stroke="rgba(224,82,76,0.16)" stroke-width="0.8"/><line x1="312" y1="0" x2="312" y2="256" stroke="rgba(224,82,76,0.16)" stroke-width="0.8"/><line x1="320" y1="0" x2="320" y2="256" stroke="rgba(224,82,76,0.34)" stroke-width="1.4"/><line x1="328" y1="0" x2="328" y2="256" stroke="rgba(224,82,76,0.16)" stroke-width="0.8"/><line x1="336" y1="0" x2="336" y2="256" stroke="rgba(224,82,76,0.16)" stroke-width="0.8"/><line x1="344" y1="0" x2="344" y2="256" stroke="rgba(224,82,76,0.16)" stroke-width="0.8"/><line x1="352" y1="0" x2="352" y2="256" stroke="rgba(224,82,76,0.16)" stroke-width="0.8"/><line x1="360" y1="0" x2="360" y2="256" stroke="rgba(224,82,76,0.34)" stroke-width="1.4"/><line x1="368" y1="0" x2="368" y2="256" stroke="rgba(224,82,76,0.16)" stroke-width="0.8"/><line x1="376" y1="0" x2="376" y2="256" stroke="rgba(224,82,76,0.16)" stroke-width="0.8"/><line x1="384" y1="0" x2="384" y2="256" stroke="rgba(224,82,76,0.16)" stroke-width="0.8"/><line x1="392" y1="0" x2="392" y2="256" stroke="rgba(224,82,76,0.16)" stroke-width="0.8"/><line x1="400" y1="0" x2="400" y2="256" stroke="rgba(224,82,76,0.34)" stroke-width="1.4"/><line x1="408" y1="0" x2="408" y2="256" stroke="rgba(224,82,76,0.16)" stroke-width="0.8"/><line x1="416" y1="0" x2="416" y2="256" stroke="rgba(224,82,76,0.16)" stroke-width="0.8"/><line x1="424" y1="0" x2="424" y2="256" stroke="rgba(224,82,76,0.16)" stroke-width="0.8"/><line x1="432" y1="0" x2="432" y2="256" stroke="rgba(224,82,76,0.16)" stroke-width="0.8"/><line x1="440" y1="0" x2="440" y2="256" stroke="rgba(224,82,76,0.34)" stroke-width="1.4"/><line x1="448" y1="0" x2="448" y2="256" stroke="rgba(224,82,76,0.16)" stroke-width="0.8"/><line x1="456" y1="0" x2="456" y2="256" stroke="rgba(224,82,76,0.16)" stroke-width="0.8"/><line x1="464" y1="0" x2="464" y2="256" stroke="rgba(224,82,76,0.16)" stroke-width="0.8"/><line x1="472" y1="0" x2="472" y2="256" stroke="rgba(224,82,76,0.16)" stroke-width="0.8"/><line x1="480" y1="0" x2="480" y2="256" stroke="rgba(224,82,76,0.34)" stroke-width="1.4"/><line x1="488" y1="0" x2="488" y2="256" stroke="rgba(224,82,76,0.16)" stroke-width="0.8"/><line x1="496" y1="0" x2="496" y2="256" stroke="rgba(224,82,76,0.16)" stroke-width="0.8"/><line x1="504" y1="0" x2="504" y2="256" stroke="rgba(224,82,76,0.16)" stroke-width="0.8"/><line x1="512" y1="0" x2="512" y2="256" stroke="rgba(224,82,76,0.16)" stroke-width="0.8"/><line x1="520" y1="0" x2="520" y2="256" stroke="rgba(224,82,76,0.34)" stroke-width="1.4"/><line x1="528" y1="0" x2="528" y2="256" stroke="rgba(224,82,76,0.16)" stroke-width="0.8"/><line x1="536" y1="0" x2="536" y2="256" stroke="rgba(224,82,76,0.16)" stroke-width="0.8"/><line x1="544" y1="0" x2="544" y2="256" stroke="rgba(224,82,76,0.16)" stroke-width="0.8"/><line x1="552" y1="0" x2="552" y2="256" stroke="rgba(224,82,76,0.16)" stroke-width="0.8"/><line x1="560" y1="0" x2="560" y2="256" stroke="rgba(224,82,76,0.34)" stroke-width="1.4"/><line x1="568" y1="0" x2="568" y2="256" stroke="rgba(224,82,76,0.16)" stroke-width="0.8"/><line x1="576" y1="0" x2="576" y2="256" stroke="rgba(224,82,76,0.16)" stroke-width="0.8"/><line x1="584" y1="0" x2="584" y2="256" stroke="rgba(224,82,76,0.16)" stroke-width="0.8"/><line x1="592" y1="0" x2="592" y2="256" stroke="rgba(224,82,76,0.16)" stroke-width="0.8"/><line x1="600" y1="0" x2="600" y2="256" stroke="rgba(224,82,76,0.34)" stroke-width="1.4"/><line x1="608" y1="0" x2="608" y2="256" stroke="rgba(224,82,76,0.16)" stroke-width="0.8"/><line x1="616" y1="0" x2="616" y2="256" stroke="rgba(224,82,76,0.16)" stroke-width="0.8"/><line x1="624" y1="0" x2="624" y2="256" stroke="rgba(224,82,76,0.16)" stroke-width="0.8"/><line x1="632" y1="0" x2="632" y2="256" stroke="rgba(224,82,76,0.16)" stroke-width="0.8"/><line x1="640" y1="0" x2="640" y2="256" stroke="rgba(224,82,76,0.34)" stroke-width="1.4"/><line x1="648" y1="0" x2="648" y2="256" stroke="rgba(224,82,76,0.16)" stroke-width="0.8"/><line x1="656" y1="0" x2="656" y2="256" stroke="rgba(224,82,76,0.16)" stroke-width="0.8"/><line x1="664" y1="0" x2="664" y2="256" stroke="rgba(224,82,76,0.16)" stroke-width="0.8"/><line x1="672" y1="0" x2="672" y2="256" stroke="rgba(224,82,76,0.16)" stroke-width="0.8"/><line x1="680" y1="0" x2="680" y2="256" stroke="rgba(224,82,76,0.34)" stroke-width="1.4"/><line x1="688" y1="0" x2="688" y2="256" stroke="rgba(224,82,76,0.16)" stroke-width="0.8"/><line x1="696" y1="0" x2="696" y2="256" stroke="rgba(224,82,76,0.16)" stroke-width="0.8"/><line x1="704" y1="0" x2="704" y2="256" stroke="rgba(224,82,76,0.16)" stroke-width="0.8"/><line x1="712" y1="0" x2="712" y2="256" stroke="rgba(224,82,76,0.16)" stroke-width="0.8"/><line x1="720" y1="0" x2="720" y2="256" stroke="rgba(224,82,76,0.34)" stroke-width="1.4"/><line x1="728" y1="0" x2="728" y2="256" stroke="rgba(224,82,76,0.16)" stroke-width="0.8"/><line x1="736" y1="0" x2="736" y2="256" stroke="rgba(224,82,76,0.16)" stroke-width="0.8"/><line x1="744" y1="0" x2="744" y2="256" stroke="rgba(224,82,76,0.16)" stroke-width="0.8"/><line x1="752" y1="0" x2="752" y2="256" stroke="rgba(224,82,76,0.16)" stroke-width="0.8"/><line x1="760" y1="0" x2="760" y2="256" stroke="rgba(224,82,76,0.34)" stroke-width="1.4"/><line x1="768" y1="0" x2="768" y2="256" stroke="rgba(224,82,76,0.16)" stroke-width="0.8"/><line x1="776" y1="0" x2="776" y2="256" stroke="rgba(224,82,76,0.16)" stroke-width="0.8"/><line x1="784" y1="0" x2="784" y2="256" stroke="rgba(224,82,76,0.16)" stroke-width="0.8"/><line x1="792" y1="0" x2="792" y2="256" stroke="rgba(224,82,76,0.16)" stroke-width="0.8"/><line x1="800" y1="0" x2="800" y2="256" stroke="rgba(224,82,76,0.34)" stroke-width="1.4"/><line x1="808" y1="0" x2="808" y2="256" stroke="rgba(224,82,76,0.16)" stroke-width="0.8"/><line x1="816" y1="0" x2="816" y2="256" stroke="rgba(224,82,76,0.16)" stroke-width="0.8"/><line x1="824" y1="0" x2="824" y2="256" stroke="rgba(224,82,76,0.16)" stroke-width="0.8"/><line x1="832" y1="0" x2="832" y2="256" stroke="rgba(224,82,76,0.16)" stroke-width="0.8"/><line x1="840" y1="0" x2="840" y2="256" stroke="rgba(224,82,76,0.34)" stroke-width="1.4"/><line x1="848" y1="0" x2="848" y2="256" stroke="rgba(224,82,76,0.16)" stroke-width="0.8"/><line x1="856" y1="0" x2="856" y2="256" stroke="rgba(224,82,76,0.16)" stroke-width="0.8"/><line x1="864" y1="0" x2="864" y2="256" stroke="rgba(224,82,76,0.16)" stroke-width="0.8"/><line x1="872" y1="0" x2="872" y2="256" stroke="rgba(224,82,76,0.16)" stroke-width="0.8"/><line x1="880" y1="0" x2="880" y2="256" stroke="rgba(224,82,76,0.34)" stroke-width="1.4"/><line x1="888" y1="0" x2="888" y2="256" stroke="rgba(224,82,76,0.16)" stroke-width="0.8"/><line x1="896" y1="0" x2="896" y2="256" stroke="rgba(224,82,76,0.16)" stroke-width="0.8"/><line x1="904" y1="0" x2="904" y2="256" stroke="rgba(224,82,76,0.16)" stroke-width="0.8"/><line x1="912" y1="0" x2="912" y2="256" stroke="rgba(224,82,76,0.16)" stroke-width="0.8"/><line x1="920" y1="0" x2="920" y2="256" stroke="rgba(224,82,76,0.34)" stroke-width="1.4"/><line x1="928" y1="0" x2="928" y2="256" stroke="rgba(224,82,76,0.16)" stroke-width="0.8"/><line x1="936" y1="0" x2="936" y2="256" stroke="rgba(224,82,76,0.16)" stroke-width="0.8"/><line x1="944" y1="0" x2="944" y2="256" stroke="rgba(224,82,76,0.16)" stroke-width="0.8"/><line x1="952" y1="0" x2="952" y2="256" stroke="rgba(224,82,76,0.16)" stroke-width="0.8"/><line x1="960" y1="0" x2="960" y2="256" stroke="rgba(224,82,76,0.34)" stroke-width="1.4"/><line x1="968" y1="0" x2="968" y2="256" stroke="rgba(224,82,76,0.16)" stroke-width="0.8"/><line x1="976" y1="0" x2="976" y2="256" stroke="rgba(224,82,76,0.16)" stroke-width="0.8"/><line x1="984" y1="0" x2="984" y2="256" stroke="rgba(224,82,76,0.16)" stroke-width="0.8"/><line x1="992" y1="0" x2="992" y2="256" stroke="rgba(224,82,76,0.16)" stroke-width="0.8"/><line x1="1000" y1="0" x2="1000" y2="256" stroke="rgba(224,82,76,0.34)" stroke-width="1.4"/><line x1="1008" y1="0" x2="1008" y2="256" stroke="rgba(224,82,76,0.16)" stroke-width="0.8"/><line x1="1016" y1="0" x2="1016" y2="256" stroke="rgba(224,82,76,0.16)" stroke-width="0.8"/><line x1="1024" y1="0" x2="1024" y2="256" stroke="rgba(224,82,76,0.16)" stroke-width="0.8"/><line x1="1032" y1="0" x2="1032" y2="256" stroke="rgba(224,82,76,0.16)" stroke-width="0.8"/><line x1="1040" y1="0" x2="1040" y2="256" stroke="rgba(224,82,76,0.34)" stroke-width="1.4"/><line x1="1048" y1="0" x2="1048" y2="256" stroke="rgba(224,82,76,0.16)" stroke-width="0.8"/><line x1="1056" y1="0" x2="1056" y2="256" stroke="rgba(224,82,76,0.16)" stroke-width="0.8"/><line x1="1064" y1="0" x2="1064" y2="256" stroke="rgba(224,82,76,0.16)" stroke-width="0.8"/><line x1="1072" y1="0" x2="1072" y2="256" stroke="rgba(224,82,76,0.16)" stroke-width="0.8"/><line x1="1080" y1="0" x2="1080" y2="256" stroke="rgba(224,82,76,0.34)" stroke-width="1.4"/><line x1="1088" y1="0" x2="1088" y2="256" stroke="rgba(224,82,76,0.16)" stroke-width="0.8"/><line x1="1096" y1="0" x2="1096" y2="256" stroke="rgba(224,82,76,0.16)" stroke-width="0.8"/><line x1="1104" y1="0" x2="1104" y2="256" stroke="rgba(224,82,76,0.16)" stroke-width="0.8"/><line x1="1112" y1="0" x2="1112" y2="256" stroke="rgba(224,82,76,0.16)" stroke-width="0.8"/><line x1="1120" y1="0" x2="1120" y2="256" stroke="rgba(224,82,76,0.34)" stroke-width="1.4"/><line x1="1128" y1="0" x2="1128" y2="256" stroke="rgba(224,82,76,0.16)" stroke-width="0.8"/><line x1="1136" y1="0" x2="1136" y2="256" stroke="rgba(224,82,76,0.16)" stroke-width="0.8"/><line x1="1144" y1="0" x2="1144" y2="256" stroke="rgba(224,82,76,0.16)" stroke-width="0.8"/><line x1="1152" y1="0" x2="1152" y2="256" stroke="rgba(224,82,76,0.16)" stroke-width="0.8"/><line x1="1160" y1="0" x2="1160" y2="256" stroke="rgba(224,82,76,0.34)" stroke-width="1.4"/><line x1="1168" y1="0" x2="1168" y2="256" stroke="rgba(224,82,76,0.16)" stroke-width="0.8"/><line x1="1176" y1="0" x2="1176" y2="256" stroke="rgba(224,82,76,0.16)" stroke-width="0.8"/><line x1="1184" y1="0" x2="1184" y2="256" stroke="rgba(224,82,76,0.16)" stroke-width="0.8"/><line x1="1192" y1="0" x2="1192" y2="256" stroke="rgba(224,82,76,0.16)" stroke-width="0.8"/><line x1="1200" y1="0" x2="1200" y2="256" stroke="rgba(224,82,76,0.34)" stroke-width="1.4"/><line x1="0" y1="0" x2="1200" y2="0" stroke="rgba(224,82,76,0.34)" stroke-width="1.4"/><line x1="0" y1="8" x2="1200" y2="8" stroke="rgba(224,82,76,0.16)" stroke-width="0.8"/><line x1="0" y1="16" x2="1200" y2="16" stroke="rgba(224,82,76,0.16)" stroke-width="0.8"/><line x1="0" y1="24" x2="1200" y2="24" stroke="rgba(224,82,76,0.16)" stroke-width="0.8"/><line x1="0" y1="32" x2="1200" y2="32" stroke="rgba(224,82,76,0.16)" stroke-width="0.8"/><line x1="0" y1="40" x2="1200" y2="40" stroke="rgba(224,82,76,0.34)" stroke-width="1.4"/><line x1="0" y1="48" x2="1200" y2="48" stroke="rgba(224,82,76,0.16)" stroke-width="0.8"/><line x1="0" y1="56" x2="1200" y2="56" stroke="rgba(224,82,76,0.16)" stroke-width="0.8"/><line x1="0" y1="64" x2="1200" y2="64" stroke="rgba(224,82,76,0.16)" stroke-width="0.8"/><line x1="0" y1="72" x2="1200" y2="72" stroke="rgba(224,82,76,0.16)" stroke-width="0.8"/><line x1="0" y1="80" x2="1200" y2="80" stroke="rgba(224,82,76,0.34)" stroke-width="1.4"/><line x1="0" y1="88" x2="1200" y2="88" stroke="rgba(224,82,76,0.16)" stroke-width="0.8"/><line x1="0" y1="96" x2="1200" y2="96" stroke="rgba(224,82,76,0.16)" stroke-width="0.8"/><line x1="0" y1="104" x2="1200" y2="104" stroke="rgba(224,82,76,0.16)" stroke-width="0.8"/><line x1="0" y1="112" x2="1200" y2="112" stroke="rgba(224,82,76,0.16)" stroke-width="0.8"/><line x1="0" y1="120" x2="1200" y2="120" stroke="rgba(224,82,76,0.34)" stroke-width="1.4"/><line x1="0" y1="128" x2="1200" y2="128" stroke="rgba(224,82,76,0.16)" stroke-width="0.8"/><line x1="0" y1="136" x2="1200" y2="136" stroke="rgba(224,82,76,0.16)" stroke-width="0.8"/><line x1="0" y1="144" x2="1200" y2="144" stroke="rgba(224,82,76,0.16)" stroke-width="0.8"/><line x1="0" y1="152" x2="1200" y2="152" stroke="rgba(224,82,76,0.16)" stroke-width="0.8"/><line x1="0" y1="160" x2="1200" y2="160" stroke="rgba(224,82,76,0.34)" stroke-width="1.4"/><line x1="0" y1="168" x2="1200" y2="168" stroke="rgba(224,82,76,0.16)" stroke-width="0.8"/><line x1="0" y1="176" x2="1200" y2="176" stroke="rgba(224,82,76,0.16)" stroke-width="0.8"/><line x1="0" y1="184" x2="1200" y2="184" stroke="rgba(224,82,76,0.16)" stroke-width="0.8"/><line x1="0" y1="192" x2="1200" y2="192" stroke="rgba(224,82,76,0.16)" stroke-width="0.8"/><line x1="0" y1="200" x2="1200" y2="200" stroke="rgba(224,82,76,0.34)" stroke-width="1.4"/><line x1="0" y1="208" x2="1200" y2="208" stroke="rgba(224,82,76,0.16)" stroke-width="0.8"/><line x1="0" y1="216" x2="1200" y2="216" stroke="rgba(224,82,76,0.16)" stroke-width="0.8"/><line x1="0" y1="224" x2="1200" y2="224" stroke="rgba(224,82,76,0.16)" stroke-width="0.8"/><line x1="0" y1="232" x2="1200" y2="232" stroke="rgba(224,82,76,0.16)" stroke-width="0.8"/><line x1="0" y1="240" x2="1200" y2="240" stroke="rgba(224,82,76,0.34)" stroke-width="1.4"/><line x1="0" y1="248" x2="1200" y2="248" stroke="rgba(224,82,76,0.16)" stroke-width="0.8"/><line x1="0" y1="256" x2="1200" y2="256" stroke="rgba(224,82,76,0.16)" stroke-width="0.8"/><path d="M 6 160 L 14 160 L 14 80 L 54 80 L 54 160" fill="none" stroke="#EEF1EE" stroke-width="2.6" stroke-linejoin="round"/><polyline points="0.0,160.0 0.8,160.0 1.6,160.0 2.4,160.0 3.2,160.0 4.0,160.0 4.8,160.0 5.6,160.0 6.4,160.0 7.2,160.0 8.0,159.9 8.8,159.9 9.6,159.9 10.4,159.8 11.2,159.8 12.0,159.7 12.8,159.6 13.6,159.4 14.4,159.2 15.2,159.0 16.0,158.7 16.8,158.3 17.6,157.9 18.4,157.4 19.2,156.8 20.0,156.1 20.8,155.3 21.6,154.4 22.4,153.4 23.2,152.3 24.0,151.2 24.8,150.0 25.6,148.9 26.4,147.7 27.2,146.6 28.0,145.5 28.8,144.6 29.6,143.8 30.4,143.1 31.2,142.7 32.0,142.4 32.8,142.4 33.6,142.6 34.4,143.0 35.2,143.6 36.0,144.4 36.8,145.3 37.6,146.3 38.4,147.4 39.2,148.6 40.0,149.7 40.8,150.9 41.6,152.0 42.4,153.1 43.2,154.1 44.0,155.1 44.8,155.9 45.6,156.6 46.4,157.2 47.2,157.8 48.0,158.2 48.8,158.6 49.6,158.9 50.4,159.2 51.2,159.4 52.0,159.5 52.8,159.7 53.6,159.8 54.4,159.8 55.2,159.9 56.0,159.9 56.8,159.9 57.6,160.0 58.4,160.0 59.2,160.0 60.0,160.0 60.8,160.0 61.6,160.0 62.4,160.0 63.2,160.0 64.0,160.0 64.8,160.0 65.6,160.0 66.4,160.0 67.2,160.0 68.0,160.0 68.8,160.0 69.6,159.9 70.4,159.9 71.2,159.9 72.0,159.8 72.8,159.7 73.6,159.6 74.4,159.4 75.2,159.2 76.0,158.8 76.8,158.3 77.6,157.7 78.4,156.9 79.2,155.8 80.0,154.5 80.8,152.8 81.6,150.8 82.4,148.4 83.2,145.6 84.0,142.3 84.8,138.6 85.6,134.5 86.4,130.0 87.2,125.1 88.0,120.1 88.8,114.9 89.6,109.6 90.4,104.5 91.2,99.5 92.0,94.9 92.8,90.7 93.6,87.1 94.4,84.1 95.2,81.8 96.0,80.4 96.8,79.7 97.6,80.0 98.4,81.2 99.2,83.2 100.0,86.2 100.8,90.0 101.6,94.6 102.4,99.9 103.2,105.9 104.0,112.4 104.8,119.2 105.6,126.3 106.4,133.5 107.2,140.5 108.0,147.3 108.8,153.7 109.6,159.6 110.4,164.8 111.2,169.3 112.0,173.0 112.8,175.9 113.6,178.0 114.4,179.4 115.2,180.0 116.0,180.1 116.8,179.5 117.6,178.6 118.4,177.3 119.2,175.8 120.0,174.2 120.8,172.5 121.6,170.9 122.4,169.3 123.2,167.8 124.0,166.5 124.8,165.3 125.6,164.3 126.4,163.5 127.2,162.8 128.0,162.3 128.8,161.9 129.6,161.5 130.4,161.3 131.2,161.2 132.0,161.1 132.8,161.1 133.6,161.1 134.4,161.2 135.2,161.3 136.0,161.5 136.8,161.6 137.6,161.8 138.4,162.1 139.2,162.3 140.0,162.6 140.8,162.9 141.6,163.2 142.4,163.5 143.2,163.9 144.0,164.3 144.8,164.7 145.6,165.2 146.4,165.7 147.2,166.1 148.0,166.7 148.8,167.2 149.6,167.7 150.4,168.3 151.2,168.8 152.0,169.4 152.8,170.0 153.6,170.5 154.4,171.1 155.2,171.6 156.0,172.1 156.8,172.6 157.6,173.0 158.4,173.4 159.2,173.7 160.0,173.9 160.8,174.1 161.6,174.2 162.4,174.1 163.2,174.0 164.0,173.7 164.8,173.3 165.6,172.7 166.4,172.0 167.2,171.1 168.0,170.1 168.8,169.0 169.6,167.7 170.4,166.3 171.2,164.8 172.0,163.3 172.8,161.7 173.6,160.2 174.4,158.7 175.2,157.2 176.0,155.9 176.8,154.8 177.6,153.8 178.4,153.0 179.2,152.4 180.0,152.0 180.8,151.9 181.6,151.9 182.4,152.1 183.2,152.5 184.0,153.0 184.8,153.6 185.6,154.3 186.4,155.0 187.2,155.7 188.0,156.4 188.8,157.1 189.6,157.7 190.4,158.3 191.2,158.8 192.0,159.2 192.8,159.6 193.6,159.9 194.4,160.1 195.2,160.2 196.0,160.4 196.8,160.4 197.6,160.5 198.4,160.5 199.2,160.5 200.0,160.5 200.8,160.4 201.6,160.4 202.4,160.4 203.2,160.3 204.0,160.3 204.8,160.2 205.6,160.2 206.4,160.2 207.2,160.2 208.0,160.1 208.8,160.1 209.6,160.1 210.4,160.1 211.2,160.1 212.0,160.1 212.8,160.0 213.6,160.0 214.4,160.0 215.2,160.0 216.0,160.0 216.8,160.0 217.6,160.0 218.4,160.0 219.2,160.0 220.0,160.0 220.8,160.0 221.6,160.0 222.4,160.0 223.2,160.0 224.0,160.0 224.8,160.0 225.6,160.0 226.4,160.0 227.2,160.0 228.0,160.0 228.8,160.0 229.6,160.0 230.4,160.0 231.2,160.0 232.0,160.0 232.8,160.0 233.6,160.0 234.4,160.0 235.2,160.0 236.0,160.0 236.8,160.0 237.6,160.0 238.4,160.0 239.2,160.0 240.0,160.0 240.8,160.0 241.6,160.0 242.4,160.0 243.2,160.0 244.0,160.0 244.8,160.0 245.6,160.0 246.4,160.0 247.2,160.0 248.0,160.0 248.8,160.0 249.6,160.0 250.4,160.0 251.2,160.0 252.0,160.0 252.8,160.0 253.6,160.0 254.4,160.0 255.2,160.0 256.0,160.0 256.8,160.0 257.6,160.0 258.4,160.0 259.2,160.0 260.0,160.0 260.8,160.0 261.6,160.0 262.4,160.0 263.2,160.0 264.0,160.0 264.8,160.0 265.6,160.0 266.4,160.0 267.2,160.0 268.0,160.0 268.8,160.0 269.6,160.0 270.4,160.0 271.2,160.0 272.0,160.0 272.8,160.0 273.6,160.0 274.4,160.0 275.2,160.0 276.0,160.0 276.8,160.0 277.6,160.0 278.4,160.0 279.2,160.0 280.0,160.0 280.8,160.0 281.6,160.0 282.4,160.0 283.2,160.0 284.0,160.0 284.8,160.0 285.6,160.0 286.4,160.0 287.2,160.0 288.0,160.0 288.8,160.0 289.6,160.0 290.4,160.0 291.2,160.0 292.0,160.0 292.8,160.0 293.6,160.0 294.4,160.0 295.2,160.0 296.0,160.0 296.8,160.0 297.6,160.0 298.4,160.0 299.2,160.0 300.0,160.0 300.8,159.9 301.6,159.9 302.4,159.9 303.2,159.8 304.0,159.8 304.8,159.7 305.6,159.6 306.4,159.4 307.2,159.2 308.0,159.0 308.8,158.7 309.6,158.3 310.4,157.8 311.2,157.3 312.0,156.7 312.8,156.0 313.6,155.1 314.4,154.2 315.2,153.2 316.0,152.2 316.8,151.0 317.6,149.9 318.4,148.7 319.2,147.5 320.0,146.4 320.8,145.4 321.6,144.4 322.4,143.7 323.2,143.1 324.0,142.6 324.8,142.4 325.6,142.4 326.4,142.6 327.2,143.1 328.0,143.7 328.8,144.5 329.6,145.4 330.4,146.4 331.2,147.6 332.0,148.7 332.8,149.9 333.6,151.1 334.4,152.2 335.2,153.3 336.0,154.3 336.8,155.2 337.6,156.0 338.4,156.7 339.2,157.3 340.0,157.9 340.8,158.3 341.6,158.7 342.4,159.0 343.2,159.2 344.0,159.4 344.8,159.6 345.6,159.7 346.4,159.8 347.2,159.8 348.0,159.9 348.8,159.9 349.6,159.9 350.4,160.0 351.2,160.0 352.0,160.0 352.8,160.0 353.6,160.0 354.4,160.0 355.2,160.0 356.0,160.0 356.8,160.0 357.6,160.0 358.4,160.0 359.2,160.0 360.0,160.0 360.8,160.0 361.6,160.0 362.4,160.0 363.2,160.0 364.0,160.0 364.8,160.0 365.6,160.0 366.4,160.0 367.2,160.0 368.0,160.0 368.8,160.0 369.6,160.0 370.4,160.0 371.2,160.0 372.0,160.0 372.8,160.0 373.6,160.0 374.4,160.0 375.2,160.0 376.0,160.0 376.8,160.0 377.6,160.0 378.4,160.0 379.2,160.0 380.0,160.0 380.8,160.0 381.6,160.0 382.4,160.0 383.2,160.0 384.0,160.0 384.8,160.0 385.6,159.9 386.4,159.9 387.2,159.9 388.0,159.8 388.8,159.7 389.6,159.6 390.4,159.4 391.2,159.1 392.0,158.7 392.8,158.2 393.6,157.5 394.4,156.6 395.2,155.5 396.0,154.1 396.8,152.3 397.6,150.2 398.4,147.7 399.2,144.8 400.0,141.4 400.8,137.5 401.6,133.3 402.4,128.7 403.2,123.8 404.0,118.7 404.8,113.5 405.6,108.3 406.4,103.2 407.2,98.3 408.0,93.8 408.8,89.7 409.6,86.2 410.4,83.4 411.2,81.4 412.0,80.1 412.8,79.7 413.6,80.2 414.4,81.6 415.2,83.9 416.0,87.1 416.8,91.1 417.6,95.9 418.4,101.5 419.2,107.6 420.0,114.1 420.8,121.1 421.6,128.2 422.4,135.3 423.2,142.3 424.0,149.0 424.8,155.3 425.6,161.0 426.4,166.1 427.2,170.4 428.0,173.9 428.8,176.6 429.6,178.5 430.4,179.6 431.2,180.1 432.0,180.0 432.8,179.3 433.6,178.3 434.4,177.0 435.2,175.4 436.0,173.8 436.8,172.1 437.6,170.4 438.4,168.9 439.2,167.5 440.0,166.2 440.8,165.1 441.6,164.1 442.4,163.3 443.2,162.7 444.0,162.1 444.8,161.7 445.6,161.4 446.4,161.2 447.2,161.1 448.0,161.0 448.8,161.0 449.6,161.0 450.4,161.0 451.2,161.0 452.0,161.0 452.8,161.1 453.6,161.1 454.4,161.1 455.2,161.0 456.0,160.9 456.8,160.8 457.6,160.5 458.4,160.3 459.2,159.9 460.0,159.5 460.8,159.0 461.6,158.5 462.4,157.9 463.2,157.2 464.0,156.6 464.8,155.9 465.6,155.3 466.4,154.7 467.2,154.3 468.0,153.9 468.8,153.7 469.6,153.7 470.4,153.9 471.2,154.2 472.0,154.8 472.8,155.5 473.6,156.5 474.4,157.5 475.2,158.8 476.0,160.1 476.8,161.5 477.6,162.9 478.4,164.3 479.2,165.7 480.0,167.0 480.8,168.2 481.6,169.4 482.4,170.3 483.2,171.2 484.0,171.8 484.8,172.4 485.6,172.8 486.4,173.0 487.2,173.1 488.0,173.1 488.8,173.0 489.6,172.8 490.4,172.5 491.2,172.2 492.0,171.7 492.8,171.3 493.6,170.8 494.4,170.3 495.2,169.8 496.0,169.2 496.8,168.7 497.6,168.1 498.4,167.6 499.2,167.0 500.0,166.5 500.8,166.0 501.6,165.5 502.4,165.1 503.2,164.6 504.0,164.2 504.8,163.8 505.6,163.4 506.4,163.1 507.2,162.8 508.0,162.5 508.8,162.2 509.6,162.0 510.4,161.7 511.2,161.5 512.0,161.4 512.8,161.2 513.6,161.0 514.4,160.9 515.2,160.8 516.0,160.7 516.8,160.6 517.6,160.5 518.4,160.4 519.2,160.4 520.0,160.3 520.8,160.3 521.6,160.2 522.4,160.2 523.2,160.2 524.0,160.1 524.8,160.1 525.6,160.1 526.4,160.1 527.2,160.1 528.0,160.0 528.8,160.0 529.6,160.0 530.4,160.0 531.2,160.0 532.0,160.0 532.8,160.0 533.6,160.0 534.4,160.0 535.2,160.0 536.0,160.0 536.8,160.0 537.6,160.0 538.4,160.0 539.2,160.0 540.0,160.0 540.8,160.0 541.6,160.0 542.4,160.0 543.2,160.0 544.0,160.0 544.8,160.0 545.6,160.0 546.4,160.0 547.2,160.0 548.0,160.0 548.8,160.0 549.6,160.0 550.4,160.0 551.2,160.0 552.0,160.0 552.8,160.0 553.6,160.0 554.4,160.0 555.2,160.0 556.0,160.0 556.8,160.0 557.6,160.0 558.4,160.0 559.2,160.0 560.0,160.0 560.8,160.0 561.6,160.0 562.4,160.0 563.2,160.0 564.0,160.0 564.8,160.0 565.6,160.0 566.4,160.0 567.2,160.0 568.0,160.0 568.8,160.0 569.6,160.0 570.4,160.0 571.2,160.0 572.0,160.0 572.8,160.0 573.6,160.0 574.4,160.0 575.2,160.0 576.0,160.0 576.8,160.0 577.6,160.0 578.4,160.0 579.2,160.0 580.0,160.0 580.8,160.0 581.6,160.0 582.4,160.0 583.2,160.0 584.0,160.0 584.8,160.0 585.6,160.0 586.4,160.0 587.2,160.0 588.0,160.0 588.8,160.0 589.6,160.0 590.4,160.0 591.2,160.0 592.0,160.0 592.8,160.0 593.6,159.9 594.4,159.9 595.2,159.9 596.0,159.8 596.8,159.8 597.6,159.7 598.4,159.5 599.2,159.4 600.0,159.2 600.8,158.9 601.6,158.6 602.4,158.2 603.2,157.8 604.0,157.2 604.8,156.6 605.6,155.8 606.4,155.0 607.2,154.1 608.0,153.1 608.8,152.0 609.6,150.9 610.4,149.7 611.2,148.5 612.0,147.3 612.8,146.2 613.6,145.2 614.4,144.3 615.2,143.6 616.0,143.0 616.8,142.6 617.6,142.4 618.4,142.4 619.2,142.7 620.0,143.2 620.8,143.8 621.6,144.6 622.4,145.6 623.2,146.6 624.0,147.7 624.8,148.9 625.6,150.1 626.4,151.2 627.2,152.4 628.0,153.4 628.8,154.4 629.6,155.3 630.4,156.1 631.2,156.8 632.0,157.4 632.8,157.9 633.6,158.4 634.4,158.7 635.2,159.0 636.0,159.2 636.8,159.4 637.6,159.6 638.4,159.7 639.2,159.8 640.0,159.8 640.8,159.9 641.6,159.9 642.4,159.9 643.2,160.0 644.0,160.0 644.8,160.0 645.6,160.0 646.4,160.0 647.2,160.0 648.0,160.0 648.8,160.0 649.6,160.0 650.4,160.0 651.2,160.0 652.0,160.0 652.8,160.0 653.6,160.0 654.4,160.0 655.2,160.0 656.0,160.0 656.8,160.0 657.6,160.0 658.4,160.0 659.2,160.0 660.0,160.0 660.8,160.0 661.6,160.0 662.4,160.0 663.2,160.0 664.0,160.0 664.8,160.0 665.6,160.0 666.4,160.0 667.2,160.0 668.0,160.0 668.8,160.0 669.6,160.0 670.4,160.0 671.2,160.0 672.0,160.0 672.8,160.0 673.6,160.0 674.4,160.0 675.2,160.0 676.0,160.0 676.8,160.0 677.6,160.0 678.4,160.0 679.2,160.0 680.0,160.0 680.8,160.0 681.6,160.0 682.4,160.0 683.2,160.0 684.0,160.0 684.8,160.0 685.6,160.0 686.4,160.0 687.2,160.0 688.0,160.0 688.8,160.0 689.6,160.0 690.4,160.0 691.2,160.0 692.0,160.0 692.8,160.0 693.6,160.0 694.4,160.0 695.2,160.0 696.0,160.0 696.8,160.0 697.6,160.0 698.4,160.0 699.2,160.0 700.0,160.0 700.8,160.0 701.6,159.9 702.4,159.9 703.2,159.9 704.0,159.8 704.8,159.7 705.6,159.5 706.4,159.3 707.2,159.0 708.0,158.6 708.8,158.0 709.6,157.3 710.4,156.4 711.2,155.2 712.0,153.7 712.8,151.8 713.6,149.6 714.4,147.0 715.2,143.9 716.0,140.4 716.8,136.5 717.6,132.1 718.4,127.5 719.2,122.5 720.0,117.4 720.8,112.1 721.6,106.9 722.4,101.8 723.2,97.1 724.0,92.6 724.8,88.7 725.6,85.4 726.4,82.8 727.2,81.0 728.0,79.9 728.8,79.8 729.6,80.5 730.4,82.1 731.2,84.7 732.0,88.1 732.8,92.3 733.6,97.3 734.4,103.0 735.2,109.2 736.0,115.9 736.8,122.9 737.6,130.0 738.4,137.2 739.2,144.1 740.0,150.7 740.8,156.8 741.6,162.3 742.4,167.1 743.2,171.1 744.0,174.3 744.8,176.7 745.6,178.2 746.4,179.0 747.2,179.0 748.0,178.4 748.8,177.3 749.6,175.7 750.4,173.7 751.2,171.5 752.0,169.1 752.8,166.6 753.6,164.0 754.4,161.5 755.2,159.0 756.0,156.6 756.8,154.4 757.6,152.3 758.4,150.4 759.2,148.7 760.0,147.2 760.8,145.9 761.6,144.9 762.4,144.2 763.2,143.7 764.0,143.5 764.8,143.6 765.6,143.9 766.4,144.5 767.2,145.2 768.0,146.2 768.8,147.4 769.6,148.6 770.4,150.0 771.2,151.4 772.0,152.9 772.8,154.4 773.6,155.8 774.4,157.2 775.2,158.6 776.0,159.9 776.8,161.1 777.6,162.3 778.4,163.4 779.2,164.4 780.0,165.3 780.8,166.2 781.6,167.0 782.4,167.8 783.2,168.6 784.0,169.3 784.8,170.0 785.6,170.6 786.4,171.3 787.2,171.8 788.0,172.4 788.8,172.9 789.6,173.4 790.4,173.9 791.2,174.3 792.0,174.7 792.8,175.0 793.6,175.3 794.4,175.6 795.2,175.8 796.0,175.9 796.8,176.0 797.6,176.0 798.4,176.0 799.2,175.9 800.0,175.7 800.8,175.6 801.6,175.3 802.4,175.0 803.2,174.7 804.0,174.3 804.8,173.9 805.6,173.4 806.4,173.0 807.2,172.5 808.0,171.9 808.8,171.4 809.6,170.8 810.4,170.3 811.2,169.7 812.0,169.1 812.8,168.5 813.6,168.0 814.4,167.4 815.2,166.9 816.0,166.4 816.8,165.9 817.6,165.4 818.4,164.9 819.2,164.5 820.0,164.1 820.8,163.7 821.6,163.4 822.4,163.0 823.2,162.7 824.0,162.4 824.8,162.2 825.6,161.9 826.4,161.7 827.2,161.5 828.0,161.3 828.8,161.1 829.6,161.0 830.4,160.9 831.2,160.7 832.0,160.6 832.8,160.6 833.6,160.5 834.4,160.4 835.2,160.3 836.0,160.3 836.8,160.2 837.6,160.2 838.4,160.2 839.2,160.1 840.0,160.1 840.8,160.1 841.6,160.1 842.4,160.1 843.2,160.1 844.0,160.0 844.8,160.0 845.6,160.0 846.4,160.0 847.2,160.0 848.0,160.0 848.8,160.0 849.6,160.0 850.4,160.0 851.2,160.0 852.0,160.0 852.8,160.0 853.6,160.0 854.4,160.0 855.2,160.0 856.0,160.0 856.8,160.0 857.6,160.0 858.4,160.0 859.2,160.0 860.0,160.0 860.8,160.0 861.6,160.0 862.4,160.0 863.2,160.0 864.0,160.0 864.8,160.0 865.6,160.0 866.4,160.0 867.2,160.0 868.0,160.0 868.8,160.0 869.6,160.0 870.4,160.0 871.2,160.0 872.0,160.0 872.8,160.0 873.6,160.0 874.4,160.0 875.2,160.0 876.0,160.0 876.8,160.0 877.6,160.0 878.4,160.0 879.2,160.0 880.0,160.0 880.8,160.0 881.6,160.0 882.4,160.0 883.2,160.0 884.0,160.0 884.8,160.0 885.6,160.0 886.4,159.9 887.2,159.9 888.0,159.9 888.8,159.8 889.6,159.7 890.4,159.6 891.2,159.5 892.0,159.4 892.8,159.1 893.6,158.9 894.4,158.6 895.2,158.2 896.0,157.7 896.8,157.1 897.6,156.5 898.4,155.7 899.2,154.9 900.0,153.9 900.8,152.9 901.6,151.8 902.4,150.7 903.2,149.5 904.0,148.3 904.8,147.2 905.6,146.1 906.4,145.1 907.2,144.2 908.0,143.5 908.8,142.9 909.6,142.6 910.4,142.4 911.2,142.5 912.0,142.8 912.8,143.2 913.6,143.9 914.4,144.7 915.2,145.7 916.0,146.8 916.8,147.9 917.6,149.1 918.4,150.3 919.2,151.4 920.0,152.5 920.8,153.6 921.6,154.5 922.4,155.4 923.2,156.2 924.0,156.9 924.8,157.5 925.6,158.0 926.4,158.4 927.2,158.8 928.0,159.1 928.8,159.3 929.6,159.5 930.4,159.6 931.2,159.7 932.0,159.8 932.8,159.8 933.6,159.9 934.4,159.9 935.2,159.9 936.0,160.0 936.8,160.0 937.6,160.0 938.4,160.0 939.2,160.0 940.0,160.0 940.8,160.0 941.6,160.0 942.4,160.0 943.2,160.0 944.0,160.0 944.8,160.0 945.6,160.0 946.4,160.0 947.2,160.0 948.0,160.0 948.8,160.0 949.6,160.0 950.4,160.0 951.2,160.0 952.0,160.0 952.8,160.0 953.6,160.0 954.4,160.0 955.2,160.0 956.0,160.0 956.8,160.0 957.6,160.0 958.4,160.0 959.2,160.0 960.0,160.0 960.8,160.0 961.6,160.0 962.4,160.0 963.2,160.0 964.0,160.0 964.8,160.0 965.6,160.0 966.4,160.0 967.2,160.0 968.0,160.0 968.8,160.0 969.6,160.0 970.4,160.0 971.2,160.0 972.0,160.0 972.8,160.0 973.6,160.0 974.4,160.0 975.2,160.0 976.0,160.0 976.8,160.0 977.6,160.0 978.4,160.0 979.2,160.0 980.0,160.0 980.8,160.0 981.6,160.0 982.4,160.0 983.2,160.0 984.0,160.0 984.8,160.0 985.6,160.0 986.4,160.0 987.2,160.0 988.0,160.0 988.8,160.0 989.6,160.0 990.4,160.0 991.2,160.0 992.0,160.0 992.8,160.0 993.6,160.0 994.4,160.0 995.2,160.0 996.0,160.0 996.8,160.0 997.6,160.0 998.4,160.0 999.2,160.0 1000.0,160.0 1000.8,160.0 1001.6,160.0 1002.4,160.0 1003.2,160.0 1004.0,160.0 1004.8,160.0 1005.6,160.0 1006.4,160.0 1007.2,160.0 1008.0,160.0 1008.8,160.0 1009.6,160.0 1010.4,160.0 1011.2,160.0 1012.0,160.0 1012.8,160.0 1013.6,160.0 1014.4,160.0 1015.2,160.0 1016.0,160.0 1016.8,160.0 1017.6,159.9 1018.4,159.9 1019.2,159.8 1020.0,159.8 1020.8,159.6 1021.6,159.5 1022.4,159.2 1023.2,158.9 1024.0,158.4 1024.8,157.9 1025.6,157.1 1026.4,156.1 1027.2,154.8 1028.0,153.2 1028.8,151.3 1029.6,148.9 1030.4,146.2 1031.2,143.0 1032.0,139.4 1032.8,135.3 1033.6,130.8 1034.4,126.0 1035.2,121.0 1036.0,115.7 1036.8,110.4 1037.6,105.1 1038.4,99.9 1039.2,95.0 1040.0,90.4 1040.8,86.3 1041.6,82.8 1042.4,79.9 1043.2,77.7 1044.0,76.2 1044.8,75.5 1045.6,75.7 1046.4,76.6 1047.2,78.3 1048.0,80.9 1048.8,84.2 1049.6,88.2 1050.4,92.9 1051.2,98.1 1052.0,103.8 1052.8,109.8 1053.6,116.1 1054.4,122.5 1055.2,128.8 1056.0,134.9 1056.8,140.8 1057.6,146.2 1058.4,151.2 1059.2,155.6 1060.0,159.3 1060.8,162.5 1061.6,164.9 1062.4,166.8 1063.2,168.1 1064.0,168.9 1064.8,169.2 1065.6,169.1 1066.4,168.8 1067.2,168.2 1068.0,167.5 1068.8,166.7 1069.6,165.9 1070.4,165.1 1071.2,164.3 1072.0,163.6 1072.8,163.0 1073.6,162.5 1074.4,162.0 1075.2,161.7 1076.0,161.4 1076.8,161.2 1077.6,161.1 1078.4,161.0 1079.2,161.0 1080.0,161.0 1080.8,161.1 1081.6,161.1 1082.4,161.3 1083.2,161.4 1084.0,161.6 1084.8,161.8 1085.6,162.0 1086.4,162.2 1087.2,162.5 1088.0,162.8 1088.8,163.1 1089.6,163.5 1090.4,163.8 1091.2,164.2 1092.0,164.6 1092.8,165.1 1093.6,165.6 1094.4,166.0 1095.2,166.5 1096.0,167.1 1096.8,167.6 1097.6,168.2 1098.4,168.7 1099.2,169.3 1100.0,169.9 1100.8,170.4 1101.6,171.0 1102.4,171.6 1103.2,172.1 1104.0,172.6 1104.8,173.1 1105.6,173.6 1106.4,174.0 1107.2,174.4 1108.0,174.8 1108.8,175.1 1109.6,175.4 1110.4,175.6 1111.2,175.8 1112.0,175.9 1112.8,176.0 1113.6,176.0 1114.4,176.0 1115.2,175.9 1116.0,175.7 1116.8,175.5 1117.6,175.2 1118.4,174.9 1119.2,174.6 1120.0,174.2 1120.8,173.8 1121.6,173.3 1122.4,172.8 1123.2,172.3 1124.0,171.8 1124.8,171.2 1125.6,170.7 1126.4,170.1 1127.2,169.5 1128.0,169.0 1128.8,168.4 1129.6,167.8 1130.4,167.3 1131.2,166.8 1132.0,166.2 1132.8,165.8 1133.6,165.3 1134.4,164.8 1135.2,164.4 1136.0,164.0 1136.8,163.6 1137.6,163.3 1138.4,162.9 1139.2,162.6 1140.0,162.3 1140.8,162.1 1141.6,161.8 1142.4,161.6 1143.2,161.4 1144.0,161.3 1144.8,161.1 1145.6,161.0 1146.4,160.8 1147.2,160.7 1148.0,160.6 1148.8,160.5 1149.6,160.5 1150.4,160.4 1151.2,160.3 1152.0,160.3 1152.8,160.2 1153.6,160.2 1154.4,160.2 1155.2,160.1 1156.0,160.1 1156.8,160.1 1157.6,160.1 1158.4,160.1 1159.2,160.1 1160.0,160.0 1160.8,160.0 1161.6,160.0 1162.4,160.0 1163.2,160.0 1164.0,160.0 1164.8,160.0 1165.6,160.0 1166.4,160.0 1167.2,160.0 1168.0,160.0 1168.8,160.0 1169.6,160.0 1170.4,160.0 1171.2,160.0 1172.0,160.0 1172.8,160.0 1173.6,160.0 1174.4,160.0 1175.2,160.0 1176.0,160.0 1176.8,160.0 1177.6,160.0 1178.4,160.0 1179.2,159.9 1180.0,159.9 1180.8,159.9 1181.6,159.8 1182.4,159.7 1183.2,159.6 1184.0,159.5 1184.8,159.3 1185.6,159.1 1186.4,158.8 1187.2,158.5 1188.0,158.1 1188.8,157.6 1189.6,157.0 1190.4,156.4 1191.2,155.6 1192.0,154.8 1192.8,153.8 1193.6,152.8 1194.4,151.7 1195.2,150.5 1196.0,149.3 1196.8,148.2 1197.6,147.0 1198.4,145.9 1199.2,144.9 1200.0,144.1" fill="none" stroke="#EEF1EE" stroke-width="2.6" stroke-linejoin="round" stroke-linecap="round"/><text x="10" y="246" fill="rgba(169,180,188,0.55)" font-family="IBM Plex Mono, ui-monospace, monospace" font-size="15">25 mm/s &#183; 10 mm/mV &#183; 6 sec</text></svg>